<svg xmlns="http://www.w3.org/2000/svg" viewBox="0 0 500 500"><g id="freepik--Floor--inject-45"><ellipse id="freepik--floor--inject-45" cx="250" cy="393.35" rx="193.61" ry="96.63" style="fill:#f5f5f5"></ellipse></g><g id="freepik--Windows--inject-45"><g id="freepik--Window--inject-45"><g id="freepik--window--inject-45"><g id="freepik--Frame--inject-45"><polygon points="398.04 173.18 470.26 214.87 470.26 139.81 398.04 98.13 398.04 173.18" style="fill:#fff"></polygon><path d="M391.52,177l83,47.91V137.35l-83-47.92Zm4.26-80.18,74.48,43v77.72l-74.48-43Z" style="fill:#f0f0f0"></path><polygon points="395.79 174.53 398.04 173.18 398.04 98.13 395.78 96.81 395.79 174.53" style="fill:#e0e0e0"></polygon><polygon points="470.26 214.89 470.26 217.54 395.79 174.54 398.04 173.2 470.26 214.89" style="fill:#fafafa"></polygon><polygon points="470.26 174.06 470.26 176.71 395.79 133.71 398.04 132.36 470.26 174.06" style="fill:#fafafa"></polygon><polygon points="391.52 89.43 393.82 88.12 476.81 136.03 474.52 137.35 391.52 89.43" style="fill:#fafafa"></polygon><polygon points="476.81 136.03 474.52 137.35 474.52 224.9 476.81 223.59 476.81 136.03" style="fill:#e0e0e0"></polygon><polygon points="437.42 120.84 435.13 119.52 435.13 197.25 437.42 195.94 437.42 120.84" style="fill:#e0e0e0"></polygon></g><polygon points="430.87 117.07 435.13 119.52 435.13 197.25 430.87 194.78 430.87 117.07" style="fill:#f0f0f0"></polygon><polygon points="391.52 131.25 391.52 136.16 474.52 184.08 474.52 179.17 391.52 131.25" style="fill:#f0f0f0"></polygon><polygon points="435.13 156.43 437.42 155.1 470.26 174.06 470.26 176.71 435.13 156.43" style="fill:#fafafa"></polygon><polygon points="435.13 197.23 437.42 195.91 470.26 214.87 470.26 217.52 435.13 197.23" style="fill:#fafafa"></polygon></g></g><g id="freepik--window--inject-45"><g id="freepik--window--inject-45"><g id="freepik--frame--inject-45"><polygon points="102.05 173.18 29.83 214.87 29.83 139.81 102.05 98.13 102.05 173.18" style="fill:#fff"></polygon><path d="M108.57,89.43l-83,47.92V224.9l83-47.91Zm-4.26,85.1-74.48,43V139.81l74.48-43Z" style="fill:#f0f0f0"></path><polygon points="104.31 174.53 102.05 173.18 102.05 98.13 104.31 96.81 104.31 174.53" style="fill:#e0e0e0"></polygon><polygon points="29.83 214.89 29.83 217.54 104.31 174.54 102.05 173.2 29.83 214.89" style="fill:#fafafa"></polygon><polygon points="29.83 174.06 29.83 176.71 104.31 133.71 102.05 132.36 29.83 174.06" style="fill:#fafafa"></polygon><polygon points="108.57 89.43 106.28 88.12 23.28 136.03 25.57 137.35 108.57 89.43" style="fill:#fafafa"></polygon><polygon points="23.28 136.03 25.57 137.35 25.57 224.9 23.28 223.59 23.28 136.03" style="fill:#e0e0e0"></polygon><polygon points="62.67 120.84 64.97 119.52 64.97 197.25 62.67 195.94 62.67 120.84" style="fill:#e0e0e0"></polygon></g><polygon points="69.23 117.07 64.97 119.52 64.97 197.25 69.22 194.78 69.23 117.07" style="fill:#f0f0f0"></polygon><polygon points="108.57 131.25 108.57 136.16 25.57 184.08 25.57 179.17 108.57 131.25" style="fill:#f0f0f0"></polygon><polygon points="64.97 156.43 62.67 155.1 29.83 174.06 29.83 176.71 64.97 156.43" style="fill:#fafafa"></polygon><polygon points="64.97 197.23 62.67 195.91 29.83 214.87 29.83 217.52 64.97 197.23" style="fill:#fafafa"></polygon></g></g></g><g id="freepik--Spotlights--inject-45"><g id="freepik--Lights--inject-45"><path d="M250,489.42c-49.66,0-99.32-9.43-137.13-28.3-37.12-18.53-57.35-43.21-57-69.49L43.68,77.38l0-.07,5.87-23.56,21.65-.37.14.12,29.48,24.81,4.62-24,6.05-24.8,21.65-.39.14.12,116.75,96.4L366.94,29.11l21.63.39,5.87,23.56,4.64,23.15,29.81-22.83,21.62.37,5.9,23.63v.08L444.05,394.7h0c-1.21,25.11-21.41,48.68-56.92,66.41C349.32,480,299.66,489.42,250,489.42ZM44.68,77.49,56.91,391.62c-.38,25.9,19.65,50.26,56.41,68.6,75.36,37.62,198,37.62,273.36,0,35.35-17.64,55.38-41.06,56.38-65.93l0-.37L455.4,77.49l-5.67-22.75-20.51-.36L398.41,78l-4.94-24.7-5.69-22.8-20.49-.36-117.24,96.8L132.81,30.12l-20.51.36-5.86,24L101.5,80.17,70.86,54.38l-20.5.36Z" style="fill:#e0e0e0"></path><polygon points="452.17 43.24 454.88 41.68 454.88 52.31 452.17 53.87 452.17 43.24" style="fill:#263238"></polygon><polygon points="452.17 43.24 454.88 41.68 454.88 52.31 452.17 53.87 452.17 43.24" style="opacity:0.1"></polygon><polygon points="440.77 56.39 443.65 68.17 432.85 73.68 427.78 56.29 440.77 56.39" style="fill:#455a64"></polygon><polygon points="446.49 70.44 436.15 77.27 436.03 78.11 452.19 81.8 454.4 70.76 446.49 70.44" style="fill:#e0e0e0"></polygon><polygon points="446.61 69.6 436.15 77.27 452.31 80.97 454.4 70.76 446.61 69.6" style="fill:#455a64"></polygon><path d="M460.09,49A12.94,12.94,0,0,1,466,59.12c0,1.86-.65,3.15-1.7,3.76l-6.92,4c-1.06.61-2.51.53-4.12-.4a12.94,12.94,0,0,1-5.86-10.15c0-1.86.65-3.16,1.7-3.77l6.93-4C457,48,458.48,48,460.09,49Z" style="fill:#263238"></path><path d="M456,50.2a15.18,15.18,0,0,1,6.87,11.89c0,2.17-.77,3.69-2,4.41l-8.11,4.68c-1.24.72-2.94.62-4.83-.47A15.17,15.17,0,0,1,441,58.82c0-2.18.76-3.7,2-4.41l8.11-4.69C452.39,49,454.08,49.11,456,50.2Z" style="fill:#455a64"></path><path d="M447.9,54.85a15.17,15.17,0,0,1,6.87,11.9c0,4.38-3.07,6.15-6.87,4A15.17,15.17,0,0,1,441,58.82C441,54.44,444.11,52.66,447.9,54.85Z" style="fill:#e0e0e0"></path><path d="M447.9,56a13,13,0,0,1,5.87,10.16c0,3.74-2.63,5.26-5.87,3.39A13,13,0,0,1,442,59.4C442,55.66,444.66,54.14,447.9,56Z" style="fill:#fff"></path><polygon points="455.06 57.95 449.87 59.31 455.15 77.61 455.91 77.44 457.14 67.76 455.06 57.95" style="fill:#e0e0e0"></polygon><polygon points="455.06 57.95 450.62 59.14 455.91 77.44 457.9 67.59 455.06 57.95" style="fill:#263238"></polygon><polygon points="450.01 55 445.06 56.09 428.94 54.64 429.05 53.88 442.31 53.86 450.12 54.24 450.01 55" style="fill:#e0e0e0"></polygon><polygon points="450.12 54.24 445.17 55.33 429.05 53.88 442.42 53.1 450.12 54.24" style="fill:#263238"></polygon><polygon points="462.99 62.05 465.69 60.49 465.69 47.93 454.88 41.68 452.17 43.24 462.99 49.49 462.99 62.05" style="fill:#263238"></polygon><path d="M464.34,61.27a3.09,3.09,0,0,0,1.35-2.45V47.93l-10.81-6.25-2.71,1.56L463,49.49v10.9C463,61.31,463.6,61.7,464.34,61.27Z" style="opacity:0.05"></path><path d="M464.34,60.19a1.63,1.63,0,0,0,.75-1.29c0-.48-.33-.67-.75-.43a1.64,1.64,0,0,0-.75,1.29C463.59,60.24,463.93,60.43,464.34,60.19Z" style="fill:#fff"></path><polygon points="390.23 18.99 392.93 17.43 392.93 28.05 390.23 29.61 390.23 18.99" style="fill:#263238"></polygon><polygon points="390.23 18.99 392.93 17.43 392.93 28.05 390.23 29.61 390.23 18.99" style="opacity:0.1"></polygon><polygon points="378.83 32.13 381.71 43.92 370.91 49.43 365.84 32.03 378.83 32.13" style="fill:#455a64"></polygon><polygon points="384.54 46.19 374.21 53.02 374.09 53.85 390.25 57.55 392.46 46.5 384.54 46.19" style="fill:#e0e0e0"></polygon><polygon points="384.67 45.35 374.21 53.02 390.37 56.71 392.46 46.5 384.67 45.35" style="fill:#455a64"></polygon><path d="M398.15,24.72A12.93,12.93,0,0,1,404,34.87c0,1.85-.65,3.15-1.7,3.76l-6.93,4c-1.05.61-2.5.52-4.12-.41a13,13,0,0,1-5.86-10.15,4.09,4.09,0,0,1,1.71-3.76l6.92-4C395.09,23.7,396.54,23.79,398.15,24.72Z" style="fill:#263238"></path><path d="M394,25.94a15.17,15.17,0,0,1,6.86,11.89c0,2.18-.76,3.7-2,4.41l-8.11,4.69c-1.24.71-2.94.62-4.83-.47a15.2,15.2,0,0,1-6.87-11.9c0-2.18.77-3.7,2-4.41l8.12-4.68C390.44,24.75,392.14,24.85,394,25.94Z" style="fill:#455a64"></path><path d="M386,30.6a15.18,15.18,0,0,1,6.87,11.89c0,4.38-3.08,6.16-6.87,4a15.2,15.2,0,0,1-6.87-11.9C379.09,30.18,382.17,28.41,386,30.6Z" style="fill:#e0e0e0"></path><path d="M386,31.75a13,13,0,0,1,5.87,10.16c0,3.74-2.63,5.26-5.87,3.39a13,13,0,0,1-5.87-10.16C380.09,31.4,382.72,29.88,386,31.75Z" style="fill:#fff"></path><polygon points="393.12 33.7 387.92 35.05 393.21 53.35 393.96 53.18 395.2 43.5 393.12 33.7" style="fill:#e0e0e0"></polygon><polygon points="393.12 33.7 388.68 34.88 393.96 53.18 395.95 43.33 393.12 33.7" style="fill:#263238"></polygon><polygon points="388.07 30.75 383.12 31.84 367 30.38 367.11 29.62 380.36 29.61 388.18 29.98 388.07 30.75" style="fill:#e0e0e0"></polygon><polygon points="388.18 29.98 383.23 31.08 367.11 29.62 380.48 28.84 388.18 29.98" style="fill:#263238"></polygon><polygon points="401.05 37.8 403.75 36.23 403.75 23.67 392.93 17.43 390.23 18.99 401.05 25.23 401.05 37.8" style="fill:#263238"></polygon><path d="M402.4,37a3.07,3.07,0,0,0,1.35-2.44V23.67l-10.82-6.25L390.23,19l10.82,6.24v10.9C401.05,37.05,401.65,37.45,402.4,37Z" style="opacity:0.05"></path><path d="M402.4,35.94a1.67,1.67,0,0,0,.75-1.3c0-.48-.34-.67-.75-.43a1.67,1.67,0,0,0-.75,1.3C401.65,36,402,36.18,402.4,35.94Z" style="fill:#fff"></path><polygon points="47.92 43.24 45.21 41.68 45.21 52.31 47.92 53.87 47.92 43.24" style="fill:#263238"></polygon><polygon points="47.92 43.24 45.21 41.68 45.21 52.31 47.92 53.87 47.92 43.24" style="opacity:0.1"></polygon><polygon points="59.32 56.39 56.43 68.17 67.24 73.68 72.3 56.29 59.32 56.39" style="fill:#455a64"></polygon><polygon points="53.6 70.44 63.94 77.27 64.06 78.11 47.9 81.8 45.69 70.76 53.6 70.44" style="fill:#e0e0e0"></polygon><polygon points="53.48 69.6 63.94 77.27 47.77 80.97 45.69 70.76 53.48 69.6" style="fill:#455a64"></polygon><path d="M40,49a12.94,12.94,0,0,0-5.86,10.15c0,1.86.65,3.15,1.7,3.76l6.92,4c1.06.61,2.51.53,4.12-.4a12.94,12.94,0,0,0,5.86-10.15c0-1.86-.65-3.16-1.71-3.77l-6.92-4C43.06,48,41.6,48,40,49Z" style="fill:#263238"></path><path d="M44.12,50.2a15.18,15.18,0,0,0-6.87,11.89c0,2.17.76,3.69,2,4.41l8.12,4.68c1.23.72,2.94.62,4.82-.47a15.15,15.15,0,0,0,6.87-11.89c0-2.18-.77-3.7-2-4.41l-8.11-4.69C47.7,49,46,49.11,44.12,50.2Z" style="fill:#455a64"></path><path d="M52.18,54.85a15.19,15.19,0,0,0-6.86,11.9c0,4.38,3.07,6.15,6.86,4a15.15,15.15,0,0,0,6.87-11.89C59.05,54.44,56,52.66,52.18,54.85Z" style="fill:#e0e0e0"></path><path d="M52.18,56a13,13,0,0,0-5.86,10.16c0,3.74,2.62,5.26,5.86,3.39A13,13,0,0,0,58.05,59.4C58.05,55.66,55.42,54.14,52.18,56Z" style="fill:#fff"></path><polygon points="45.02 57.95 50.22 59.31 44.94 77.61 44.18 77.44 42.95 67.76 45.02 57.95" style="fill:#e0e0e0"></polygon><polygon points="45.02 57.95 49.47 59.14 44.18 77.44 42.19 67.59 45.02 57.95" style="fill:#263238"></polygon><polygon points="50.08 55 55.03 56.09 71.15 54.64 71.04 53.88 57.78 53.86 49.96 54.24 50.08 55" style="fill:#e0e0e0"></polygon><polygon points="49.96 54.24 54.91 55.33 71.04 53.88 57.67 53.1 49.96 54.24" style="fill:#263238"></polygon><polygon points="37.1 62.05 34.39 60.49 34.39 47.93 45.21 41.68 47.92 43.24 37.1 49.49 37.1 62.05" style="fill:#263238"></polygon><path d="M35.75,61.27a3.1,3.1,0,0,1-1.36-2.45V47.93l10.82-6.25,2.71,1.56L37.1,49.49v10.9C37.1,61.31,36.49,61.7,35.75,61.27Z" style="opacity:0.05"></path><path d="M35.75,60.19A1.63,1.63,0,0,1,35,58.9c0-.48.33-.67.75-.43a1.63,1.63,0,0,1,.74,1.29C36.49,60.24,36.16,60.43,35.75,60.19Z" style="fill:#fff"></path><polygon points="109.86 18.99 107.16 17.43 107.16 28.05 109.86 29.61 109.86 18.99" style="fill:#263238"></polygon><polygon points="109.86 18.99 107.16 17.43 107.16 28.05 109.86 29.61 109.86 18.99" style="opacity:0.1"></polygon><polygon points="121.26 32.13 118.38 43.92 129.18 49.43 134.25 32.03 121.26 32.13" style="fill:#455a64"></polygon><polygon points="115.54 46.19 125.88 53.02 126 53.85 109.84 57.55 107.63 46.5 115.54 46.19" style="fill:#e0e0e0"></polygon><polygon points="115.42 45.35 125.88 53.02 109.72 56.71 107.63 46.5 115.42 45.35" style="fill:#455a64"></polygon><path d="M101.94,24.72a12.93,12.93,0,0,0-5.86,10.15c0,1.85.65,3.15,1.7,3.76l6.92,4c1.06.61,2.51.52,4.12-.41a12.93,12.93,0,0,0,5.86-10.15c0-1.85-.65-3.15-1.7-3.76l-6.93-4C105,23.7,103.55,23.79,101.94,24.72Z" style="fill:#263238"></path><path d="M106.06,25.94a15.18,15.18,0,0,0-6.87,11.89c0,2.18.77,3.7,2,4.41l8.11,4.69c1.24.71,2.94.62,4.83-.47A15.19,15.19,0,0,0,121,34.56c0-2.18-.76-3.7-2-4.41l-8.11-4.68C109.65,24.75,108,24.85,106.06,25.94Z" style="fill:#455a64"></path><path d="M114.13,30.6a15.18,15.18,0,0,0-6.87,11.89c0,4.38,3.08,6.16,6.87,4A15.19,15.19,0,0,0,121,34.56C121,30.18,117.92,28.41,114.13,30.6Z" style="fill:#e0e0e0"></path><path d="M114.13,31.75a13,13,0,0,0-5.87,10.16c0,3.74,2.63,5.26,5.87,3.39A13,13,0,0,0,120,35.14C120,31.4,117.37,29.88,114.13,31.75Z" style="fill:#fff"></path><polygon points="106.97 33.7 112.17 35.05 106.88 53.35 106.12 53.18 104.89 43.5 106.97 33.7" style="fill:#e0e0e0"></polygon><polygon points="106.97 33.7 111.41 34.88 106.12 53.18 104.14 43.33 106.97 33.7" style="fill:#263238"></polygon><polygon points="112.02 30.75 116.97 31.84 133.09 30.38 132.98 29.62 119.72 29.61 111.91 29.98 112.02 30.75" style="fill:#e0e0e0"></polygon><polygon points="111.91 29.98 116.86 31.08 132.98 29.62 119.61 28.84 111.91 29.98" style="fill:#263238"></polygon><polygon points="99.04 37.8 96.34 36.23 96.34 23.67 107.16 17.43 109.86 18.99 99.04 25.23 99.04 37.8" style="fill:#263238"></polygon><path d="M97.69,37a3.07,3.07,0,0,1-1.35-2.44V23.67l10.82-6.25,2.7,1.57L99,25.23v10.9C99,37.05,98.44,37.45,97.69,37Z" style="opacity:0.05"></path><path d="M97.69,35.94a1.67,1.67,0,0,1-.75-1.3c0-.48.34-.67.75-.43a1.67,1.67,0,0,1,.75,1.3C98.44,36,98.1,36.18,97.69,35.94Z" style="fill:#fff"></path></g></g><g id="freepik--Shadows--inject-45"><ellipse id="freepik--Shadow--inject-45" cx="345.88" cy="411.71" rx="69.97" ry="40.4" style="fill:#e0e0e0"></ellipse><ellipse id="freepik--shadow--inject-45" cx="153.3" cy="412.75" rx="69.97" ry="40.4" style="fill:#e0e0e0"></ellipse><path id="freepik--shadow--inject-45" d="M472.53,379.21c10.65,6.15,10.65,16.13,0,22.28s-27.95,6.16-38.6,0-10.66-16.13,0-22.28S461.87,373.05,472.53,379.21Z" style="fill:#e0e0e0"></path><path id="freepik--shadow--inject-45" d="M27.47,379.21c-10.65,6.15-10.65,16.13,0,22.28s28,6.16,38.6,0,10.66-16.13,0-22.28S38.13,373.05,27.47,379.21Z" style="fill:#e0e0e0"></path></g><g id="freepik--Plants--inject-45"><g id="freepik--Plant--inject-45"><g id="freepik--Pot--inject-45"><path d="M468.82,392.67c8.56-8.83,13.58-29.63,5.24-36.63H431.6c-8.34,7-3.32,27.79,5.23,36.62l.24.24a4,4,0,0,0,.29.29c.24.24.5.47.77.7l.21.16c.21.17.41.33.64.49a11.6,11.6,0,0,0,1.11.72c7,4.11,18.44,4.11,25.48,0h0a11.05,11.05,0,0,0,1.11-.72c.22-.15.41-.31.61-.46l.25-.2c.26-.22.51-.44.74-.67s.23-.22.34-.34Z" style="fill:#f0f0f0"></path><path d="M435.29,353.22c-9.69,5.65-9.69,14.82,0,20.48s25.39,5.65,35.08,0,9.68-14.83,0-20.48S445,347.56,435.29,353.22Z" style="fill:#fafafa"></path><path d="M440,355.94c-7.11,4.15-7.11,10.89,0,15s18.65,4.15,25.76,0,7.11-10.89,0-15S447.06,351.79,440,355.94Z" style="fill:#e0e0e0"></path><path d="M465.71,363.08c-7.11-4.16-18.65-4.16-25.76,0a11.82,11.82,0,0,0-4.26,3.95,11.91,11.91,0,0,0,4.26,4c7.11,4.15,18.65,4.15,25.76,0a11.91,11.91,0,0,0,4.26-4A11.82,11.82,0,0,0,465.71,363.08Z" style="fill:#f0f0f0"></path></g><path d="M465,287.88a4.09,4.09,0,0,0,0-.63l.06-.65c.05-.44.12-.87.2-1.29a24.16,24.16,0,0,1,.63-2.54,1.73,1.73,0,0,1,.15-.49c.05-.17.11-.33.16-.49l.33-1,.5-1.43a11.54,11.54,0,0,0,.45-1.37,3.27,3.27,0,0,1,.13-.54.92.92,0,0,0,.09-.23c.05-.24.09-.47.14-.7.1-.47.21-.93.33-1.39.25-.91.54-1.82.87-2.71.26-.7.54-1.39.86-2.07a7.16,7.16,0,0,1,2.35-3.16,1,1,0,0,1,.93-.18c.32.17.38.59.41.95.14,2,.27,4.06.41,6.08a17.5,17.5,0,0,1,0,3.76,9,9,0,0,1-2.08,4.58,18.62,18.62,0,0,1-2.46,2.23c-.66.52-1.34,1-2,1.59A8.52,8.52,0,0,1,465,287.88Z" style="fill:#e0e0e0"></path><path d="M453,275.08c.05-.29.11-.58.18-.86a5.74,5.74,0,0,1,.75-1.76c.17-.27.26-.58.41-.85a3.27,3.27,0,0,1,.62-.76,1.28,1.28,0,0,1,.52-.29.56.56,0,0,1,.55.17,1,1,0,0,1,.14.48,16.85,16.85,0,0,0,.64,3.22,12.28,12.28,0,0,0,.55,1.54,3,3,0,0,0,.29.41,2.38,2.38,0,0,1,.18.3,9.21,9.21,0,0,0,.84,1.46,7.35,7.35,0,0,0,.81,1,18.42,18.42,0,0,1,2.84,2.81c1.08,1.69.9,3.86.94,5.78,0,.33,0,.66,0,1,0,2.63.43,4.9-.25,7.49,0,.19-.23.63-.52.46l-.29-.19a9.78,9.78,0,0,1-2.94-4.36c-.18-.43-.35-.87-.52-1.3a3.31,3.31,0,0,0-.61-.82,31,31,0,0,1-1.74-2.65,26.56,26.56,0,0,1-2.8-5.65,14.9,14.9,0,0,1-.77-4.53A11.74,11.74,0,0,1,453,275.08Z" style="fill:#e0e0e0"></path><path d="M471.23,295.81c-.5,0-1,.05-1.51.05-1,0-2,0-3.06,0h-1.54a4.52,4.52,0,0,0-.52,0,4.59,4.59,0,0,1-.74,0,.26.26,0,0,1-.15,0,.28.28,0,0,1-.07-.22,4.5,4.5,0,0,1,.49-2,4.25,4.25,0,0,1,.58-.87,8.2,8.2,0,0,1,2.64-2.08,15,15,0,0,1,3.09-.91l8.35-1.78c.38-.08.85-.14,1.11.15a1,1,0,0,1,.21.61,6.19,6.19,0,0,1-2.84,5.38A11.83,11.83,0,0,1,471.23,295.81Z" style="fill:#e0e0e0"></path><path d="M462.06,306.07a5.1,5.1,0,0,1,1-1.23,6.31,6.31,0,0,1,1.95-1.31,22.32,22.32,0,0,1,3.77-1.1,44.92,44.92,0,0,0,8.55-3.06,1.21,1.21,0,0,1,.58-.16c.49.05.68.66.71,1.14a7.11,7.11,0,0,1-3.74,6.54c-2.31,1.19-5,1-7.64.92h-.11a21.81,21.81,0,0,0-2.8.05,13.19,13.19,0,0,0-1.38.22c-.37.09-1.07.5-1.32,0a1.07,1.07,0,0,1,0-.59,4.81,4.81,0,0,1,.46-1.37Z" style="fill:#e0e0e0"></path><path d="M459.23,306.8a2.19,2.19,0,0,0,.39.29.82.82,0,0,0,.34.09.46.46,0,0,0,.42-.22c.06-.08.1-.16.15-.24a3.54,3.54,0,0,0,.23-.53,6.43,6.43,0,0,0,.28-1.13c0-.09,0-.18,0-.27.05-.44.09-.87.13-1.3,0-.22.05-.44.08-.65a1.31,1.31,0,0,0,0-.48,4.28,4.28,0,0,1,0-.8,6.3,6.3,0,0,0,0-1c-.24-2.87-2.34-5.18-4.06-7.49a35.88,35.88,0,0,1-4-6.74c-.24-.53-.62-1.16-1.19-1.07s-.7.56-.84,1a15.22,15.22,0,0,0,.23,9.57,21.65,21.65,0,0,0,2.63,5.16,28.22,28.22,0,0,0,1.78,2.3c.19.22.35.44.55.65.6.64,1.21,1.27,1.82,1.9l.77.76Z" style="fill:#e0e0e0"></path><path d="M464.52,314.75a23.55,23.55,0,0,1,5.92-1.17,13.79,13.79,0,0,0,5.75-1.72,1,1,0,0,1,.59-.24c.41,0,.63.5.68.92a5.67,5.67,0,0,1-.95,3.53,10.61,10.61,0,0,1-10.58,4.83h0c-1.31-.22-2.57-.69-3.89-.82a5.25,5.25,0,0,0-1,0c-.21,0-.54.14-.71,0-.35-.37.07-.89.16-1.26a4.33,4.33,0,0,1,.57-1.28,6.66,6.66,0,0,1,2-2A8.6,8.6,0,0,1,464.52,314.75Z" style="fill:#e0e0e0"></path><path d="M464.39,326.55c2-.5,4.08-.6,6-1.29.86-.31,1.68-.73,2.54-1.08.24-.1.54-.18.72,0a.6.6,0,0,1,.13.43,6.75,6.75,0,0,1-3,5.53,11.27,11.27,0,0,1-6.24,1.76c-1.31,0-2.62-.11-3.93,0a2.85,2.85,0,0,0-.92.14c-.15.07-.25.23-.4.29-.59.2-.66-.64-.6-1a5,5,0,0,1,.78-1.91,4.19,4.19,0,0,1,.67-.79,1.52,1.52,0,0,1,.33-.18c.56-.27,1-.74,1.59-1A10,10,0,0,1,464.39,326.55Z" style="fill:#e0e0e0"></path><path d="M462.75,319.25a8,8,0,0,0-1.52.76,16.94,16.94,0,0,0-1.38,1.16c-.23,3.29-.38,6.58-.52,9.87a6.41,6.41,0,0,1,.71-.62,6.09,6.09,0,0,1,2.16-1c1.92-.5,3.95-.22,5.83-.85.09,0,.13.17.05.21-1.72.7-3.56.75-5.35,1.18a7.73,7.73,0,0,0-2.06.8,4.46,4.46,0,0,0-.85.65,5,5,0,0,0-.53.71c-.23,5.34-.46,10.67-1,16-.34,3-.8,6.07-1.44,9.06-.31,1.48-.69,2.95-1.13,4.4-.26.86-.53,1.72-.84,2.56a12.26,12.26,0,0,1-.82,1.76h-1a9.9,9.9,0,0,1,.27-1.2c.21-.72.43-1.44.64-2.17.39-1.32.73-2.65,1-4q.92-4.11,1.46-8.29c.71-5.6,1-11.24,1.2-16.88s.49-11.32,1.08-17c.36-3.41.86-6.8,1.46-10.18A18,18,0,0,0,458,301.4a41.45,41.45,0,0,1-3.32-6.06c0-.08.06-.24.12-.11,1.08,2.08,2.78,3.78,4.1,5.71a14.24,14.24,0,0,1,1.64,3.26c.32-1.67.66-3.34,1-5q.38-1.56.78-3.12c-.09-.58-.18-1.15-.23-1.73a19.35,19.35,0,0,0-.31-2.14,21.47,21.47,0,0,0-1.31-4.07c-1.09-2.59-3-4.81-3.8-7.49,0-.13.12-.33.2-.14a16.38,16.38,0,0,0,2.42,3.95,18.14,18.14,0,0,1,2.34,3.81,17.64,17.64,0,0,1,1.21,4.15c.07.38.13.77.17,1.15A99.23,99.23,0,0,1,468,280.06c.07-.15.19.07.16.16-1.47,4.84-2.85,9.72-4.06,14.63l.27-.18a9.21,9.21,0,0,1,2.13-1c1.9-.66,3.87-1.11,5.79-1.7.11,0,.16.26.06.3-1.79.61-3.56,1.27-5.33,1.93a14,14,0,0,0-2.07.89,5.38,5.38,0,0,0-.94.64c-.06,0-.11.11-.16.16-.92,3.82-1.73,7.67-2.39,11.55a8.56,8.56,0,0,1,4.83-2.64c1.32-.26,2.66-.32,4-.5a12.05,12.05,0,0,0,3.71-1.16c.07,0,.1.13.06.17-1.82,1.66-4.77,1.72-7.07,2.11a9.57,9.57,0,0,0-3.57,1.21,7.61,7.61,0,0,0-2.17,2.21c-.31,2-.6,3.89-.83,5.85s-.37,3.62-.5,5.43a6.21,6.21,0,0,1,2-1.42,13.49,13.49,0,0,1,3.53-1c2.45-.39,5.06-.48,7.16-2,0,0,.06,0,0,.06-1.75,1.69-4.21,2.14-6.51,2.59A20.1,20.1,0,0,0,462.75,319.25Z" style="fill:#e0e0e0"></path><path d="M462.75,319.25a8,8,0,0,0-1.52.76,16.94,16.94,0,0,0-1.38,1.16c-.23,3.29-.38,6.58-.52,9.87a6.41,6.41,0,0,1,.71-.62,6.09,6.09,0,0,1,2.16-1c1.92-.5,3.95-.22,5.83-.85.09,0,.13.17.05.21-1.72.7-3.56.75-5.35,1.18a7.73,7.73,0,0,0-2.06.8,4.46,4.46,0,0,0-.85.65,5,5,0,0,0-.53.71c-.23,5.34-.46,10.67-1,16-.34,3-.8,6.07-1.44,9.06-.31,1.48-.69,2.95-1.13,4.4-.26.86-.53,1.72-.84,2.56a12.26,12.26,0,0,1-.82,1.76h-1a9.9,9.9,0,0,1,.27-1.2c.21-.72.43-1.44.64-2.17.39-1.32.73-2.65,1-4q.92-4.11,1.46-8.29c.71-5.6,1-11.24,1.2-16.88s.49-11.32,1.08-17c.36-3.41.86-6.8,1.46-10.18A18,18,0,0,0,458,301.4a41.45,41.45,0,0,1-3.32-6.06c0-.08.06-.24.12-.11,1.08,2.08,2.78,3.78,4.1,5.71a14.24,14.24,0,0,1,1.64,3.26c.32-1.67.66-3.34,1-5q.38-1.56.78-3.12c-.09-.58-.18-1.15-.23-1.73a19.35,19.35,0,0,0-.31-2.14,21.47,21.47,0,0,0-1.31-4.07c-1.09-2.59-3-4.81-3.8-7.49,0-.13.12-.33.2-.14a16.38,16.38,0,0,0,2.42,3.95,18.14,18.14,0,0,1,2.34,3.81,17.64,17.64,0,0,1,1.21,4.15c.07.38.13.77.17,1.15A99.23,99.23,0,0,1,468,280.06c.07-.15.19.07.16.16-1.47,4.84-2.85,9.72-4.06,14.63l.27-.18a9.21,9.21,0,0,1,2.13-1c1.9-.66,3.87-1.11,5.79-1.7.11,0,.16.26.06.3-1.79.61-3.56,1.27-5.33,1.93a14,14,0,0,0-2.07.89,5.38,5.38,0,0,0-.94.64c-.06,0-.11.11-.16.16-.92,3.82-1.73,7.67-2.39,11.55a8.56,8.56,0,0,1,4.83-2.64c1.32-.26,2.66-.32,4-.5a12.05,12.05,0,0,0,3.71-1.16c.07,0,.1.13.06.17-1.82,1.66-4.77,1.72-7.07,2.11a9.57,9.57,0,0,0-3.57,1.21,7.61,7.61,0,0,0-2.17,2.21c-.31,2-.6,3.89-.83,5.85s-.37,3.62-.5,5.43a6.21,6.21,0,0,1,2-1.42,13.49,13.49,0,0,1,3.53-1c2.45-.39,5.06-.48,7.16-2,0,0,.06,0,0,.06-1.75,1.69-4.21,2.14-6.51,2.59A20.1,20.1,0,0,0,462.75,319.25Z" style="opacity:0.15"></path><path d="M472.4,335.59a21,21,0,0,1,3-1.4l6.72-2.77a1,1,0,0,1,1-.05.9.9,0,0,1,.31.7,7,7,0,0,1-.39,2.86,11.37,11.37,0,0,1-8.67,7.8c-1.69.26-3.44.07-5.11.46-.66.16-1.75.37-1.76-.64a1.58,1.58,0,0,1,.27-.72,9.21,9.21,0,0,0,.38-1,10.69,10.69,0,0,1,2.37-3.66A10.33,10.33,0,0,1,472.4,335.59Z" style="fill:#e0e0e0"></path><path d="M469,347a17,17,0,0,1,4.22-1.05l3.87-.61c.5-.07,1-.14,1.49-.23a.72.72,0,0,0,.21-.05,1.17,1.17,0,0,1,.63-.15c.29.05.34.24.36.5a4.32,4.32,0,0,1-.14,1.52,5.57,5.57,0,0,1-1.64,2.65,9.63,9.63,0,0,1-4.66,2.13,17.76,17.76,0,0,1-4.18.34,3.1,3.1,0,0,1-2.92-1.43c-.5-1,.38-1.93,1.08-2.55A6.85,6.85,0,0,1,469,347Z" style="fill:#e0e0e0"></path><path d="M464.56,338.81a1.59,1.59,0,0,0-.08-.81,1,1,0,0,0-1-.47,1.77,1.77,0,0,0-1,.5c-1.19,1.07-1.49,2.79-1.64,4.38a14.8,14.8,0,0,0,.17,4.88c.29,1.17.82,2.68,2.16,2.95a2.26,2.26,0,0,0,2.4-1.14c.76-1.36.1-3.15-.24-4.53a21.28,21.28,0,0,1-.81-5.14C464.55,339.23,464.55,339,464.56,338.81Z" style="fill:#e0e0e0"></path><path d="M467.39,356a18.39,18.39,0,0,1,5.11-1.13l1.93-.24a.94.94,0,0,1,.41,0c.42.13.46.72.32,1.15-.58,1.82-2.58,2.8-4.46,3.17s-3.87.32-5.64,1.06c-.41.17-1.06.46-1.33-.07s.17-.74.35-1.08a5.87,5.87,0,0,1,1.9-2.09A7.45,7.45,0,0,1,467.39,356Z" style="fill:#e0e0e0"></path><path d="M463.54,353.71c-.6-1.49-1.9-2.71-2.17-4.3a.81.81,0,0,0-.84.37,2.4,2.4,0,0,0-.35.91,18.21,18.21,0,0,0-.58,3.73,6,6,0,0,0,1,3.59,2.13,2.13,0,0,0,1.55,1,1.79,1.79,0,0,0,1.46-.58c.57-.64.4-1.56.36-2.35A7.07,7.07,0,0,0,463.54,353.71Z" style="fill:#e0e0e0"></path><path d="M467.73,350.5c-.53.11-1,.28-1.55.43-.46,2.45-.95,4.89-1.44,7.33l-.15.81a4.33,4.33,0,0,1,.41-.3,5.32,5.32,0,0,1,1.19-.6,2.6,2.6,0,0,1,.67-.15l.62,0c.15,0,.16.31,0,.34a7.9,7.9,0,0,0-1.22.4,6.94,6.94,0,0,0-1,.54,5.35,5.35,0,0,0-.8.62c-.35,1.83-.69,3.66-1.14,5.47a18.76,18.76,0,0,1-1.13,3.34c-.16.34-.33.67-.52,1h-1.2a21,21,0,0,0,1.49-4.2c.47-1.84.82-3.72,1.17-5.6a5.93,5.93,0,0,0-.3-1.19,11,11,0,0,0-.54-1.27c-.1-.21-.21-.41-.32-.62a2.73,2.73,0,0,1-.25-.94s0-.1.06-.09c.52.18.78.71,1.06,1.15a8.12,8.12,0,0,1,.62,1.21q.63-3.19,1.27-6.39h0c-.07-.35-.14-.7-.24-1-.22-.68-.56-1.3-.83-2a9.14,9.14,0,0,1-.66-2.16,6,6,0,0,1-.15-2.1c0-.19.19,0,.17.12-.12.78.52,1.5.85,2.15s.64,1.18.94,1.78c.14.28.27.56.4.85a20.61,20.61,0,0,1,1.69-5.88,9.75,9.75,0,0,1,2.22-2.8,10.32,10.32,0,0,1,1.75-1.18,14.27,14.27,0,0,1,2.11-.84c.07,0,.11.14.06.18-.54.35-1,.76-1.57,1.1a16.4,16.4,0,0,0-1.67,1.2,6.45,6.45,0,0,0-1.87,2.6,32.62,32.62,0,0,0-1.54,6.25,15.72,15.72,0,0,1,3-.52,9.47,9.47,0,0,0,3.17-.91c.13-.07.19.23.1.3a7.47,7.47,0,0,1-3.22,1.27C468.88,350.25,468.3,350.37,467.73,350.5Z" style="fill:#e0e0e0"></path><path d="M467.73,350.5c-.53.11-1,.28-1.55.43-.46,2.45-.95,4.89-1.44,7.33l-.15.81a4.33,4.33,0,0,1,.41-.3,5.32,5.32,0,0,1,1.19-.6,2.6,2.6,0,0,1,.67-.15l.62,0c.15,0,.16.31,0,.34a7.9,7.9,0,0,0-1.22.4,6.94,6.94,0,0,0-1,.54,5.35,5.35,0,0,0-.8.62c-.35,1.83-.69,3.66-1.14,5.47a18.76,18.76,0,0,1-1.13,3.34c-.16.34-.33.67-.52,1h-1.2a21,21,0,0,0,1.49-4.2c.47-1.84.82-3.72,1.17-5.6a5.93,5.93,0,0,0-.3-1.19,11,11,0,0,0-.54-1.27c-.1-.21-.21-.41-.32-.62a2.73,2.73,0,0,1-.25-.94s0-.1.06-.09c.52.18.78.71,1.06,1.15a8.12,8.12,0,0,1,.62,1.21q.63-3.19,1.27-6.39h0c-.07-.35-.14-.7-.24-1-.22-.68-.56-1.3-.83-2a9.14,9.14,0,0,1-.66-2.16,6,6,0,0,1-.15-2.1c0-.19.19,0,.17.12-.12.78.52,1.5.85,2.15s.64,1.18.94,1.78c.14.28.27.56.4.85a20.61,20.61,0,0,1,1.69-5.88,9.75,9.75,0,0,1,2.22-2.8,10.32,10.32,0,0,1,1.75-1.18,14.27,14.27,0,0,1,2.11-.84c.07,0,.11.14.06.18-.54.35-1,.76-1.57,1.1a16.4,16.4,0,0,0-1.67,1.2,6.45,6.45,0,0,0-1.87,2.6,32.62,32.62,0,0,0-1.54,6.25,15.72,15.72,0,0,1,3-.52,9.47,9.47,0,0,0,3.17-.91c.13-.07.19.23.1.3a7.47,7.47,0,0,1-3.22,1.27C468.88,350.25,468.3,350.37,467.73,350.5Z" style="opacity:0.15"></path><path d="M430,279.33c-1.57-3.3-4.42-5.94-5.57-9.41a1.07,1.07,0,0,0-.26-.48.68.68,0,0,0-.87.1,1.83,1.83,0,0,0-.42.86,14.54,14.54,0,0,0-.33,7.92,27.75,27.75,0,0,0,1.41,3.45,64.48,64.48,0,0,0,2.68,6,11.71,11.71,0,0,0,2.24,2.86c.66.61,1.82,1.65,2.53.53a3.09,3.09,0,0,0,.28-1.65c0-.67,0-1.34,0-2a27.77,27.77,0,0,0-.37-4,16.91,16.91,0,0,0-1.1-3.76Z" style="fill:#e0e0e0"></path><path d="M435.33,291.8a17.12,17.12,0,0,1,2.17-5l3.54-6.2c.09-.16.22-.34.4-.35s.35.17.45.34a10.74,10.74,0,0,1,.49,9.25,25,25,0,0,1-5.33,7.9,1,1,0,0,1-1.07.4,1.44,1.44,0,0,1-.7-1.1,1.47,1.47,0,0,1,.05-.42,5.35,5.35,0,0,0-.08-1.2c0-.49-.08-1-.09-1.47A10.19,10.19,0,0,1,435.33,291.8Z" style="fill:#e0e0e0"></path><path d="M421.4,289.61,418,287.92a.49.49,0,0,0-.3-.08c-.17,0-.25.23-.28.4a5.26,5.26,0,0,0,.6,3.57,11.58,11.58,0,0,0,2.3,2.87,29.24,29.24,0,0,0,2.89,2.45,27.85,27.85,0,0,0,3.23,2,25,25,0,0,0,3.48,1.53,22.4,22.4,0,0,0,3.67.92c.66.1,1.54.22,1.67-.65a3.74,3.74,0,0,0-.68-2.27,9.91,9.91,0,0,0-2.13-2.39,30.58,30.58,0,0,0-3.17-2.39c-1.11-.73-2.26-1.4-3.42-2s-2.37-1.24-3.56-1.83Z" style="fill:#e0e0e0"></path><path d="M441.79,302.55a22.83,22.83,0,0,1,1.16-2.86,49.94,49.94,0,0,0,2.49-6.91c.38,0,.69.28.93.59a11.75,11.75,0,0,1,2.5,6.5,8.64,8.64,0,0,1-2.35,6.45c-1.21,1.22-2.85,2.05-3.71,3.54-.16.28-.32.6-.63.7a.44.44,0,0,1-.49-.23c-.09-.17.05-.35,0-.54-.06-.6-.16-1.19-.21-1.78a18,18,0,0,1-.07-3.52A10.67,10.67,0,0,1,441.79,302.55Z" style="fill:#e0e0e0"></path><path d="M437.9,307.28c-1.77-1.46-4.15-1.88-6.42-2.16s-4.64-.51-6.61-1.68a1.58,1.58,0,0,0-.71-.29c-.67,0-1,.88-.83,1.53a6,6,0,0,0,1.28,2.52,11.63,11.63,0,0,0,1.89,2.07c2.52,2.07,6,2.25,9.3,2.33l2.34.06,1.18,0a8.68,8.68,0,0,0,1.14,0c.59-.06.12-.77,0-1-.32-.57-.64-1.15-1-1.7A8.09,8.09,0,0,0,437.9,307.28Z" style="fill:#e0e0e0"></path><path d="M446.71,315.81a14.25,14.25,0,0,1,1.41-2.78q1.41-2.36,2.83-4.69c.29-.5.68-1,1.26-1.07,1.34,3.62,2.08,7.79.35,11.24a17.19,17.19,0,0,1-2.19,3.12L448,324.56c-.32.39-.94.82-1.48.53-.25-.13-.29-.45-.34-.7a6.79,6.79,0,0,1-.14-1.2,3.32,3.32,0,0,1,0-.89,13.18,13.18,0,0,0,.2-2.59A12,12,0,0,1,446.71,315.81Z" style="fill:#e0e0e0"></path><path d="M438.25,317.47a10.14,10.14,0,0,0-2.54-1c-1-.22-2.09-.23-3.14-.36-1.72-.21-3.38-.74-5.1-1a.84.84,0,0,0-.52,0,.82.82,0,0,0-.34.69,5.87,5.87,0,0,0,.89,3.32,12,12,0,0,0,8,5.84,29.79,29.79,0,0,0,4.62.38c.77,0,1.54.09,2.31.2.38.06.76.13,1.14.22a1,1,0,0,0,.71,0c.37-.16.39-.69.36-1a4.2,4.2,0,0,0-.57-1.56,14,14,0,0,0-2.3-3.16,13.69,13.69,0,0,0-3.06-2.4Z" style="fill:#e0e0e0"></path><path d="M454.6,326.27a30.71,30.71,0,0,1,.47,4.78,15.62,15.62,0,0,1-.85,6,21.21,21.21,0,0,1-3.6,5.53.66.66,0,0,1-.31.24c-.28.07-.49-.24-.6-.51a14,14,0,0,1-.78-7.52,14.72,14.72,0,0,1,1.15-3.72c.25-.54.63-1,.84-1.59.05-.13.07-.27.12-.4a8.88,8.88,0,0,1,.66-1.16,15.88,15.88,0,0,0,1.14-2.61,1.5,1.5,0,0,1,.49-.81.54.54,0,0,1,.56,0c.2.12.17.3.25.48a5.31,5.31,0,0,1,.3.64A5.73,5.73,0,0,1,454.6,326.27Z" style="fill:#e0e0e0"></path><path d="M445.82,332.27a8.67,8.67,0,0,0-2.47-2.81,10.61,10.61,0,0,0-2.68-1.14l-7-2.26a8.62,8.62,0,0,0,2.53,7.1,25,25,0,0,0,6,4.39c1.54.89,3.12,1.57,4,2.15.39.26.77.53,1.14.82s.82.68,1.13.35c.14-.16.05-.44,0-.63s-.11-.53-.18-.8-.19-.67-.28-1-.19-.66-.26-1l-.09-.49a15.15,15.15,0,0,0-.7-2.41A15.48,15.48,0,0,0,445.82,332.27Z" style="fill:#e0e0e0"></path><path d="M427.52,296.7a59,59,0,0,1,6.14,3c.38.21.81.43,1.22.68l-.1-.17a61.87,61.87,0,0,1-4.83-9.54q-1-2.54-1.66-5.16a52.89,52.89,0,0,1-1-5.45c0-.21.2-.37.27-.1.38,1.66,1,3.27,1.51,4.89s1.1,3.15,1.75,4.68a71,71,0,0,0,4.4,8.65c.22.38.44.74.67,1.11,0-.26,0-.5,0-.72a15.6,15.6,0,0,1,.28-3.05,19.36,19.36,0,0,1,.75-2.78,6.28,6.28,0,0,1,1.31-2.57c.1-.09.18.08.16.17a18.88,18.88,0,0,1-.92,2.54,15.87,15.87,0,0,0-.62,2.73,18.56,18.56,0,0,0-.14,2.79,20.28,20.28,0,0,1,.13,2.46c1.19,2,2.38,4,3.46,6,.48.93.94,1.88,1.39,2.82l0-.12a17.63,17.63,0,0,1,1.15-3.14,28.19,28.19,0,0,0,2.67-7.19c0-.13.15,0,.14.06a20.11,20.11,0,0,1-1.59,6.42c-.41,1.12-.78,2.24-1.09,3.38a12.13,12.13,0,0,0-.32,1.7c0,.29-.06.57-.1.84l.14.35a2.9,2.9,0,0,1,.44,1c.3.72.6,1.45.89,2.19,1,2.66,1.93,5.38,2.72,8.12a17.81,17.81,0,0,1,2.16-5.89,10,10,0,0,1,1.94-2.72c.1-.08.14.17.11.22-.41.94-1,1.77-1.45,2.72a27.53,27.53,0,0,0-1.05,2.79,40.77,40.77,0,0,0-1.13,5,107.26,107.26,0,0,1,2.29,11.25,45.92,45.92,0,0,1,2.07-4.23c.09-.19.24.1.19.22a28.47,28.47,0,0,0-1.72,5.32c-.08.37-.14.74-.2,1.11.52,4,.84,8.11,1,12.17,0,.61-.07,4.32-.14,6.61a37.85,37.85,0,0,1-.53,5.7,17.44,17.44,0,0,1-.78,2.75h-1.08c.05-.42.1-.85.19-1.26a51,51,0,0,0,.91-9.52c0-1,0-2.05,0-3.08-.07-3.17-.26-6.34-.57-9.49a11.46,11.46,0,0,0-1.27-2.49c-1.46-2.1-3.69-3.47-5.2-5.51-.08-.11-.05-.56.17-.43a24.52,24.52,0,0,1,3.42,2.58,13,13,0,0,1,2.51,2.58c-.23-1.84-.5-3.69-.82-5.52-.36-2-.79-4.06-1.27-6.08a9.29,9.29,0,0,1-.75-.91c-.34-.43-.66-.88-1-1.29a10.52,10.52,0,0,0-2.4-2,10.1,10.1,0,0,0-2.58-1.14,11.69,11.69,0,0,0-1.3-.31,4.61,4.61,0,0,1-1.38-.31c-.06,0-.09-.19,0-.23a5.28,5.28,0,0,1,3.31,0,10.93,10.93,0,0,1,3.07,1.24,10.72,10.72,0,0,1,2.3,1.95c-.77-2.83-1.66-5.64-2.69-8.39-.61-1.64-1.28-3.25-2-4.84a8,8,0,0,0-1.83-1.05,25,25,0,0,0-2.78-.9,15.23,15.23,0,0,1-2.59-1c-.11,0-.13-.34,0-.3,1.07.29,2.23.38,3.32.59a14.47,14.47,0,0,1,3,.83c-1.06-2.24-2.22-4.44-3.44-6.6a11.13,11.13,0,0,0-1.33-1.58,16.79,16.79,0,0,0-2.54-1.53,60.14,60.14,0,0,1-5.33-3.25C427.32,297,427.35,296.64,427.52,296.7Z" style="fill:#e0e0e0"></path><path d="M427.52,296.7a59,59,0,0,1,6.14,3c.38.21.81.43,1.22.68l-.1-.17a61.87,61.87,0,0,1-4.83-9.54q-1-2.54-1.66-5.16a52.89,52.89,0,0,1-1-5.45c0-.21.2-.37.27-.1.38,1.66,1,3.27,1.51,4.89s1.1,3.15,1.75,4.68a71,71,0,0,0,4.4,8.65c.22.38.44.74.67,1.11,0-.26,0-.5,0-.72a15.6,15.6,0,0,1,.28-3.05,19.36,19.36,0,0,1,.75-2.78,6.28,6.28,0,0,1,1.31-2.57c.1-.09.18.08.16.17a18.88,18.88,0,0,1-.92,2.54,15.87,15.87,0,0,0-.62,2.73,18.56,18.56,0,0,0-.14,2.79,20.28,20.28,0,0,1,.13,2.46c1.19,2,2.38,4,3.46,6,.48.93.94,1.88,1.39,2.82l0-.12a17.63,17.63,0,0,1,1.15-3.14,28.19,28.19,0,0,0,2.67-7.19c0-.13.15,0,.14.06a20.11,20.11,0,0,1-1.59,6.42c-.41,1.12-.78,2.24-1.09,3.38a12.13,12.13,0,0,0-.32,1.7c0,.29-.06.57-.1.84l.14.35a2.9,2.9,0,0,1,.44,1c.3.72.6,1.45.89,2.19,1,2.66,1.93,5.38,2.72,8.12a17.81,17.81,0,0,1,2.16-5.89,10,10,0,0,1,1.94-2.72c.1-.08.14.17.11.22-.41.94-1,1.77-1.45,2.72a27.53,27.53,0,0,0-1.05,2.79,40.77,40.77,0,0,0-1.13,5,107.26,107.26,0,0,1,2.29,11.25,45.92,45.92,0,0,1,2.07-4.23c.09-.19.24.1.19.22a28.47,28.47,0,0,0-1.72,5.32c-.08.37-.14.74-.2,1.11.52,4,.84,8.11,1,12.17,0,.61-.07,4.32-.14,6.61a37.85,37.85,0,0,1-.53,5.7,17.44,17.44,0,0,1-.78,2.75h-1.08c.05-.42.1-.85.19-1.26a51,51,0,0,0,.91-9.52c0-1,0-2.05,0-3.08-.07-3.17-.26-6.34-.57-9.49a11.46,11.46,0,0,0-1.27-2.49c-1.46-2.1-3.69-3.47-5.2-5.51-.08-.11-.05-.56.17-.43a24.52,24.52,0,0,1,3.42,2.58,13,13,0,0,1,2.51,2.58c-.23-1.84-.5-3.69-.82-5.52-.36-2-.79-4.06-1.27-6.08a9.29,9.29,0,0,1-.75-.91c-.34-.43-.66-.88-1-1.29a10.52,10.52,0,0,0-2.4-2,10.1,10.1,0,0,0-2.58-1.14,11.69,11.69,0,0,0-1.3-.31,4.61,4.61,0,0,1-1.38-.31c-.06,0-.09-.19,0-.23a5.28,5.28,0,0,1,3.31,0,10.93,10.93,0,0,1,3.07,1.24,10.72,10.72,0,0,1,2.3,1.95c-.77-2.83-1.66-5.64-2.69-8.39-.61-1.64-1.28-3.25-2-4.84a8,8,0,0,0-1.83-1.05,25,25,0,0,0-2.78-.9,15.23,15.23,0,0,1-2.59-1c-.11,0-.13-.34,0-.3,1.07.29,2.23.38,3.32.59a14.47,14.47,0,0,1,3,.83c-1.06-2.24-2.22-4.44-3.44-6.6a11.13,11.13,0,0,0-1.33-1.58,16.79,16.79,0,0,0-2.54-1.53,60.14,60.14,0,0,1-5.33-3.25C427.32,297,427.35,296.64,427.52,296.7Z" style="opacity:0.15"></path><path d="M442.94,359.15a13.32,13.32,0,0,1,.48-3.2,7.06,7.06,0,0,1,2.15-3.84,2.79,2.79,0,0,1,2.16-.61c-.23,1.53-.45,3.05-.67,4.57,0,.16-.05.32-.07.48a8.14,8.14,0,0,1-1.06,3.33,4.85,4.85,0,0,1-.59.61,7.73,7.73,0,0,1-1.34,1.08l-.23.13a.76.76,0,0,1-.36.11c-.43,0-.37-.68-.4-1a13,13,0,0,1-.07-1.52Z" style="fill:#e0e0e0"></path><path d="M435.67,353.41a12.8,12.8,0,0,1-2.44-1.39c-.16-.13-.38-.26-.56-.15a.47.47,0,0,0-.18.29,3.82,3.82,0,0,0,1,3.2,12.3,12.3,0,0,0,2.94,2.82,8.75,8.75,0,0,0,3.71,1.47c.78.1,2.52.25,2.18-1a4.39,4.39,0,0,0-.76-1.39,14.5,14.5,0,0,0-1.23-1.47,11.84,11.84,0,0,0-4.14-2.14C436,353.56,435.83,353.48,435.67,353.41Z" style="fill:#e0e0e0"></path><path d="M435.46,345.05a13.21,13.21,0,0,0-8.51.3,3.64,3.64,0,0,0-1.82,1.13,1.45,1.45,0,0,0,.1,2,2.07,2.07,0,0,0,.84.34L439.28,352a2.93,2.93,0,0,0,1.06.11c.18,0,.33-.11.49-.14s.28.06.37-.1a.63.63,0,0,0,.06-.33,4.36,4.36,0,0,0-.07-.81,1.63,1.63,0,0,0-.13-.37c-.15-.28-.27-.59-.41-.88a8.61,8.61,0,0,0-2.93-3.32A10,10,0,0,0,435.46,345.05Z" style="fill:#e0e0e0"></path><path d="M433.1,337.15c-2.26-1.19-4.92-1.3-7.47-1.39a.59.59,0,0,0-.42.1.53.53,0,0,0-.12.29,3.93,3.93,0,0,0,1.22,3.08,10,10,0,0,0,3.26,2.4,19.21,19.21,0,0,0,3.73,1.16l3.42.83c.23.05.74.33,1,.16s0-.86-.05-1.08a7.42,7.42,0,0,0-.65-1.29,10.33,10.33,0,0,0-1.44-2.32A8.5,8.5,0,0,0,433.1,337.15Z" style="fill:#e0e0e0"></path><path d="M445.48,344.45a.28.28,0,0,1,.23-.06.24.24,0,0,1,.09.16,2.64,2.64,0,0,1,.11.56c0,.05,0,.1,0,.15a1.82,1.82,0,0,0,.1.45,4.52,4.52,0,0,1,.09,1,5.1,5.1,0,0,1-.14,1.1,7.77,7.77,0,0,1-1.07,2.43,3.17,3.17,0,0,1-.37.51c-.15.18-.33.33-.5.5a7,7,0,0,0-.93,1.24c-.08.13-.19.27-.33.24s-.15-.09-.21-.16a1.6,1.6,0,0,1-.32-.53c0-.21-.1-.41-.12-.62,0,0,0-.07,0-.1a7.78,7.78,0,0,1,.39-3.21,8.2,8.2,0,0,1,.69-1.47A7.93,7.93,0,0,1,445.48,344.45Z" style="fill:#e0e0e0"></path><path d="M432,347.85a6.31,6.31,0,0,1,3.31.07,16.19,16.19,0,0,1,3.48,1,8.53,8.53,0,0,1,1.94,1.18,21.07,21.07,0,0,0-3.05-4.82,23.75,23.75,0,0,0-4.88-4.62c-.07-.05-.08-.3,0-.25a17.7,17.7,0,0,1,5,3.21,18.46,18.46,0,0,1,3.67,4.88,19.81,19.81,0,0,1,1.14,2.58c.05-.17.11-.35.17-.52a8.93,8.93,0,0,1,.71-1.54,4.27,4.27,0,0,1,.49-.71c.11-.15.26-.4.47-.37,0,0,.06.07.06.1a2.15,2.15,0,0,1-.31.77c-.11.21-.23.42-.33.63a10.83,10.83,0,0,0-.53,1.33c-.15.48-.24,1-.35,1.45a18.34,18.34,0,0,1,.47,1.91,25.27,25.27,0,0,1,.41,3.77c.11-.27.21-.54.34-.8a10.11,10.11,0,0,1,1.29-2c.09-.12.19.16.12.25a10.59,10.59,0,0,0-1.57,4.21c-.05.26-.1.52-.14.78,0,.43,0,.85,0,1.28,0,1.55,0,3.1,0,4.65,0,1.09.12,2.18.2,3.27h-1a21.79,21.79,0,0,1-.51-5.56c0-1.44,0-2.88,0-4.32l-.06-.05a3.57,3.57,0,0,0-.77-.35,10.34,10.34,0,0,1-1.63-.72,10.67,10.67,0,0,1-2.78-2.13c-.05-.06,0-.26.07-.16a6.43,6.43,0,0,0,3.07,1.67c.61.16,1.2.34,1.8.51l.27.1c0-.67-.05-1.34-.12-2a19.79,19.79,0,0,0-.63-3.45c-.47-.49-.83-1.13-1.31-1.62a9,9,0,0,0-2.24-1.57,14.8,14.8,0,0,0-2.87-1.07l-1.55-.42a4.53,4.53,0,0,0-1.77-.34C431.94,348.09,431.91,347.89,432,347.85Z" style="fill:#e0e0e0"></path><path d="M432,347.85a6.31,6.31,0,0,1,3.31.07,16.19,16.19,0,0,1,3.48,1,8.53,8.53,0,0,1,1.94,1.18,21.07,21.07,0,0,0-3.05-4.82,23.75,23.75,0,0,0-4.88-4.62c-.07-.05-.08-.3,0-.25a17.7,17.7,0,0,1,5,3.21,18.46,18.46,0,0,1,3.67,4.88,19.81,19.81,0,0,1,1.14,2.58c.05-.17.11-.35.17-.52a8.93,8.93,0,0,1,.71-1.54,4.27,4.27,0,0,1,.49-.71c.11-.15.26-.4.47-.37,0,0,.06.07.06.1a2.15,2.15,0,0,1-.31.77c-.11.21-.23.42-.33.63a10.83,10.83,0,0,0-.53,1.33c-.15.48-.24,1-.35,1.45a18.34,18.34,0,0,1,.47,1.91,25.27,25.27,0,0,1,.41,3.77c.11-.27.21-.54.34-.8a10.11,10.11,0,0,1,1.29-2c.09-.12.19.16.12.25a10.59,10.59,0,0,0-1.57,4.21c-.05.26-.1.52-.14.78,0,.43,0,.85,0,1.28,0,1.55,0,3.1,0,4.65,0,1.09.12,2.18.2,3.27h-1a21.79,21.79,0,0,1-.51-5.56c0-1.44,0-2.88,0-4.32l-.06-.05a3.57,3.57,0,0,0-.77-.35,10.34,10.34,0,0,1-1.63-.72,10.67,10.67,0,0,1-2.78-2.13c-.05-.06,0-.26.07-.16a6.43,6.43,0,0,0,3.07,1.67c.61.16,1.2.34,1.8.51l.27.1c0-.67-.05-1.34-.12-2a19.79,19.79,0,0,0-.63-3.45c-.47-.49-.83-1.13-1.31-1.62a9,9,0,0,0-2.24-1.57,14.8,14.8,0,0,0-2.87-1.07l-1.55-.42a4.53,4.53,0,0,0-1.77-.34C431.94,348.09,431.91,347.89,432,347.85Z" style="opacity:0.15"></path></g><g id="freepik--plant--inject-45"><g id="freepik--pot--inject-45"><path d="M31.18,392.67C22.62,383.84,17.6,363,25.94,356H68.4c8.34,7,3.32,27.79-5.23,36.62l-.24.24a4,4,0,0,1-.29.29c-.24.24-.5.47-.77.7l-.21.16c-.21.17-.41.33-.64.49a11.6,11.6,0,0,1-1.11.72c-7,4.11-18.44,4.11-25.48,0h0a11.05,11.05,0,0,1-1.11-.72c-.22-.15-.41-.31-.61-.46l-.25-.2c-.26-.22-.51-.44-.74-.67s-.23-.22-.34-.34Z" style="fill:#f0f0f0"></path><path d="M64.71,353.22c9.69,5.65,9.69,14.82,0,20.48s-25.39,5.65-35.08,0-9.68-14.83,0-20.48S55,347.56,64.71,353.22Z" style="fill:#fafafa"></path><path d="M60.05,355.94c7.11,4.15,7.11,10.89,0,15s-18.65,4.15-25.76,0-7.11-10.89,0-15S52.94,351.79,60.05,355.94Z" style="fill:#e0e0e0"></path><path d="M34.29,363.08c7.11-4.16,18.65-4.16,25.76,0A11.82,11.82,0,0,1,64.31,367a11.91,11.91,0,0,1-4.26,4c-7.11,4.15-18.65,4.15-25.76,0A11.91,11.91,0,0,1,30,367,11.82,11.82,0,0,1,34.29,363.08Z" style="fill:#f0f0f0"></path></g><path d="M35,287.88a4.09,4.09,0,0,1,0-.63L35,286.6c-.05-.44-.12-.87-.2-1.29a24.16,24.16,0,0,0-.63-2.54,1.73,1.73,0,0,0-.15-.49c0-.17-.11-.33-.16-.49l-.33-1-.5-1.43a11.54,11.54,0,0,1-.45-1.37,3.27,3.27,0,0,0-.13-.54.92.92,0,0,1-.09-.23c-.05-.24-.09-.47-.14-.7-.1-.47-.21-.93-.33-1.39-.25-.91-.54-1.82-.87-2.71-.26-.7-.54-1.39-.86-2.07a7.16,7.16,0,0,0-2.35-3.16,1,1,0,0,0-.93-.18c-.32.17-.38.59-.41.95-.14,2-.27,4.06-.41,6.08a17.5,17.5,0,0,0,0,3.76,9,9,0,0,0,2.08,4.58,18.62,18.62,0,0,0,2.46,2.23c.66.52,1.34,1,2,1.59A8.52,8.52,0,0,0,35,287.88Z" style="fill:#e0e0e0"></path><path d="M47,275.08c0-.29-.11-.58-.18-.86a5.74,5.74,0,0,0-.75-1.76c-.17-.27-.26-.58-.41-.85a3.27,3.27,0,0,0-.62-.76,1.28,1.28,0,0,0-.52-.29.56.56,0,0,0-.55.17,1,1,0,0,0-.14.48,16.85,16.85,0,0,1-.64,3.22,12.28,12.28,0,0,1-.55,1.54,3,3,0,0,1-.29.41,2.38,2.38,0,0,0-.18.3,9.21,9.21,0,0,1-.84,1.46,7.35,7.35,0,0,1-.81,1,18.42,18.42,0,0,0-2.84,2.81c-1.08,1.69-.9,3.86-.94,5.78,0,.33,0,.66,0,1,0,2.63-.43,4.9.25,7.49,0,.19.23.63.52.46l.29-.19a9.78,9.78,0,0,0,2.94-4.36c.18-.43.34-.87.52-1.3a3.31,3.31,0,0,1,.61-.82,31,31,0,0,0,1.74-2.65,26.56,26.56,0,0,0,2.8-5.65,14.9,14.9,0,0,0,.77-4.53A11.74,11.74,0,0,0,47,275.08Z" style="fill:#e0e0e0"></path><path d="M28.77,295.81c.5,0,1,.05,1.51.05,1,0,2,0,3.06,0h1.54a4.52,4.52,0,0,1,.52,0,4.59,4.59,0,0,0,.74,0,.26.26,0,0,0,.15,0,.28.28,0,0,0,.07-.22,4.5,4.5,0,0,0-.49-2,4.25,4.25,0,0,0-.58-.87,8.2,8.2,0,0,0-2.64-2.08,15,15,0,0,0-3.09-.91l-8.35-1.78c-.39-.08-.85-.14-1.11.15a1,1,0,0,0-.21.61A6.19,6.19,0,0,0,22.73,294,11.83,11.83,0,0,0,28.77,295.81Z" style="fill:#e0e0e0"></path><path d="M37.94,306.07a5.1,5.1,0,0,0-1-1.23,6.31,6.31,0,0,0-2-1.31,22.32,22.32,0,0,0-3.77-1.1,44.92,44.92,0,0,1-8.55-3.06,1.21,1.21,0,0,0-.58-.16c-.49.05-.68.66-.71,1.14a7.11,7.11,0,0,0,3.74,6.54c2.31,1.19,5,1,7.64.92h.11a21.81,21.81,0,0,1,2.8.05,13.19,13.19,0,0,1,1.38.22c.37.09,1.07.5,1.32,0a1.07,1.07,0,0,0,0-.59,4.81,4.81,0,0,0-.46-1.37Z" style="fill:#e0e0e0"></path><path d="M40.77,306.8a2.19,2.19,0,0,1-.39.29.82.82,0,0,1-.34.09.46.46,0,0,1-.42-.22c-.06-.08-.1-.16-.15-.24a3.54,3.54,0,0,1-.23-.53,6.43,6.43,0,0,1-.28-1.13c0-.09,0-.18,0-.27-.05-.44-.09-.87-.13-1.3,0-.22,0-.44-.08-.65a1.31,1.31,0,0,1,0-.48,4.28,4.28,0,0,0,0-.8,6.3,6.3,0,0,1,0-1c.24-2.87,2.34-5.18,4.06-7.49a35.88,35.88,0,0,0,4-6.74c.24-.53.62-1.16,1.19-1.07s.7.56.84,1a15.22,15.22,0,0,1-.23,9.57A21.65,21.65,0,0,1,45.86,301a28.22,28.22,0,0,1-1.78,2.3c-.19.22-.35.44-.55.65-.6.64-1.21,1.27-1.82,1.9l-.77.76Z" style="fill:#e0e0e0"></path><path d="M35.48,314.75a23.55,23.55,0,0,0-5.92-1.17,13.79,13.79,0,0,1-5.75-1.72,1,1,0,0,0-.59-.24c-.41,0-.63.5-.68.92a5.67,5.67,0,0,0,.95,3.53,10.61,10.61,0,0,0,10.58,4.83h0c1.31-.22,2.57-.69,3.89-.82a5.25,5.25,0,0,1,1,0c.21,0,.54.14.71,0,.35-.37-.07-.89-.16-1.26a4.33,4.33,0,0,0-.57-1.28,6.66,6.66,0,0,0-2-2A8.6,8.6,0,0,0,35.48,314.75Z" style="fill:#e0e0e0"></path><path d="M35.61,326.55c-2-.5-4.08-.6-6-1.29-.86-.31-1.69-.73-2.54-1.08-.24-.1-.54-.18-.72,0a.6.6,0,0,0-.13.43,6.75,6.75,0,0,0,3,5.53,11.27,11.27,0,0,0,6.24,1.76c1.31,0,2.62-.11,3.93,0a2.85,2.85,0,0,1,.92.14c.15.07.25.23.4.29.59.2.66-.64.6-1a5,5,0,0,0-.78-1.91,4.19,4.19,0,0,0-.67-.79,1.52,1.52,0,0,0-.33-.18c-.56-.27-1-.74-1.59-1A10,10,0,0,0,35.61,326.55Z" style="fill:#e0e0e0"></path><path d="M37.25,319.25a8,8,0,0,1,1.52.76,16.94,16.94,0,0,1,1.38,1.16c.23,3.29.38,6.58.52,9.87a6.41,6.41,0,0,0-.71-.62,6.09,6.09,0,0,0-2.16-1c-1.92-.5-3.95-.22-5.83-.85-.09,0-.13.17,0,.21,1.72.7,3.56.75,5.35,1.18a7.73,7.73,0,0,1,2.06.8,4.16,4.16,0,0,1,.85.65,5,5,0,0,1,.53.71c.23,5.34.46,10.67,1,16,.34,3,.8,6.07,1.44,9.06.31,1.48.69,2.95,1.13,4.4.26.86.53,1.72.84,2.56a12.26,12.26,0,0,0,.82,1.76h1a9.9,9.9,0,0,0-.27-1.2c-.21-.72-.43-1.44-.64-2.17-.39-1.32-.73-2.65-1-4q-.91-4.11-1.46-8.29c-.71-5.6-1-11.24-1.2-16.88s-.49-11.32-1.08-17c-.36-3.41-.86-6.8-1.46-10.18A18,18,0,0,1,42,301.4a41.45,41.45,0,0,0,3.32-6.06c0-.08-.06-.24-.12-.11-1.08,2.08-2.78,3.78-4.1,5.71a14.24,14.24,0,0,0-1.64,3.26c-.32-1.67-.66-3.34-1-5q-.37-1.56-.78-3.12c.09-.58.18-1.15.23-1.73a19.35,19.35,0,0,1,.31-2.14,21.47,21.47,0,0,1,1.31-4.07c1.09-2.59,2.95-4.81,3.8-7.49,0-.13-.12-.33-.2-.14a16.38,16.38,0,0,1-2.42,3.95,18.14,18.14,0,0,0-2.34,3.81,17.64,17.64,0,0,0-1.21,4.15c-.07.38-.13.77-.17,1.15a99.23,99.23,0,0,0-5-13.51c-.07-.15-.19.07-.16.16,1.47,4.84,2.85,9.72,4.06,14.63l-.27-.18a9.21,9.21,0,0,0-2.13-1c-1.9-.66-3.87-1.11-5.79-1.7-.11,0-.16.26-.06.3,1.79.61,3.56,1.27,5.33,1.93a14,14,0,0,1,2.07.89,5.38,5.38,0,0,1,.94.64c.06,0,.11.11.16.16.92,3.82,1.73,7.67,2.39,11.55a8.56,8.56,0,0,0-4.83-2.64c-1.32-.26-2.66-.32-4-.5A12.05,12.05,0,0,1,26,303.14c-.07,0-.1.13-.06.17C27.75,305,30.7,305,33,305.42a9.57,9.57,0,0,1,3.57,1.21,7.61,7.61,0,0,1,2.17,2.21c.31,2,.6,3.89.83,5.85s.37,3.62.5,5.43a6.21,6.21,0,0,0-2-1.42,13.49,13.49,0,0,0-3.53-1c-2.45-.39-5.06-.48-7.16-2,0,0-.06,0,0,.06,1.75,1.69,4.21,2.14,6.51,2.59A20.1,20.1,0,0,1,37.25,319.25Z" style="fill:#e0e0e0"></path><path d="M37.25,319.25a8,8,0,0,1,1.52.76,16.94,16.94,0,0,1,1.38,1.16c.23,3.29.38,6.58.52,9.87a6.41,6.41,0,0,0-.71-.62,6.09,6.09,0,0,0-2.16-1c-1.92-.5-3.95-.22-5.83-.85-.09,0-.13.17,0,.21,1.72.7,3.56.75,5.35,1.18a7.73,7.73,0,0,1,2.06.8,4.16,4.16,0,0,1,.85.65,5,5,0,0,1,.53.71c.23,5.34.46,10.67,1,16,.34,3,.8,6.07,1.44,9.06.31,1.48.69,2.95,1.13,4.4.26.86.53,1.72.84,2.56a12.26,12.26,0,0,0,.82,1.76h1a9.9,9.9,0,0,0-.27-1.2c-.21-.72-.43-1.44-.64-2.17-.39-1.32-.73-2.65-1-4q-.91-4.11-1.46-8.29c-.71-5.6-1-11.24-1.2-16.88s-.49-11.32-1.08-17c-.36-3.41-.86-6.8-1.46-10.18A18,18,0,0,1,42,301.4a41.45,41.45,0,0,0,3.32-6.06c0-.08-.06-.24-.12-.11-1.08,2.08-2.78,3.78-4.1,5.71a14.24,14.24,0,0,0-1.64,3.26c-.32-1.67-.66-3.34-1-5q-.37-1.56-.78-3.12c.09-.58.18-1.15.23-1.73a19.35,19.35,0,0,1,.31-2.14,21.47,21.47,0,0,1,1.31-4.07c1.09-2.59,2.95-4.81,3.8-7.49,0-.13-.12-.33-.2-.14a16.38,16.38,0,0,1-2.42,3.95,18.14,18.14,0,0,0-2.34,3.81,17.64,17.64,0,0,0-1.21,4.15c-.07.38-.13.77-.17,1.15a99.23,99.23,0,0,0-5-13.51c-.07-.15-.19.07-.16.16,1.47,4.84,2.85,9.72,4.06,14.63l-.27-.18a9.21,9.21,0,0,0-2.13-1c-1.9-.66-3.87-1.11-5.79-1.7-.11,0-.16.26-.06.3,1.79.61,3.56,1.27,5.33,1.93a14,14,0,0,1,2.07.89,5.38,5.38,0,0,1,.94.64c.06,0,.11.11.16.16.92,3.82,1.73,7.67,2.39,11.55a8.56,8.56,0,0,0-4.83-2.64c-1.32-.26-2.66-.32-4-.5A12.05,12.05,0,0,1,26,303.14c-.07,0-.1.13-.06.17C27.75,305,30.7,305,33,305.42a9.57,9.57,0,0,1,3.57,1.21,7.61,7.61,0,0,1,2.17,2.21c.31,2,.6,3.89.83,5.85s.37,3.62.5,5.43a6.21,6.21,0,0,0-2-1.42,13.49,13.49,0,0,0-3.53-1c-2.45-.39-5.06-.48-7.16-2,0,0-.06,0,0,.06,1.75,1.69,4.21,2.14,6.51,2.59A20.1,20.1,0,0,1,37.25,319.25Z" style="opacity:0.15"></path><path d="M27.6,335.59a21,21,0,0,0-3-1.4l-6.72-2.77a1,1,0,0,0-1-.05.9.9,0,0,0-.31.7,7,7,0,0,0,.39,2.86,11.37,11.37,0,0,0,8.67,7.8c1.69.26,3.44.07,5.11.46.66.16,1.75.37,1.76-.64a1.58,1.58,0,0,0-.27-.72,9.21,9.21,0,0,1-.38-1,10.69,10.69,0,0,0-2.37-3.66A10.33,10.33,0,0,0,27.6,335.59Z" style="fill:#e0e0e0"></path><path d="M31,347a17,17,0,0,0-4.22-1.05l-3.87-.61c-.5-.07-1-.14-1.49-.23a.72.72,0,0,1-.21-.05,1.17,1.17,0,0,0-.63-.15c-.29.05-.34.24-.36.5a4.32,4.32,0,0,0,.14,1.52A5.57,5.57,0,0,0,22,349.55a9.63,9.63,0,0,0,4.66,2.13,17.76,17.76,0,0,0,4.18.34,3.1,3.1,0,0,0,2.92-1.43c.5-1-.38-1.93-1.08-2.55A6.85,6.85,0,0,0,31,347Z" style="fill:#e0e0e0"></path><path d="M35.44,338.81a1.59,1.59,0,0,1,.08-.81,1,1,0,0,1,1-.47,1.77,1.77,0,0,1,1,.5c1.19,1.07,1.49,2.79,1.64,4.38a14.8,14.8,0,0,1-.17,4.88c-.29,1.17-.82,2.68-2.16,2.95a2.26,2.26,0,0,1-2.4-1.14c-.76-1.36-.1-3.15.24-4.53a21.28,21.28,0,0,0,.81-5.14C35.45,339.23,35.45,339,35.44,338.81Z" style="fill:#e0e0e0"></path><path d="M32.61,356a18.39,18.39,0,0,0-5.11-1.13l-1.93-.24a.94.94,0,0,0-.41,0c-.42.13-.46.72-.32,1.15.58,1.82,2.58,2.8,4.46,3.17s3.87.32,5.64,1.06c.41.17,1.06.46,1.33-.07s-.17-.74-.35-1.08a5.87,5.87,0,0,0-1.9-2.09A7.45,7.45,0,0,0,32.61,356Z" style="fill:#e0e0e0"></path><path d="M36.46,353.71c.6-1.49,1.9-2.71,2.17-4.3a.81.81,0,0,1,.84.37,2.4,2.4,0,0,1,.35.91,18.21,18.21,0,0,1,.58,3.73,6,6,0,0,1-1,3.59,2.13,2.13,0,0,1-1.55,1,1.79,1.79,0,0,1-1.46-.58c-.57-.64-.4-1.56-.36-2.35A7.07,7.07,0,0,1,36.46,353.71Z" style="fill:#e0e0e0"></path><path d="M32.27,350.5c.53.11,1,.28,1.55.43.46,2.45,1,4.89,1.44,7.33l.15.81a4.33,4.33,0,0,0-.41-.3,5.32,5.32,0,0,0-1.19-.6,2.6,2.6,0,0,0-.67-.15l-.62,0c-.15,0-.16.31,0,.34a7.9,7.9,0,0,1,1.22.4,6.94,6.94,0,0,1,1.05.54,5.35,5.35,0,0,1,.8.62c.35,1.83.69,3.66,1.14,5.47a18.76,18.76,0,0,0,1.13,3.34c.16.34.33.67.52,1h1.2a21,21,0,0,1-1.49-4.2c-.47-1.84-.82-3.72-1.17-5.6a5.93,5.93,0,0,1,.3-1.19,11,11,0,0,1,.54-1.27c.1-.21.21-.41.32-.62a2.73,2.73,0,0,0,.25-.94s0-.1-.06-.09c-.52.18-.78.71-1.06,1.15a8.12,8.12,0,0,0-.62,1.21q-.63-3.19-1.27-6.39h0c.07-.35.14-.7.24-1,.22-.68.56-1.3.83-2a9.14,9.14,0,0,0,.66-2.16,6,6,0,0,0,.15-2.1c0-.19-.19,0-.17.12.12.78-.52,1.5-.85,2.15s-.64,1.18-.94,1.78c-.14.28-.27.56-.4.85a20.61,20.61,0,0,0-1.69-5.88,9.75,9.75,0,0,0-2.22-2.8,10.32,10.32,0,0,0-1.75-1.18,14.27,14.27,0,0,0-2.11-.84c-.07,0-.11.14-.06.18.54.35,1,.76,1.57,1.1a16.4,16.4,0,0,1,1.67,1.2,6.45,6.45,0,0,1,1.87,2.6A32.62,32.62,0,0,1,33.64,350a15.72,15.72,0,0,0-3-.52,9.47,9.47,0,0,1-3.17-.91c-.13-.07-.19.23-.1.3a7.47,7.47,0,0,0,3.22,1.27C31.12,350.25,31.7,350.37,32.27,350.5Z" style="fill:#e0e0e0"></path><path d="M32.27,350.5c.53.11,1,.28,1.55.43.46,2.45,1,4.89,1.44,7.33l.15.81a4.33,4.33,0,0,0-.41-.3,5.32,5.32,0,0,0-1.19-.6,2.6,2.6,0,0,0-.67-.15l-.62,0c-.15,0-.16.31,0,.34a7.9,7.9,0,0,1,1.22.4,6.94,6.94,0,0,1,1.05.54,5.35,5.35,0,0,1,.8.62c.35,1.83.69,3.66,1.14,5.47a18.76,18.76,0,0,0,1.13,3.34c.16.34.33.67.52,1h1.2a21,21,0,0,1-1.49-4.2c-.47-1.84-.82-3.72-1.17-5.6a5.93,5.93,0,0,1,.3-1.19,11,11,0,0,1,.54-1.27c.1-.21.21-.41.32-.62a2.73,2.73,0,0,0,.25-.94s0-.1-.06-.09c-.52.18-.78.71-1.06,1.15a8.12,8.12,0,0,0-.62,1.21q-.63-3.19-1.27-6.39h0c.07-.35.14-.7.24-1,.22-.68.56-1.3.83-2a9.14,9.14,0,0,0,.66-2.16,6,6,0,0,0,.15-2.1c0-.19-.19,0-.17.12.12.78-.52,1.5-.85,2.15s-.64,1.18-.94,1.78c-.14.28-.27.56-.4.85a20.61,20.61,0,0,0-1.69-5.88,9.75,9.75,0,0,0-2.22-2.8,10.32,10.32,0,0,0-1.75-1.18,14.27,14.27,0,0,0-2.11-.84c-.07,0-.11.14-.06.18.54.35,1,.76,1.57,1.1a16.4,16.4,0,0,1,1.67,1.2,6.45,6.45,0,0,1,1.87,2.6A32.62,32.62,0,0,1,33.64,350a15.72,15.72,0,0,0-3-.52,9.47,9.47,0,0,1-3.17-.91c-.13-.07-.19.23-.1.3a7.47,7.47,0,0,0,3.22,1.27C31.12,350.25,31.7,350.37,32.27,350.5Z" style="opacity:0.15"></path><path d="M70,279.33c1.57-3.3,4.42-5.94,5.57-9.41a1.07,1.07,0,0,1,.26-.48.68.68,0,0,1,.87.1,1.83,1.83,0,0,1,.42.86,14.54,14.54,0,0,1,.33,7.92A27.75,27.75,0,0,1,76,281.77a64.48,64.48,0,0,1-2.68,6,11.71,11.71,0,0,1-2.24,2.86c-.66.61-1.82,1.65-2.53.53a3.09,3.09,0,0,1-.28-1.65c0-.67,0-1.34,0-2a27.77,27.77,0,0,1,.37-4,16.91,16.91,0,0,1,1.1-3.76Z" style="fill:#e0e0e0"></path><path d="M64.67,291.8a17.12,17.12,0,0,0-2.17-5L59,280.59c-.09-.16-.22-.34-.4-.35s-.35.17-.45.34a10.74,10.74,0,0,0-.49,9.25,25,25,0,0,0,5.33,7.9,1,1,0,0,0,1.07.4,1.44,1.44,0,0,0,.7-1.1,1.47,1.47,0,0,0,0-.42,5.35,5.35,0,0,1,.08-1.2c0-.49.08-1,.09-1.47A10.19,10.19,0,0,0,64.67,291.8Z" style="fill:#e0e0e0"></path><path d="M78.6,289.61,82,287.92a.49.49,0,0,1,.3-.08c.17,0,.25.23.28.4a5.26,5.26,0,0,1-.6,3.57,11.58,11.58,0,0,1-2.3,2.87,29.24,29.24,0,0,1-2.89,2.45,27.85,27.85,0,0,1-3.23,2,25,25,0,0,1-3.48,1.53,22.4,22.4,0,0,1-3.67.92c-.66.1-1.54.22-1.67-.65a3.74,3.74,0,0,1,.68-2.27,9.91,9.91,0,0,1,2.13-2.39,30.58,30.58,0,0,1,3.17-2.39c1.11-.73,2.26-1.4,3.42-2s2.37-1.24,3.56-1.83Z" style="fill:#e0e0e0"></path><path d="M58.21,302.55a22.83,22.83,0,0,0-1.16-2.86,49.94,49.94,0,0,1-2.49-6.91c-.38,0-.69.28-.93.59a11.75,11.75,0,0,0-2.5,6.5,8.64,8.64,0,0,0,2.35,6.45c1.21,1.22,2.85,2.05,3.71,3.54.16.28.32.6.63.7a.44.44,0,0,0,.49-.23c.09-.17-.05-.35,0-.54.06-.6.16-1.19.21-1.78a18,18,0,0,0,.07-3.52A10.67,10.67,0,0,0,58.21,302.55Z" style="fill:#e0e0e0"></path><path d="M62.1,307.28c1.77-1.46,4.15-1.88,6.42-2.16s4.64-.51,6.61-1.68a1.58,1.58,0,0,1,.71-.29c.67,0,1,.88.83,1.53a6,6,0,0,1-1.28,2.52,11.63,11.63,0,0,1-1.89,2.07c-2.52,2.07-6,2.25-9.3,2.33l-2.34.06-1.18,0a8.68,8.68,0,0,1-1.14,0c-.59-.06-.12-.77,0-1,.32-.57.64-1.15,1-1.7A8.38,8.38,0,0,1,62.1,307.28Z" style="fill:#e0e0e0"></path><path d="M53.29,315.81A14.25,14.25,0,0,0,51.88,313q-1.41-2.36-2.83-4.69c-.29-.5-.68-1-1.26-1.07-1.34,3.62-2.08,7.79-.35,11.24a17.19,17.19,0,0,0,2.19,3.12L52,324.56c.32.39.94.82,1.48.53.25-.13.29-.45.34-.7a6.79,6.79,0,0,0,.14-1.2,3.32,3.32,0,0,0,0-.89,13.18,13.18,0,0,1-.2-2.59A12,12,0,0,0,53.29,315.81Z" style="fill:#e0e0e0"></path><path d="M61.75,317.47a10.14,10.14,0,0,1,2.54-1c1-.22,2.09-.23,3.14-.36,1.72-.21,3.38-.74,5.1-1a.84.84,0,0,1,.52,0,.82.82,0,0,1,.34.69,5.87,5.87,0,0,1-.89,3.32,12,12,0,0,1-8,5.84,29.79,29.79,0,0,1-4.62.38c-.77,0-1.54.09-2.31.2-.38.06-.76.13-1.14.22a1,1,0,0,1-.71,0c-.37-.16-.39-.69-.36-1a4.2,4.2,0,0,1,.57-1.56,14,14,0,0,1,2.3-3.16,13.69,13.69,0,0,1,3.06-2.4Z" style="fill:#e0e0e0"></path><path d="M45.4,326.27a30.71,30.71,0,0,0-.47,4.78,15.62,15.62,0,0,0,.85,6,21.21,21.21,0,0,0,3.6,5.53.66.66,0,0,0,.31.24c.28.07.49-.24.6-.51a14,14,0,0,0,.78-7.52A14.72,14.72,0,0,0,49.92,331c-.25-.54-.63-1-.84-1.59,0-.13-.07-.27-.12-.4a8.88,8.88,0,0,0-.66-1.16,15.88,15.88,0,0,1-1.14-2.61,1.5,1.5,0,0,0-.49-.81.54.54,0,0,0-.56,0c-.2.12-.17.3-.25.48a5.31,5.31,0,0,0-.3.64A5.73,5.73,0,0,0,45.4,326.27Z" style="fill:#e0e0e0"></path><path d="M54.18,332.27a8.67,8.67,0,0,1,2.47-2.81,10.61,10.61,0,0,1,2.68-1.14l7-2.26a8.62,8.62,0,0,1-2.53,7.1,25,25,0,0,1-6,4.39c-1.54.89-3.12,1.57-4,2.15-.39.26-.77.53-1.14.82s-.82.68-1.13.35c-.14-.16,0-.44,0-.63s.11-.53.18-.8.19-.67.28-1,.19-.66.26-1l.09-.49a15.15,15.15,0,0,1,.7-2.41A15.48,15.48,0,0,1,54.18,332.27Z" style="fill:#e0e0e0"></path><path d="M72.48,296.7a59,59,0,0,0-6.14,3c-.38.21-.81.43-1.22.68l.1-.17a61.87,61.87,0,0,0,4.83-9.54q1-2.54,1.66-5.16a52.89,52.89,0,0,0,1-5.45c0-.21-.2-.37-.27-.1-.38,1.66-1,3.27-1.51,4.89s-1.1,3.15-1.75,4.68a71,71,0,0,1-4.4,8.65c-.22.38-.44.74-.67,1.11,0-.26,0-.5,0-.72a15.6,15.6,0,0,0-.28-3.05,19.36,19.36,0,0,0-.75-2.78,6.28,6.28,0,0,0-1.31-2.57c-.1-.09-.18.08-.16.17a18.88,18.88,0,0,0,.92,2.54,15.87,15.87,0,0,1,.62,2.73,18.56,18.56,0,0,1,.14,2.79,20.28,20.28,0,0,0-.13,2.46c-1.19,2-2.38,4-3.46,6-.48.93-.94,1.88-1.39,2.82l0-.12a17.63,17.63,0,0,0-1.15-3.14,28.19,28.19,0,0,1-2.67-7.19c0-.13-.15,0-.14.06A20.11,20.11,0,0,0,56,305.72c.41,1.12.78,2.24,1.09,3.38a12.13,12.13,0,0,1,.32,1.7c0,.29.06.57.1.84l-.14.35a2.9,2.9,0,0,0-.44,1c-.3.72-.6,1.45-.89,2.19-1,2.66-1.93,5.38-2.72,8.12a17.81,17.81,0,0,0-2.16-5.89,10,10,0,0,0-1.94-2.72c-.1-.08-.14.17-.11.22.41.94,1,1.77,1.45,2.72a27.53,27.53,0,0,1,1,2.79,40.77,40.77,0,0,1,1.13,5,107.26,107.26,0,0,0-2.29,11.25,45.92,45.92,0,0,0-2.07-4.23c-.09-.19-.24.1-.19.22A28.47,28.47,0,0,1,49.87,338c.08.37.14.74.2,1.11-.52,4-.84,8.11-1,12.17,0,.61.07,4.32.14,6.61a37.85,37.85,0,0,0,.53,5.7,17.44,17.44,0,0,0,.78,2.75h1.08c0-.42-.1-.85-.19-1.26a51,51,0,0,1-.91-9.52c0-1,0-2.05.05-3.08.07-3.17.26-6.34.57-9.49a11.46,11.46,0,0,1,1.27-2.49c1.46-2.1,3.69-3.47,5.2-5.51.08-.11,0-.56-.17-.43A24.52,24.52,0,0,0,54,337.15a13,13,0,0,0-2.51,2.58c.23-1.84.5-3.69.82-5.52.36-2,.79-4.06,1.27-6.08a9.29,9.29,0,0,0,.75-.91c.34-.43.66-.88,1-1.29a10.52,10.52,0,0,1,2.4-2,10.1,10.1,0,0,1,2.58-1.14,11.69,11.69,0,0,1,1.3-.31,4.61,4.61,0,0,0,1.38-.31c.06,0,.09-.19,0-.23a5.28,5.28,0,0,0-3.31,0,10.93,10.93,0,0,0-3.07,1.24,10.72,10.72,0,0,0-2.3,1.95c.77-2.83,1.66-5.64,2.69-8.39.61-1.64,1.28-3.25,2-4.84a8,8,0,0,1,1.83-1.05,25,25,0,0,1,2.78-.9,15.23,15.23,0,0,0,2.59-1c.11,0,.13-.34,0-.3-1.07.29-2.23.38-3.32.59a14.47,14.47,0,0,0-3,.83c1.06-2.24,2.22-4.44,3.44-6.6a11.13,11.13,0,0,1,1.33-1.58,16.79,16.79,0,0,1,2.54-1.53,60.14,60.14,0,0,0,5.33-3.25C72.68,297,72.65,296.64,72.48,296.7Z" style="fill:#e0e0e0"></path><path d="M72.48,296.7a59,59,0,0,0-6.14,3c-.38.21-.81.43-1.22.68l.1-.17a61.87,61.87,0,0,0,4.83-9.54q1-2.54,1.66-5.16a52.89,52.89,0,0,0,1-5.45c0-.21-.2-.37-.27-.1-.38,1.66-1,3.27-1.51,4.89s-1.1,3.15-1.75,4.68a71,71,0,0,1-4.4,8.65c-.22.38-.44.74-.67,1.11,0-.26,0-.5,0-.72a15.6,15.6,0,0,0-.28-3.05,19.36,19.36,0,0,0-.75-2.78,6.28,6.28,0,0,0-1.31-2.57c-.1-.09-.18.08-.16.17a18.88,18.88,0,0,0,.92,2.54,15.87,15.87,0,0,1,.62,2.73,18.56,18.56,0,0,1,.14,2.79,20.28,20.28,0,0,0-.13,2.46c-1.19,2-2.38,4-3.46,6-.48.93-.94,1.88-1.39,2.82l0-.12a17.63,17.63,0,0,0-1.15-3.14,28.19,28.19,0,0,1-2.67-7.19c0-.13-.15,0-.14.06A20.11,20.11,0,0,0,56,305.72c.41,1.12.78,2.24,1.09,3.38a12.13,12.13,0,0,1,.32,1.7c0,.29.06.57.1.84l-.14.35a2.9,2.9,0,0,0-.44,1c-.3.72-.6,1.45-.89,2.19-1,2.66-1.93,5.38-2.72,8.12a17.81,17.81,0,0,0-2.16-5.89,10,10,0,0,0-1.94-2.72c-.1-.08-.14.17-.11.22.41.94,1,1.77,1.45,2.72a27.53,27.53,0,0,1,1,2.79,40.77,40.77,0,0,1,1.13,5,107.26,107.26,0,0,0-2.29,11.25,45.92,45.92,0,0,0-2.07-4.23c-.09-.19-.24.1-.19.22A28.47,28.47,0,0,1,49.87,338c.08.37.14.74.2,1.11-.52,4-.84,8.11-1,12.17,0,.61.07,4.32.14,6.61a37.85,37.85,0,0,0,.53,5.7,17.44,17.44,0,0,0,.78,2.75h1.08c0-.42-.1-.85-.19-1.26a51,51,0,0,1-.91-9.52c0-1,0-2.05.05-3.08.07-3.17.26-6.34.57-9.49a11.46,11.46,0,0,1,1.27-2.49c1.46-2.1,3.69-3.47,5.2-5.51.08-.11,0-.56-.17-.43A24.52,24.52,0,0,0,54,337.15a13,13,0,0,0-2.51,2.58c.23-1.84.5-3.69.82-5.52.36-2,.79-4.06,1.27-6.08a9.29,9.29,0,0,0,.75-.91c.34-.43.66-.88,1-1.29a10.52,10.52,0,0,1,2.4-2,10.1,10.1,0,0,1,2.58-1.14,11.69,11.69,0,0,1,1.3-.31,4.61,4.61,0,0,0,1.38-.31c.06,0,.09-.19,0-.23a5.28,5.28,0,0,0-3.31,0,10.93,10.93,0,0,0-3.07,1.24,10.72,10.72,0,0,0-2.3,1.95c.77-2.83,1.66-5.64,2.69-8.39.61-1.64,1.28-3.25,2-4.84a8,8,0,0,1,1.83-1.05,25,25,0,0,1,2.78-.9,15.23,15.23,0,0,0,2.59-1c.11,0,.13-.34,0-.3-1.07.29-2.23.38-3.32.59a14.47,14.47,0,0,0-3,.83c1.06-2.24,2.22-4.44,3.44-6.6a11.13,11.13,0,0,1,1.33-1.58,16.79,16.79,0,0,1,2.54-1.53,60.14,60.14,0,0,0,5.33-3.25C72.68,297,72.65,296.64,72.48,296.7Z" style="opacity:0.15"></path><path d="M57.06,359.15a13.32,13.32,0,0,0-.48-3.2,7.06,7.06,0,0,0-2.15-3.84,2.79,2.79,0,0,0-2.16-.61c.23,1.53.45,3.05.67,4.57,0,.16.05.32.07.48a8.14,8.14,0,0,0,1.06,3.33,4.85,4.85,0,0,0,.59.61A7.73,7.73,0,0,0,56,361.57l.23.13a.76.76,0,0,0,.36.11c.43,0,.37-.68.4-1a13,13,0,0,0,.07-1.52Z" style="fill:#e0e0e0"></path><path d="M64.33,353.41A12.8,12.8,0,0,0,66.77,352c.16-.13.38-.26.56-.15a.47.47,0,0,1,.18.29,3.82,3.82,0,0,1-1,3.2,12.3,12.3,0,0,1-2.94,2.82,8.75,8.75,0,0,1-3.71,1.47c-.78.1-2.52.25-2.18-1a4.39,4.39,0,0,1,.76-1.39,14.5,14.5,0,0,1,1.23-1.47,11.84,11.84,0,0,1,4.14-2.14C64,353.56,64.17,353.48,64.33,353.41Z" style="fill:#e0e0e0"></path><path d="M64.54,345.05a13.21,13.21,0,0,1,8.51.3,3.64,3.64,0,0,1,1.82,1.13,1.45,1.45,0,0,1-.1,2,2.07,2.07,0,0,1-.84.34L60.72,352a2.93,2.93,0,0,1-1.06.11c-.18,0-.33-.11-.49-.14s-.28.06-.37-.1a.63.63,0,0,1-.06-.33,4.36,4.36,0,0,1,.07-.81,1.63,1.63,0,0,1,.13-.37c.15-.28.27-.59.41-.88a8.61,8.61,0,0,1,2.93-3.32A10,10,0,0,1,64.54,345.05Z" style="fill:#e0e0e0"></path><path d="M66.9,337.15c2.26-1.19,4.92-1.3,7.47-1.39a.59.59,0,0,1,.42.1.53.53,0,0,1,.12.29,3.93,3.93,0,0,1-1.22,3.08,10,10,0,0,1-3.26,2.4,19.21,19.21,0,0,1-3.73,1.16l-3.42.83c-.23.05-.74.33-1,.16s0-.86,0-1.08a7.42,7.42,0,0,1,.65-1.29,10.33,10.33,0,0,1,1.44-2.32A8.5,8.5,0,0,1,66.9,337.15Z" style="fill:#e0e0e0"></path><path d="M54.52,344.45a.28.28,0,0,0-.23-.06.24.24,0,0,0-.09.16,2.64,2.64,0,0,0-.11.56c0,.05,0,.1,0,.15a1.82,1.82,0,0,1-.1.45,4.52,4.52,0,0,0-.09,1,5.1,5.1,0,0,0,.14,1.1,7.77,7.77,0,0,0,1.07,2.43,3.17,3.17,0,0,0,.37.51c.15.18.33.33.5.5a7,7,0,0,1,.93,1.24c.08.13.19.27.33.24s.15-.09.21-.16a1.6,1.6,0,0,0,.32-.53c0-.21.1-.41.12-.62,0,0,0-.07,0-.1a7.78,7.78,0,0,0-.39-3.21,8.2,8.2,0,0,0-.69-1.47A7.93,7.93,0,0,0,54.52,344.45Z" style="fill:#e0e0e0"></path><path d="M68,347.85a6.31,6.31,0,0,0-3.31.07,16.19,16.19,0,0,0-3.48,1,8.53,8.53,0,0,0-1.94,1.18,21.07,21.07,0,0,1,3-4.82,23.75,23.75,0,0,1,4.88-4.62c.07-.05.08-.3,0-.25a17.7,17.7,0,0,0-5,3.21,18.46,18.46,0,0,0-3.67,4.88,19.81,19.81,0,0,0-1.14,2.58c-.05-.17-.11-.35-.17-.52a8.93,8.93,0,0,0-.71-1.54,4.27,4.27,0,0,0-.49-.71c-.11-.15-.26-.4-.47-.37,0,0-.06.07-.06.1a2.15,2.15,0,0,0,.31.77c.11.21.23.42.33.63a10.83,10.83,0,0,1,.53,1.33c.15.48.24,1,.35,1.45a18.34,18.34,0,0,0-.47,1.91,25.27,25.27,0,0,0-.41,3.77c-.11-.27-.22-.54-.34-.8a10.11,10.11,0,0,0-1.29-2c-.09-.12-.19.16-.12.25a10.59,10.59,0,0,1,1.57,4.21c.05.26.1.52.14.78,0,.43,0,.85,0,1.28,0,1.55,0,3.1,0,4.65,0,1.09-.12,2.18-.2,3.27h1a21.79,21.79,0,0,0,.51-5.56c0-1.44,0-2.88,0-4.32l.06-.05a3.57,3.57,0,0,1,.77-.35,10.34,10.34,0,0,0,1.63-.72,10.67,10.67,0,0,0,2.78-2.13c0-.06,0-.26-.07-.16a6.43,6.43,0,0,1-3.07,1.67c-.61.16-1.2.34-1.8.51l-.27.1c0-.67,0-1.34.12-2a19.79,19.79,0,0,1,.63-3.45c.47-.49.83-1.13,1.31-1.62a9,9,0,0,1,2.24-1.57,14.8,14.8,0,0,1,2.87-1.07l1.55-.42a4.53,4.53,0,0,1,1.77-.34C68.06,348.09,68.09,347.89,68,347.85Z" style="fill:#e0e0e0"></path><path d="M68,347.85a6.31,6.31,0,0,0-3.31.07,16.19,16.19,0,0,0-3.48,1,8.53,8.53,0,0,0-1.94,1.18,21.07,21.07,0,0,1,3-4.82,23.75,23.75,0,0,1,4.88-4.62c.07-.05.08-.3,0-.25a17.7,17.7,0,0,0-5,3.21,18.46,18.46,0,0,0-3.67,4.88,19.81,19.81,0,0,0-1.14,2.58c-.05-.17-.11-.35-.17-.52a8.93,8.93,0,0,0-.71-1.54,4.27,4.27,0,0,0-.49-.71c-.11-.15-.26-.4-.47-.37,0,0-.06.07-.06.1a2.15,2.15,0,0,0,.31.77c.11.21.23.42.33.63a10.83,10.83,0,0,1,.53,1.33c.15.48.24,1,.35,1.45a18.34,18.34,0,0,0-.47,1.91,25.27,25.27,0,0,0-.41,3.77c-.11-.27-.22-.54-.34-.8a10.11,10.11,0,0,0-1.29-2c-.09-.12-.19.16-.12.25a10.59,10.59,0,0,1,1.57,4.21c.05.26.1.52.14.78,0,.43,0,.85,0,1.28,0,1.55,0,3.1,0,4.65,0,1.09-.12,2.18-.2,3.27h1a21.79,21.79,0,0,0,.51-5.56c0-1.44,0-2.88,0-4.32l.06-.05a3.57,3.57,0,0,1,.77-.35,10.34,10.34,0,0,0,1.63-.72,10.67,10.67,0,0,0,2.78-2.13c0-.06,0-.26-.07-.16a6.43,6.43,0,0,1-3.07,1.67c-.61.16-1.2.34-1.8.51l-.27.1c0-.67,0-1.34.12-2a19.79,19.79,0,0,1,.63-3.45c.47-.49.83-1.13,1.31-1.62a9,9,0,0,1,2.24-1.57,14.8,14.8,0,0,1,2.87-1.07l1.55-.42a4.53,4.53,0,0,1,1.77-.34C68.06,348.09,68.09,347.89,68,347.85Z" style="opacity:0.15"></path></g></g><g id="freepik--character-2--inject-45"><g id="freepik--Character--inject-45"><g id="freepik--Bottom--inject-45"><path d="M391.81,391.93c-1-13.94.67-29.27-.49-51h0c-.11-5.58-.31-11.56-.68-16.87-1.26-17.86-4-24-4.27-27.42,0,0-1.35-34.23-2.52-73.32-.55-18.39-5.88-24-10.14-33.72L321,189.5c-5.66,24.08-6.73,78.92-6.56,103.74.09,12.66,1.09,58.36,1.51,78.93.12,5.54-.59,7.71-2.76,10-4.53,4.87-11.1,9.5-16.78,13.74.82,2.17,7.65,2.09,11,.44a87.54,87.54,0,0,0,12.62-8c4.66-3.46,12.21-6.23,12.29-11.49a4.5,4.5,0,0,1,.16-.94c.08-3.07,11.5-47.62,12.1-58.13.51-9-.59-24.37-.59-24.37l5.83-38.27s4.47,29.06,8.11,44.51c3,12.57,7.84,34,11.17,49.5h0c3.2,17.82,7.79,35.15,8.6,44.08.24,2.12,2.66,23,3.65,27.83s11.44,4.91,12.11-3.33C393.92,412.25,392,394.55,391.81,391.93Z" style="fill:#ffa8a7"></path><path d="M286.85,401.73c-.29,0-.76,3.18.79,4.55,1.8,1.58,7.09,4.2,14.12,3.37s10.86-3,13.7-5.29,6.81-5.6,10-6.27c3-.62,6.87-2.12,7.82-3s.87-5,.87-5Z" style="fill:#263238"></path><path d="M332.84,374.66s.45,0,.62,1c.21,1.12-.91,3.61,0,6.42.81,2.5,1.26,6.89.54,9.46-.57,2-5.92,3.67-9,4.81a39,39,0,0,0-10,6.18c-3.33,2.69-10.31,5.35-14.89,5.37-7,0-11.5-1.92-12.87-4.45-1.69-3.13-.32-4.91,7.75-8.55,1.53-.69,6.91-3.79,8.74-4.92a40.18,40.18,0,0,0,5.51-4,29.55,29.55,0,0,0,2.48-2.4,10.78,10.78,0,0,0,2.06-2.57c.1-.22.16-.46.24-.68a11.52,11.52,0,0,0,.55-1.88c.13-.67.23-1.64.87-2a5.37,5.37,0,0,1,2.87-.31,21.34,21.34,0,0,1,3.09.47c1.79.42,3.82,1,4.42,3a5.61,5.61,0,0,1,0,2.61,11.47,11.47,0,0,1-.4,1.53,10.74,10.74,0,0,0,2.13-3.19,7.22,7.22,0,0,1,2.37-3A11.18,11.18,0,0,0,332,376.4,3.88,3.88,0,0,0,332.84,374.66Z" style="fill:#37474f"></path><path d="M293.65,395.46c10.12.81,13.24,7.09,13.62,11a24,24,0,0,1-7.2,1.44c-7,0-11.78-1.92-13.16-4.45C285.31,400.46,286.45,398.11,293.65,395.46Z" style="fill:#fafafa"></path><path d="M308.82,395.73a.56.56,0,0,0,.32-.11.5.5,0,0,0,.07-.7,11.9,11.9,0,0,0-9.11-3.7.49.49,0,0,0,.1,1,11,11,0,0,1,8.24,3.34A.54.54,0,0,0,308.82,395.73Z" style="fill:#f0f0f0"></path><path d="M313.21,393.23a.45.45,0,0,0,.31-.11.48.48,0,0,0,.08-.69,11.9,11.9,0,0,0-9.11-3.71.5.5,0,0,0,.09,1,11,11,0,0,1,8.25,3.34A.48.48,0,0,0,313.21,393.23Z" style="fill:#f0f0f0"></path><path d="M317.28,390.38a.51.51,0,0,0,.31-.11.49.49,0,0,0,.08-.7,11.89,11.89,0,0,0-9.11-3.7.49.49,0,0,0-.45.54.49.49,0,0,0,.54.44,11,11,0,0,1,8.25,3.34A.5.5,0,0,0,317.28,390.38Z" style="fill:#f0f0f0"></path><path d="M321.27,387.52a.5.5,0,0,0,.3-.11.48.48,0,0,0,.09-.69c-1.91-2.47-6.27-4.13-10-3.77a.51.51,0,0,0-.45.54.49.49,0,0,0,.54.45c3.31-.33,7.38,1.2,9.08,3.39A.51.51,0,0,0,321.27,387.52Z" style="fill:#f0f0f0"></path><path d="M378.21,425c.28,4.78,1,7.94,2.71,10.74s4.89,3.68,8.13,2.86,7.38-3,8.31-7.13,1.47-6.94.73-11.37Z" style="fill:#263238"></path><path d="M391.82,390.46c1.33.1,1.72,6.51,2.49,12.93.83,6.88,2.88,9.72,3.62,15.36.84,6.45-.23,9.32-2.49,13.22s-10.25,7.72-14.19,2.14c-3.21-4.55-3.34-9.59-3.05-16a144.09,144.09,0,0,0-.43-16.3c-.26-4.83-1.33-9.69-.17-10.23.09.71.18,1.61.27,2.3a11.79,11.79,0,0,0,.43,2.58c.14.35.44.73.56.15a4,4,0,0,0,0-1.2c-.2-1.78.7-1.93,1.18-2.06a59.08,59.08,0,0,1,6.19-.88c1-.07,4.53-.22,5,.36a4,4,0,0,1,.45,1.86c.11,1,.33,1.68.36,1.38a29.35,29.35,0,0,0-.09-2.94c0-.42-.08-1-.09-1.41S391.84,390.87,391.82,390.46Z" style="fill:#37474f"></path><path d="M398.3,422.49a16.05,16.05,0,0,1-2.5,9.79c-2.26,3.89-10.89,7.73-14.83,2.15-2-2.78-2.49-6.06-2.76-9.41C380.57,420.72,394.57,418.82,398.3,422.49Z" style="fill:#fafafa"></path><path d="M381.12,418a.53.53,0,0,0,.17,0s6.22-2.58,12.23-1.19a.49.49,0,1,0,.22-1c-6.35-1.47-12.65,1.15-12.88,1.26a.49.49,0,0,0,.26.93Z" style="fill:#f0f0f0"></path><path d="M393.22,412a.51.51,0,0,0,.42-.33.5.5,0,0,0-.31-.63c-6-2-12.61,1-12.86,1.14a.49.49,0,0,0-.21.67.5.5,0,0,0,.66.21c.06,0,6.53-3,12.09-1.08A.5.5,0,0,0,393.22,412Z" style="fill:#f0f0f0"></path><path d="M393,407.45a.49.49,0,0,0,.41-.32.5.5,0,0,0-.3-.64c-6.57-2.35-12.87,1-13.1,1.11a.49.49,0,0,0-.17.68.5.5,0,0,0,.68.17c.05,0,6.14-3.22,12.26-1A.42.42,0,0,0,393,407.45Z" style="fill:#f0f0f0"></path><path d="M392.68,403a.49.49,0,0,0,.12-.95c-6.16-2.31-12.94,1.09-13.19,1.24a.49.49,0,0,0-.18.68.48.48,0,0,0,.67.18c.06,0,6.64-3.32,12.36-1.18A.42.42,0,0,0,392.68,403Z" style="fill:#ebebeb"></path><path d="M375.19,190c6,10.94,10.44,19.87,11.05,52.38s1.39,48,1.51,52,2.41,10.93,4.42,30.24.16,41.92.16,41.92-1.91,3.5-9.3,4.16c-6.81.61-10.18-1.94-10.18-1.94s-9.34-37.6-11.92-49.23-11-56.31-11-56.31l-4.46,31s2.34,11.46-.53,28.4S337.8,356,337.8,356s-3.44,1.06-10.63,1c-5.82-.07-12.18-2.87-12.18-2.87s-1.55-49.17-1.55-68.37.62-72.49,7.36-95.43Z" style="fill:#455a64"></path><path d="M380.17,297.77s-3.74-3.91-10.94-3-10.13,5.11-10.13,5.11C366.81,296.36,380.17,297.77,380.17,297.77Zm-16.95,3.45c4.24.85,8.48,1.22,17.76-.61C376.58,299.54,363.22,301.22,363.22,301.22Z" style="fill:#ffa8a7"></path><path d="M313.45,288.66c0,.67,0,1.37,0,2.09a92,92,0,0,1,18.29.65C329.16,289.91,319.66,288,313.45,288.66Z" style="fill:#ffa8a7"></path><path d="M313.49,293.47q0,1,0,1.95c1.46-.08,10-.59,13.83-1.61C321.11,293.33,314.88,293.44,313.49,293.47Z" style="fill:#ffa8a7"></path><path d="M385.37,306.15c-1.88-9-2.74-27.17-2.71-42,0-4.49,0-9.14,0-14.07-.17-19.37-1.67-41-11.46-55l-.79.55C377,205,379.75,218,380.9,231.39c-9.72-1.29-11.85-10.89-14.75-24.11-.39-1.8-.8-3.67-1.25-5.59l-.94.22c.45,1.91.86,3.78,1.25,5.58,2.89,13.19,5.19,23.64,15.77,24.9.47,5.91.64,11.88.69,17.65.05,4.94,0,9.58,0,14.07,0,14.93.82,33.15,2.73,42.23.21,1,.44,2.08.68,3.19,2.51,11.61,6.28,29,4.41,59.34a10,10,0,0,0,1-.61c1.78-30-2-47.36-4.48-58.93C385.81,308.21,385.58,307.16,385.37,306.15Z" style="fill:#37474f"></path><path d="M350,263.15l-6.08-36.9s-12.84-.92-20-8.38c1.35,6.39,11.55,11.77,16.18,12.88l1.17,6.5c-.23,3.45-.48,7.08-.73,10.82-1.41,20.65-2.68,42-1.81,46.82,1.67,9.41.77,18.36-.87,30.5-1.49,11-3.85,24.53-5.26,31.45l1-.08c1.42-6.87,3.4-19,5.37-31.27s2.71-20.92.73-30.81c-1-4.7.49-26.92,1.83-46.54q.24-3.57.47-7L346.09,264l-.59,30.13Z" style="fill:#37474f"></path></g><g id="freepik--Top--inject-45"><g id="freepik--Hair--inject-45"><path d="M344.25,114.32c-.79-1.8-1.45-3.83-2.78-5.33s-3.14-2.33-4.71-3.49l-5-3.72c-6.11-4-7.86-13-5.58-17,5.28-9.33,17.58-11.71,24.11-11.5,12.39.38,18.13,4.08,18.86,10.58,3.79.34,5.83,2.3,7.61,5.14,2.18,3.5,2.7,9.88,1.45,13.91-.66,2.15-1.36,4.34-.66,6.6.8,2.57,3.3,3.89,5,5.73s3.37,4.58,2.93,7.27-2.74,4.76-1.66,7.58c.9,2.33,3.46,3.67,4.83,5.7a11.85,11.85,0,0,1,2.17,4.83,11.61,11.61,0,0,1-.94,7,6.53,6.53,0,0,1-2.73,3.25,20.93,20.93,0,0,1-5.37,1.67,20.68,20.68,0,0,1-11.55-1.4c-5.86-2.58-8.69-8.08-11-13.72a29.37,29.37,0,0,1-2.16-9.87c0-1.41.9-3.4.3-4.74s-3.59-2-4.91-2.69C350,118.85,345.46,117.1,344.25,114.32Z" style="fill:#37474f"></path><path d="M346.1,88.6c-.47-6-7.08-12-14.86-8.36s-7.84,12.6-5.54,17.46-4.11,8.11-4.47,13.15,4.63,8.59,2.3,11.39a2.42,2.42,0,0,1-4.35-2c-1.72,1.43-1.25,4.18.73,5.45a6.3,6.3,0,0,0,5.61.5c-3.5,2.93-6.39,4.66-6.41,8.52s3.56,7.63,9.65,7.76,18.21-2.1,20.39-7.29S346.1,88.6,346.1,88.6Z" style="fill:#263238"></path></g><path d="M266.35,157.48c3.08,1.88,3.53,3.55,6.81,10.46,3.58,7.57,8.07,12.19,10.24,13.32s8.11.15,18.1-5c12.14-6.2,24.05-13.33,24.05-13.33l6.92-28.18c-2.53.43-6.31.67-11,4.2-9.69,7.28-31.86,22.34-31.86,22.34s-1.82-1.61-3.85-3.46-3.94-3-3.68-4.25Z" style="fill:#ffa8a7"></path><path d="M289.61,161.33c2.94,2.52,5.21,5.66,5.43,9.29.85-3.2-1-8.28-4-10.3Z" style="fill:#f28f8f"></path><path d="M274.11,158.64c5.16-1.1,7.1-3.95,8.57-5.76s2.87-3.26,4.36-3.56a23,23,0,0,0,6.2-1.74,2.1,2.1,0,0,0-.31-4c-1.92-.66-3.63.28-5.64.88s-8.42.84-10.22-2.77-1.8-7.09-1.95-10.21.17-5.81-1.83-6.28-2,1.58-2.1,4,.08,7.32-.06,8.44-1,1.9-1.64.74a23.56,23.56,0,0,1-1.51-5.72c-.5-2.7-1-5.33-2.94-5s-1.56,2.53-1.25,4.51,1.16,6,1.35,7.09,0,2.52-1.25.79a34.38,34.38,0,0,1-2.64-4.76c-.77-1.51-1.47-3.39-3.09-2.68s-1.59,2.61-.75,4.44a53.05,53.05,0,0,0,3.52,5.79c.91,1.39,1.87,3.9-.27,2.57s-3-2.06-4-2.54-2.52.57-1.48,2.16,3.34,3,4,3.93a19.47,19.47,0,0,0,2.28,3.07c.91.92,1.75,3.19,3.57,4.54S268.94,159.73,274.11,158.64Z" style="fill:#ffa8a7"></path><path d="M273.86,130.93c.53-1.34.17-2.06-.68-2.05s-2-.41-1.89-1.58c-.06.58-.08,1.23-.1,1.92-.06,1.73,0,4.73,0,6.7h0C271.2,133.1,273.33,132.26,273.86,130.93Z" style="fill:#f28f8f"></path><path d="M264.66,140.85h0c.27.19,1.35.48,1.45-1.14a19.34,19.34,0,0,1,.79-5.55,4.29,4.29,0,0,0,.23-3c-.15-.38-.49.11-1.54.25a1.91,1.91,0,0,1-2-1.57,14.5,14.5,0,0,0,.23,2.39c.31,2,1.17,6,1.36,7.09C265.28,140.09,265.2,141.08,264.66,140.85Z" style="fill:#f28f8f"></path><path d="M261.19,140.45c.05-.42,1.12-1.29.84-1.67s-.82-.05-1-.33a19.12,19.12,0,0,1-.19-2.52c-.15-.81-.53-.85-1.27-.15s-2.38.09-2.67-.52a6.17,6.17,0,0,0,.54,1.82,53.05,53.05,0,0,0,3.52,5.79c.62.94,1.26,2.41.93,2.83h0c.78-.4,1.33-2.23.79-2.9S261.14,140.86,261.19,140.45Z" style="fill:#f28f8f"></path><path d="M291.42,148.33c-2.92.7-4.72-.25-6.79.76s-4.84,3.76-8.23,5.82-7.1,2.38-8.62,1.71-5.67-4.15-3.74-5.63,4.5-3.9,5.11-5.71c-1.81,2.44-5.09,5.1-6.24,5.48a1.48,1.48,0,0,1-2-1.17c0-.72.71-1.46.48-1.69s-.86.07-1.34-.15-1.64-1.16-1.59-2-.34-1.59-.83-1.16-1.4,1.12-2.15.78c1.11,1.47,3.15,2.74,3.73,3.61a19.47,19.47,0,0,0,2.28,3.07c.91.92,1.75,3.19,3.57,4.54s3.91,3.13,9.08,2,7.1-3.95,8.57-5.76,2.87-3.26,4.36-3.56A37.91,37.91,0,0,0,291.42,148.33Z" style="fill:#f28f8f"></path><path d="M276.3,145.55a3.33,3.33,0,0,0-1,.71c-.32.3-.65.6-.94.92a13.57,13.57,0,0,0-3.43,7.39,11.38,11.38,0,0,0,.09,3.19c.07.38.73.22.66-.17a11.73,11.73,0,0,1,1-6.8,14.59,14.59,0,0,1,1.62-2.68c.31-.41.62-.81.94-1.21a7.82,7.82,0,0,0,1-1.25S276.35,145.53,276.3,145.55Z" style="fill:#f28f8f"></path><path d="M384.5,212.59c-2.11-11-8.19-21.86-7.56-27.28,1-8.34,5.65-18.06,5.89-23.82.84-20.49-5.6-22.73-8.49-25.18,0,0-6.56-1.42-10.16-2.27-2.16-.52-6.47-1.11-6.47-1.11-3.31-.11-10,0-12.77.27a36,36,0,0,1-3.78,0c-2.89.55-8.68,1.56-8.69,1.57a62.28,62.28,0,0,0-12.27,12.79c-6.39,8.64-8.84,18.95.41,26.63,0,0,.43,8.08.35,11.69-.37,5.2-3.83,17.07-4.65,27.5C330.53,226.55,368.51,226.24,384.5,212.59Z" style="fill:#BA68C8"></path><g id="freepik--Head--inject-45"><path d="M362,129.93c.07-2,.83-12.23.83-12.23.05.76,3.66,3,7.15-.78s3.26-9.5.89-11.84c-3.65-3.61-9.15-.68-9.92,4.27-2.91,1.46-3.82-2.12-1.84-6.12-.14-3.3-3.54-3.83-3.11-11-.29-3.57-5.65-6.19-9.93-3.64-2.68-3.4-9.52-3.9-12.61,1.61-2,4.1-2.59,4.21-2.23,9.41.12,1.84-1.42,4-1.64,6.48-.93,10.82,1.9,16,5.29,18,2.27,1.32,4.24,1.87,8.31,2l-.34,3.39h0c-.15,1.7,0,3.24-1.72,3.72-.74,1.09-2.62,8.9,3.18,14.36,11.12-2.4,19.94-11.68,20.74-13.33C362.36,133.27,362,132,362,129.93Z" style="fill:#ffa8a7"></path><path d="M345.05,114.12l-5.63,1.27a2.83,2.83,0,0,0,3.39,2.27A3,3,0,0,0,345.05,114.12Z" style="fill:#b16668"></path><path d="M344.59,115.35a3.18,3.18,0,0,0-3.38,2.2,2.79,2.79,0,0,0,1.6.11,3,3,0,0,0,2.2-2.22C344.87,115.41,344.74,115.37,344.59,115.35Z" style="fill:#f28f8f"></path><path d="M332.77,97.62l4.52-.81a2.21,2.21,0,0,0-2.59-1.89A2.41,2.41,0,0,0,332.77,97.62Z" style="fill:#263238"></path><path d="M352.59,100.78l-4-2.32a2.24,2.24,0,0,1,3.11-.92A2.45,2.45,0,0,1,352.59,100.78Z" style="fill:#263238"></path><path d="M337.09,101.57a2,2,0,0,1-1.94,1.93,1.85,1.85,0,0,1-1.9-1.86,2,2,0,0,1,1.94-1.93A1.84,1.84,0,0,1,337.09,101.57Z" style="fill:#263238"></path><path d="M350.51,103.75a2,2,0,0,1-1.94,1.93,1.85,1.85,0,0,1-1.9-1.86,2,2,0,0,1,1.94-1.93A1.84,1.84,0,0,1,350.51,103.75Z" style="fill:#263238"></path><path d="M334.91,109.49l5.7,2.48,2.23-10.69C340.44,101.15,337.7,105,334.91,109.49Z" style="fill:#f28f8f"></path><path d="M343.22,126.11c5.42,0,9.24-.9,11.69-2.45a13.32,13.32,0,0,0,4.47-4.55s-1.17,4-3.89,6C350.44,129,343,128.67,343,128.67Z" style="fill:#f28f8f"></path></g><path d="M408.41,194c1.79-3.75-2.05-13.51-5.77-21s-12.76-25.34-15.59-29.87c-2.35-3.77-4.44-5.05-12.71-6.77a29.27,29.27,0,0,0-1.16,26.12l16,28.17Z" style="fill:#ffa8a7"></path><path d="M401.86,184.75c-3.57-3-7.62-5.4-18.19-3.82l5.49,9.67L403.05,193Z" style="fill:#f28f8f"></path><path d="M314.35,141.72c10.09-.31,22.07-2.12,29.23-4.86,9.17-3.51,13.83-8.84,13.83-8.84l5.86,41.13a23.86,23.86,0,0,1-9.86,6.48c-5.65,1.89-8.85,1.8-14.26,1.6a41.73,41.73,0,0,0-9.74.79s.13-2.71-2.55-7.71S315.94,152.86,314.35,141.72Z" style="fill:#f5f5f5"></path><path d="M329.11,178.37V178s.09-2.71-2.51-7.55c-.46-.87-1.1-2-1.83-3.24-3.51-6.06-9.39-16.19-10.71-25.45l0-.32h.31c10.69-.32,22.4-2.26,29.14-4.83a37.27,37.27,0,0,0,13.72-8.77l.4-.46,6,41.87-.08.1a24.64,24.64,0,0,1-10,6.56c-5.79,1.93-9.2,1.81-14.36,1.61a42.43,42.43,0,0,0-9.67.78ZM314.68,142c1.39,9.07,7.14,19,10.58,24.94.74,1.27,1.38,2.38,1.85,3.25,2.16,4,2.52,6.59,2.57,7.49a43.48,43.48,0,0,1,9.48-.72c5.28.19,8.47.31,14.16-1.59a24,24,0,0,0,9.66-6.29l-5.77-40.44a38.84,38.84,0,0,1-13.53,8.49C337,139.69,325.34,141.64,314.68,142Z" style="fill:#ebebeb"></path><path d="M357,194.16a50.41,50.41,0,0,0,12.23,4.46c5.71,1.32,17.68,3.53,27.47,2.13,4.5-.64,9.93-3.35,11.67-6.76,1-2-1.6-8.28-9.87-10.46s-13-.3-19.92.6c-6.26.82-10.39.14-12.05-2.54Z" style="fill:#ffa8a7"></path><path d="M366.57,181.59,357,194.16a50.41,50.41,0,0,0,12.23,4.46c1.27.29,2.84.63,4.62,1,0,0-5.69-1.53-6.9-4s-.56-4.31,0-6.83Z" style="fill:#f28f8f"></path><path d="M363.21,193.66a8.18,8.18,0,0,0,3.88-5.5,12.59,12.59,0,0,0-1.49-8.68c-.9-1.63-2.85-5.31-4.84-6.13s-4.88-.79-7.12-1-6.23-.93-8.66-.53c-2.6.44-2.28,2.87-.05,3.72,0,0-1,2.36.62,3.62,1.46,1.14,7.78,2.72,8.72,3.14s-4.4-.44-5.6-.36-2.05,2.08-1.2,3.39c-1.4.2-1.68,1.89-.64,3.06s7.26,3.73,8.56,4.73c2.41,1.85,4.27,2.14,7,1C362.66,194,362.94,193.81,363.21,193.66Z" style="fill:#ffa8a7"></path><path d="M357.87,177.88c-1.1,0-2.2-.08-3.29-.17-.55-.05-1.1-.1-1.65-.18s-1.09-.21-1.63-.32q-1.6-.33-3.21-.72a21.76,21.76,0,0,1-3.16-1c1.08.2,2.17.33,3.25.53s2.16.38,3.24.61L353,177c.53.1,1.08.17,1.62.26C355.71,177.45,356.8,177.64,357.87,177.88Z" style="fill:#f28f8f"></path><path d="M347.47,185.31a27.77,27.77,0,0,1,7.43,2.79,28.11,28.11,0,0,1-7.43-2.79Z" style="fill:#f28f8f"></path><path d="M354,176.16a2.57,2.57,0,0,1-1.66,1s2.51.37,3.34.46,3.94.39,4.72.58,2.28,2.17,1.81,3.52c-.59,1.72-1.73,1.46-2.05,2.22s.82,1.62.41,2.84c-.65,1.89-2.3,1.37-2.71,2.19s.51,2.18-.8,3.3a2.1,2.1,0,0,1-2.42.37c.3.18.55.33.72.46,2.41,1.85,4.27,2.14,7,1,.3-.13.58-.28.85-.43a8.18,8.18,0,0,0,3.88-5.5,12.59,12.59,0,0,0-1.49-8.68c-.9-1.63-2.85-5.31-4.84-6.13s-4.88-.79-7.12-1A2.78,2.78,0,0,1,354,176.16Z" style="fill:#f28f8f"></path></g></g></g><g id="freepik--character-1--inject-45"><g id="freepik--character--inject-45"><g id="freepik--bottom--inject-45"><path d="M106.59,387c.71-11.72,1.08-17.2,2-38.13h0c.06-5.36.2-11.1.52-16.21,1.07-17.18,3.25-21.28,4.67-27.19s2.53-16.92,4.48-53.86a190.61,190.61,0,0,1,6.47-41.77l52.88-.43c5.63,23.1,7.58,73.21,7.62,97.07,0,12.16.4,75,.74,80a16.92,16.92,0,0,0,5.18,10.85c4.4,4.64,7.54,6.51,13,10.54-.77,2.09-12.22,2.11-15.48.55A121.67,121.67,0,0,1,175,400.49c-4.51-3.29-5.58-5.29-5.7-10.34a13.63,13.63,0,0,1,0-1.65c-.11-2.95-9-46.91-10.92-56.84-1.51-7.71,0-22.68,0-22.68l-5.9-36.74s-6.12,24.47-9.38,39.37c-2.39,10.94-8.39,28.26-12.27,45.77h0c-4.55,17.81-4.91,19.37-7.57,32.12-1.35,6.43-4.59,28-6.1,32.47-4.91,14.37-16.33,7.35-17-.57C99.63,416.14,106.44,389.48,106.59,387Z" style="fill:#c8856a"></path><path d="M216.36,413.67c.3,0,.81,3.26-.78,4.68-1.83,1.64-7.23,4.37-14.46,3.58S190,419,187,416.61s-7-5.69-10.32-6.34c-3-.61-8-2.23-9-3.15s-.93-5.08-.93-5.08Z" style="fill:#263238"></path><path d="M169.22,387.39a2.21,2.21,0,0,0-1.14,1.44c-.2,1.15-.18,2.62-.62,4.51a34,34,0,0,0-.52,10.13c.44,2.13,7.05,3.82,10.23,5a40.33,40.33,0,0,1,10.35,6.26c3.44,2.73,10.62,5.4,15.32,5.38C210,420,214.62,418,216,415.4c1.71-3.22.77-6.51-7.55-10.18-1.57-.69-7.11-3.83-9-5a42.34,42.34,0,0,1-5.69-4.07,32.92,32.92,0,0,1-2.57-2.44,11.39,11.39,0,0,1-2.13-2.63c-.1-.22-.17-.47-.26-.69a11.86,11.86,0,0,1-.57-1.93c-.15-.68-.25-1.68-.91-2.07s-10.86,1.81-11.56,3a6,6,0,0,0-.62,3c0,.48,0,1,0,1.45,0,.2.1.57-.19.49s-.6-.79-.71-1c-.24-.53-.39-1.11-.65-1.63a5.07,5.07,0,0,0-1.06-1.73c-1.4-1.13-2.72-.88-3.12-1.26C169.43,388.67,169.27,387.8,169.22,387.39Z" style="fill:#37474f"></path><path d="M208.92,405.43c-10.37.91-13.12,9.25-13.48,13.23a24.55,24.55,0,0,0,7.4,1.41c7.18,0,12.08-2.07,13.46-4.67C217.92,412.36,216.33,408.08,208.92,405.43Z" style="fill:#fafafa"></path><path d="M193.76,407.7a.57.57,0,0,1-.33-.11.51.51,0,0,1-.08-.71c1.41-1.8,6-5.69,9.8-5.35a.5.5,0,0,1,.46.55.51.51,0,0,1-.55.46c-3.53-.31-7.79,3.54-8.91,5A.54.54,0,0,1,193.76,407.7Z" style="fill:#f0f0f0"></path><path d="M189.23,405.18a.56.56,0,0,1-.32-.11.51.51,0,0,1-.08-.72c1.41-1.79,6-5.69,9.8-5.34a.51.51,0,0,1,.46.55.51.51,0,0,1-.55.46c-3.53-.32-7.8,3.54-8.92,5A.5.5,0,0,1,189.23,405.18Z" style="fill:#f0f0f0"></path><path d="M185,402.28a.56.56,0,0,1-.32-.11.5.5,0,0,1-.08-.71c1.41-1.8,6-5.7,9.8-5.35a.51.51,0,1,1-.09,1c-3.53-.31-7.8,3.54-8.92,5A.5.5,0,0,1,185,402.28Z" style="fill:#f0f0f0"></path><path d="M180.92,399.38a.48.48,0,0,1-.32-.11.51.51,0,0,1-.1-.71c1.95-2.55,6.89-5.76,10.67-5.41a.5.5,0,0,1,.46.55.51.51,0,0,1-.55.46c-3.4-.31-8.05,2.76-9.77,5A.52.52,0,0,1,180.92,399.38Z" style="fill:#f0f0f0"></path><path d="M118.71,423.61c-.78,4.83-1.87,8-3.89,10.66s-5.37,3.24-8.58,2.06-7.21-3.84-7.73-8.13-.77-7.23.44-11.67Z" style="fill:#263238"></path><path d="M106.59,387c-1.37,0-1.67,6.45-3.13,12.92-1.56,6.92-2.85,9.6-4.19,15.27-1.53,6.48-.75,9.53,1.15,13.74s9.64,8.94,14.24,3.66c3.75-4.3,4.41-9.43,4.78-16a95.63,95.63,0,0,1,2.6-16.37c1.11-5.24,2.32-10,1.2-10.66a48.44,48.44,0,0,1-1.35,5.22c-.18.35-.8,1.21-.87-.18,0-.41.21-1.34.21-1.75a1.74,1.74,0,0,0-1.07-1.7,13.18,13.18,0,0,0-5.66-1.86c-2.66-.29-4.94-.61-6.5,0-.94.37-1,1.22-1.18,2-.22,1-.3,1.58-.52,1.36C105.85,392.17,106.66,387.68,106.59,387Z" style="fill:#37474f"></path><path d="M98.5,418.92A16.5,16.5,0,0,0,100,429.16c1.89,4.21,10.3,9,14.89,3.75,2.29-2.63,3.17-5.92,3.8-9.31C116.75,419,102.68,415.58,98.5,418.92Z" style="fill:#fafafa"></path><path d="M116.47,416.16l-.16-.07s-6.07-3.27-12.34-2.49a.5.5,0,1,1-.13-1c6.63-.83,12.77,2.49,13,2.63a.5.5,0,0,1,.17.69A.52.52,0,0,1,116.47,416.16Z" style="fill:#f0f0f0"></path><path d="M104.78,408.74a.52.52,0,0,1-.4-.38.51.51,0,0,1,.38-.61c6.31-1.44,12.76,2.35,13,2.51a.5.5,0,1,1-.56.84c-.06,0-6.34-3.71-12.21-2.36Z" style="fill:#f0f0f0"></path><path d="M105.46,404.14a.49.49,0,0,1-.39-.37.51.51,0,0,1,.37-.61c7-1.72,13,2.33,13.25,2.5a.5.5,0,1,1-.61.8s-5.92-3.91-12.39-2.32A.45.45,0,0,1,105.46,404.14Z" style="fill:#f0f0f0"></path><path d="M106.26,399.63a.48.48,0,0,1-.38-.36.5.5,0,0,1,.36-.62c6.52-1.71,13.07,2.47,13.32,2.65a.51.51,0,0,1,.11.7.5.5,0,0,1-.71.12s-6.41-4.08-12.47-2.49A.45.45,0,0,1,106.26,399.63Z" style="fill:#ebebeb"></path><path d="M120.55,209.84c-1.87,14.45-2.46,18-4.36,50.17-1.83,31.2-2,35.77-2.24,39.53-.64,8.63-4.43,11.63-5.38,32-.87,18.64-1.29,41.62-1.29,41.62s2.54,3.42,9.64,4c6.55.54,9.8-1.95,9.8-1.95s11.78-43.52,15.08-54.48c4.48-14.88,10.72-41,10.72-41L157,309.49s-1.26,14.29,1.62,27.75c3.57,16.69,7.23,34.83,7.23,34.83a22.26,22.26,0,0,0,9.87,1.14c7.65-.83,10.2-2.63,10.2-2.63s1.74-50.53,1.58-69-.75-63.6-2.06-92.3Z" style="fill:#455a64"></path><path d="M152.52,279.71l5-32.31s10.66-2.91,17.45-10.14c-.46,5.35-9.9,12.29-14.34,13.39L155,279.3,157,309.49Z" style="fill:#37474f"></path><path d="M139.58,214.68a44.27,44.27,0,0,0-3.93,8.5,83.26,83.26,0,0,0-2.6,9c-.67,3-1.23,6.11-1.61,9.21a62,62,0,0,0-.54,9.34c.72-3,1.39-6.06,2-9.08s1.32-6,2-9,1.4-6,2.14-9S138.68,217.67,139.58,214.68Z" style="fill:#37474f"></path><path d="M135.52,215.84a33.84,33.84,0,0,0-4.19,4.77A45.15,45.15,0,0,0,128,226a39.57,39.57,0,0,0-2.56,5.81A25.48,25.48,0,0,0,124,238l2.8-5.61c.94-1.84,1.88-3.67,2.87-5.48s2-3.64,2.95-5.47S134.61,217.77,135.52,215.84Z" style="fill:#37474f"></path><path d="M142.6,253.11c-1.27,9.68-2.4,19.38-3.53,29.06s-3.41,20.38-5.11,29.95-12.69,47.09-14.09,56.75c2.15-9.52,14.22-46.78,16-56.41s3.83-20.4,4.7-30.13S142.09,262.86,142.6,253.11Z" style="fill:#37474f"></path><path d="M177.33,252.83l1.8,25.43c.27,4.24.58,8.47.81,12.71s.51,8.48.48,12.66,0,44.84.66,53.34c.92-9.48,1.08-44.76,1.3-53.32-.1-8.6-.89-17-1.72-25.52S178.71,261.22,177.33,252.83Z" style="fill:#37474f"></path><path d="M165.06,368l1.51,8.83s3.56,2.23,11,1.4S186,375,186,375l-.07-8.32s-1.77,1.74-8.55,2.56A29.17,29.17,0,0,1,165.06,368Z" style="fill:#37474f"></path><path d="M107.38,367l-.58,8.94s2.94,3,10.36,3.93,9-1.17,9-1.17l1.88-8.11s-2.13,1.28-8.91.5A29.23,29.23,0,0,1,107.38,367Z" style="fill:#37474f"></path></g><g id="freepik--top--inject-45"><path d="M173.52,133.52c10.34,2.33,15.18,2.51,23.36,14.94,9,13.6,20.72,32.49,22.42,40.61l-20,4.34-18.59-26.56Z" style="fill:#37474f"></path><g id="freepik--Chest--inject-45"><g id="freepik--chest--inject-45"><path d="M118.54,139.46A62.29,62.29,0,0,0,116,164.68c.93,9.32,2.39,14.8,3,29.37.47,10.41-.47,31.21-.47,31.21,10.69,9.09,57,11.73,68-1.92V182.68c0-13.19-.36-23.49-1.86-29.71-3.38-14.08-8.3-17.32-11.15-19.45a92.85,92.85,0,0,0-25.43-3C134.23,131.08,118.54,139.46,118.54,139.46Z" style="fill:#fafafa"></path></g><path d="M202.21,173.3c-3.62-2.67-5.29-3.15-8.66-7.78a44.73,44.73,0,0,0-9.09-9.28c-2.64-2.13-4.15-5.61-5.55-7.12-1-1-2.52.71-2.39,3.36.08,1.83,1.23,4,2.91,6.12s.71,1.88-1.59,1.45a56.62,56.62,0,0,0-10.75-.35c-2.38.26-4.73,1-4.52,2.56,0,0-3.72-.51-4.12,1.5s2.31,3.59,2.31,3.59-.48,2.14,2.33,3.27c1.58.64,4.59.95,6.31,1.49,2,.61,4,1.5,4,1.5a55.72,55.72,0,0,0-6.62-.18c-2.41.22-1.79,2.63.85,3.89s9.47,1.5,11.73,2.58a19.47,19.47,0,0,0,8.3,1.82c3.19,0,3.62.62,5,2.25a94.62,94.62,0,0,1,6.54,9.44c2.37,3.76,4.95,7.05,10.08,8.15,6.67,1.42,8.77-.92,9.49-2.43s1-6.2.65-9-2.77-7.32-8.2-10.79S204.84,175.24,202.21,173.3Z" style="fill:#c8856a"></path><path d="M179.43,158.6c1,1.31,1.06,1.72.43,1.75h0c.9.08,2.67.5,2.94-.23s-1.39-1.85-3-3.18a11.45,11.45,0,0,1-3.24-4.46C176.6,154.31,177.75,156.46,179.43,158.6Z" style="fill:#af6152"></path><path d="M162.57,162.26a49,49,0,0,1,8.91.18,32.07,32.07,0,0,1,4.43.82,38.83,38.83,0,0,1,4.28,1.28c-1.49-.1-3-.26-4.44-.47s-2.93-.45-4.36-.57-2.95-.31-4.42-.53S164.05,162.51,162.57,162.26Z" style="fill:#af6152"></path><path d="M160.76,167.35a1.12,1.12,0,0,1,.17-.6,1.37,1.37,0,0,1,.51-.42,4.23,4.23,0,0,1,1.25-.3,13.65,13.65,0,0,1,2.48.05c1.61.14,3.23.33,4.84.58.8.14,1.61.28,2.41.47s1.6.48,2.35.73c1.54.49,3.08,1,4.6,1.61a45.56,45.56,0,0,1-4.81-.82c-.82-.16-1.58-.41-2.35-.54s-1.57-.28-2.37-.4c-1.59-.26-3.19-.49-4.79-.79a19.24,19.24,0,0,0-2.36-.36C162,166.5,161,166.48,160.76,167.35Z" style="fill:#af6152"></path><path d="M178.22,174.08s-2.61-.7-4.09-1.16-5.87-1.11-5.87-1.11h0a11.3,11.3,0,0,1,1.12.29c2,.61,4,1.5,4,1.5A45.17,45.17,0,0,1,178.22,174.08Z" style="fill:#af6152"></path></g><polygon points="162.48 185.31 154.47 238.92 194.15 232.83 202.32 180.3 162.48 185.31" style="fill:#f5f5f5"></polygon><path d="M154.13,239.25l8.1-54.2.21,0L202.66,180l-8.27,53.1Zm8.59-53.69-7.92,53,39.1-6,8.09-52Z" style="fill:#ebebeb"></path><path d="M179.88,217.11a2.28,2.28,0,0,0-.93-1.57,3.34,3.34,0,0,0-1.49-.56,12.26,12.26,0,0,0-2.77.13c-.85.09-1.69.21-2.54.33a53,53,0,0,1-5.48.58,22.79,22.79,0,0,1-6.51-.4c-.74-.2-2.1-.63-2-1.6l-2.61,17.45a35.2,35.2,0,0,0,4.87.33c.85,0,1.69,0,2.54-.07a42.51,42.51,0,0,0,6.3-.62,17.25,17.25,0,0,0,2.72-1.19,6.38,6.38,0,0,0,2.45-2,2.27,2.27,0,0,0,.33-1.18,10.59,10.59,0,0,0,3.73-3.14,2.22,2.22,0,0,0,.29-1.62l1.11-.54a10.67,10.67,0,0,0,2.24-1.29c.58-.48-.1-1.68-.59-2.06a3,3,0,0,0-1.68-.63A1.87,1.87,0,0,0,179.88,217.11Z" style="fill:#c8856a"></path><path d="M162,221.71c1.66-.15,3.32-.22,5-.33.82,0,1.65-.11,2.46-.19a14.69,14.69,0,0,0,2.37-.54c1.59-.44,3.17-1,4.74-1.45.79-.26,1.57-.54,2.33-.85a1.35,1.35,0,0,0,.88-.71,1.52,1.52,0,0,0-.05-1.18,1.51,1.51,0,0,1,.2,1.23,1.47,1.47,0,0,1-.35.57,3.45,3.45,0,0,1-.55.36,21.42,21.42,0,0,1-2.28,1.06,43.38,43.38,0,0,1-4.73,1.65,12.52,12.52,0,0,1-2.49.55c-.85.07-1.68.08-2.52.09C165.31,222,163.64,221.89,162,221.71Z" style="fill:#af6152"></path><path d="M178.81,222a34.69,34.69,0,0,1-4.06,2.56,13.11,13.11,0,0,1-2.25.92,10.22,10.22,0,0,1-2.42.37c-1.6.09-3.2.11-4.79.06s-3.18-.11-4.77-.27c1.59-.12,3.18-.19,4.76-.26s3.18-.13,4.75-.24a11.92,11.92,0,0,0,4.48-1.11C176,223.37,177.35,222.6,178.81,222Z" style="fill:#af6152"></path><path d="M174.79,226.71a10.66,10.66,0,0,1-2.83,1.65,11.14,11.14,0,0,1-3.22.67c-1.08.08-2.16.11-3.24.12s-2.15,0-3.23-.1c2.13-.35,4.28-.53,6.41-.72a16.94,16.94,0,0,0,3.09-.54A30.37,30.37,0,0,0,174.79,226.71Z" style="fill:#af6152"></path><path d="M121.71,138.38c-10,3.48-12.56,4.08-15.5,16-2,8.28-6.44,29.21-8.74,41.6-2,10.53-2.33,14.51,7.16,19.46,10,5.23,29.46,9.6,36.14,12.06a58.85,58.85,0,0,0,15.17,3.93l1.79-13.95,1.05-7.49c-4.57.15-8.29,1.58-12.33,1.33-5.06-.3-29-13.84-29-13.84l8.7-32.61S132.87,147.18,121.71,138.38Z" style="fill:#c8856a"></path><path d="M121.66,137.94c-11.6,3.06-12.85,7-14.75,12.16s-4.83,18.46-8,34.76-4.91,23.06-1.55,27,23.51,9.77,23.51,9.77a27.49,27.49,0,0,1,2.82-12.43c3.07-5.7,7.89-4.14,7.89-4.14l-12-7.11,8.59-29.9S133.55,142.12,121.66,137.94Z" style="fill:#37474f"></path><g id="freepik--head--inject-45"><path d="M139,123.85c-4.25-7-8.23-11.44-11.2-19.14-1.21-3.12-3-10.3-1.43-14.5,1.12-2.92,2.88-5.24,6-5.36-.89-4,1-6.52,2.61-8.29a6.47,6.47,0,0,1,6.65-1.66A5.54,5.54,0,0,1,151,71.48a5.85,5.85,0,0,1,5.68-3.25,6.38,6.38,0,0,1,5.59,4.07,10.1,10.1,0,0,1,6.13-2.75A5.91,5.91,0,0,1,174,72.71c.92,2,.33,4.38-.3,6.51a3.35,3.35,0,0,1,5.41,3,9.42,9.42,0,0,0-.41,2.54,2,2,0,0,0,3.47,1,4.14,4.14,0,0,1-4.7,5.19,3.21,3.21,0,0,1-1.13,3.23,3.72,3.72,0,0,1-2.66.58Z" style="fill:#263238"></path><path d="M173.83,115.74c-1,5.71-3.13,8.41-6.93,9.92a19,19,0,0,1-6.34.88l-.39,4.68c11.74,13-17.22,12.61-22.94,1.11l1.31-16.55s-2.29,3-6.52.55a8.87,8.87,0,0,1-3.42-10.69c1.75-4.37,5.89-2.86,7.21-1.64s2.85,3.29,3.93,3.15c1.67-.22,2-1.64,2.35-2.7a23,23,0,0,0,.81-8.33c1.09-.64,2.6-1.27,3-2.62,1.48-4.9-.24-6.3-1.29-8.36,4.23-3.13,10.92,1.89,15.83,2.28,5.61.46,6.73-2.8,9.78-2.55a27.24,27.24,0,0,1,3.15,9.67C174.32,100.94,175.15,107.93,173.83,115.74Z" style="fill:#c8856a"></path><path d="M160.56,126.55h0c-4.48,0-13.57-1.51-16.11-3.86s-3.86-7.37-3.86-7.37.75,6.41,2.77,9.14,6.75,3.67,9.63,4.2a65.68,65.68,0,0,0,7.34.69Z" style="fill:#af6152"></path><path d="M155.92,113.58l5.76,1.43a2.92,2.92,0,0,1-3.54,2.27A3.11,3.11,0,0,1,155.92,113.58Z" style="fill:#af6152"></path><path d="M156.36,114.86a3.28,3.28,0,0,1,3.43,2.33,2.88,2.88,0,0,1-1.65.09,3.05,3.05,0,0,1-2.21-2.33A3,3,0,0,1,156.36,114.86Z" style="fill:#ffa8a7"></path><path d="M171.48,97.09l-4-2.2a2.19,2.19,0,0,1,3-1A2.4,2.4,0,0,1,171.48,97.09Z" style="fill:#263238"></path><path d="M150.59,98.21l3.83-2.59a2.22,2.22,0,0,0-3.15-.68A2.43,2.43,0,0,0,150.59,98.21Z" style="fill:#263238"></path><path d="M166.75,100.87a2,2,0,0,0,1.88,2,1.84,1.84,0,0,0,1.93-1.81,2,2,0,0,0-1.89-2A1.83,1.83,0,0,0,166.75,100.87Z" style="fill:#263238"></path><path d="M152.8,101.69a2,2,0,0,0,1.88,2,1.84,1.84,0,0,0,1.93-1.81,2,2,0,0,0-1.89-2A1.83,1.83,0,0,0,152.8,101.69Z" style="fill:#263238"></path><path d="M168.28,108.8l-6,2.74-2.53-11.87C161.91,99.06,165.83,104.78,168.28,108.8Z" style="fill:#af6152"></path></g></g></g></g><g id="freepik--speech-bubble--inject-45"><g id="freepik--speech-bubble--inject-45"><path d="M306.12,77.89c0-13.84-15.65-25-34.95-25s-35,11.21-35,25,15.65,25,35,25c1.16,0,2.31,0,3.44-.12,3.82,7.17,10.31,8.41,15.36,7.83a9.46,9.46,0,0,1-5.4-9.62C297.23,97.25,306.12,88.31,306.12,77.89Z" style="fill:#fff"></path><path d="M287.84,111.13a14.59,14.59,0,0,1-13.44-7.94c-1.09.07-2.18.1-3.23.1-19.48,0-35.33-11.39-35.33-25.4s15.85-25.41,35.33-25.41,35.32,11.4,35.32,25.41c0,10.25-8.46,19.42-21.57,23.41a9.11,9.11,0,0,0,5.2,9,.38.38,0,0,1,.21.39.38.38,0,0,1-.32.31A20.1,20.1,0,0,1,287.84,111.13Zm-13.23-8.69a.37.37,0,0,1,.32.2,14.06,14.06,0,0,0,13.78,7.74,9.93,9.93,0,0,1-4.5-9.4.36.36,0,0,1,.26-.31c12.93-3.85,21.29-12.8,21.29-22.78,0-13.61-15.52-24.68-34.59-24.68s-34.6,11.07-34.6,24.68,15.52,24.68,34.6,24.68c1.11,0,2.26,0,3.41-.13Z" style="fill:#BA68C8"></path><path d="M259.48,78.6A3.56,3.56,0,1,1,255.92,75,3.56,3.56,0,0,1,259.48,78.6Z" style="fill:#BA68C8"></path><path d="M274.72,78.6A3.56,3.56,0,1,1,271.17,75,3.55,3.55,0,0,1,274.72,78.6Z" style="fill:#BA68C8"></path><path d="M290,78.6A3.56,3.56,0,1,1,286.41,75,3.55,3.55,0,0,1,290,78.6Z" style="fill:#BA68C8"></path><g style="opacity:0.30000000000000004"><path d="M259.48,78.6A3.56,3.56,0,1,1,255.92,75,3.56,3.56,0,0,1,259.48,78.6Z" style="fill:#fff"></path><path d="M274.72,78.6A3.56,3.56,0,1,1,271.17,75,3.55,3.55,0,0,1,274.72,78.6Z" style="fill:#fff"></path><path d="M290,78.6A3.56,3.56,0,1,1,286.41,75,3.55,3.55,0,0,1,290,78.6Z" style="fill:#fff"></path></g></g></g></svg>