<svg xmlns="http://www.w3.org/2000/svg" viewBox="0 0 500 500"><g id="freepik--background-complete--inject-16"><rect y="382.4" width="500" height="0.25" style="fill:#ebebeb"></rect><rect x="416.78" y="398.49" width="33.12" height="0.25" style="fill:#ebebeb"></rect><rect x="322.53" y="401.21" width="8.69" height="0.25" style="fill:#ebebeb"></rect><rect x="396.59" y="389.21" width="19.19" height="0.25" style="fill:#ebebeb"></rect><rect x="52.46" y="390.89" width="43.19" height="0.25" style="fill:#ebebeb"></rect><rect x="104.56" y="390.89" width="6.33" height="0.25" style="fill:#ebebeb"></rect><rect x="131.47" y="395.11" width="93.68" height="0.25" style="fill:#ebebeb"></rect><path d="M237,337.8H43.91a5.71,5.71,0,0,1-5.7-5.71V60.66A5.71,5.71,0,0,1,43.91,55H237a5.71,5.71,0,0,1,5.71,5.71V332.09A5.71,5.71,0,0,1,237,337.8ZM43.91,55.2a5.46,5.46,0,0,0-5.45,5.46V332.09a5.46,5.46,0,0,0,5.45,5.46H237a5.47,5.47,0,0,0,5.46-5.46V60.66A5.47,5.47,0,0,0,237,55.2Z" style="fill:#ebebeb"></path><path d="M453.31,337.8H260.21a5.72,5.72,0,0,1-5.71-5.71V60.66A5.72,5.72,0,0,1,260.21,55h193.1A5.71,5.71,0,0,1,459,60.66V332.09A5.71,5.71,0,0,1,453.31,337.8ZM260.21,55.2a5.47,5.47,0,0,0-5.46,5.46V332.09a5.47,5.47,0,0,0,5.46,5.46h193.1a5.47,5.47,0,0,0,5.46-5.46V60.66a5.47,5.47,0,0,0-5.46-5.46Z" style="fill:#ebebeb"></path><rect x="90.4" y="126.08" width="112.19" height="124.08" transform="translate(292.99 376.24) rotate(180)" style="fill:#e0e0e0"></rect><rect x="86.82" y="126.08" width="116.36" height="124.08" transform="translate(290 376.24) rotate(180)" style="fill:#f0f0f0"></rect><rect x="91.74" y="130.04" width="106.7" height="114.42" transform="translate(290.19 374.5) rotate(180)" style="fill:#fff"></rect><rect x="91.74" y="130.04" width="3.09" height="114.42" transform="translate(186.57 374.5) rotate(180)" style="fill:#e0e0e0"></rect><rect x="145.06" y="161.75" width="3.09" height="104.22" transform="translate(-67.25 360.47) rotate(-90)" style="fill:#e0e0e0"></rect><rect x="91.74" y="207.14" width="108.36" height="5.18" transform="translate(291.84 419.46) rotate(180)" style="fill:#f0f0f0"></rect><rect x="297.41" y="126.08" width="112.19" height="124.08" style="fill:#e0e0e0"></rect><rect x="296.82" y="126.08" width="116.36" height="124.08" style="fill:#f0f0f0"></rect><rect x="301.56" y="130.04" width="106.7" height="114.42" style="fill:#fff"></rect><rect x="405.17" y="130.04" width="3.09" height="114.42" style="fill:#e0e0e0"></rect><rect x="351.85" y="161.75" width="3.09" height="104.22" transform="translate(139.53 567.25) rotate(-90)" style="fill:#e0e0e0"></rect><rect x="299.9" y="207.14" width="108.36" height="5.18" style="fill:#f0f0f0"></rect><rect x="227.16" y="137.04" width="19.19" height="27.15" style="fill:#f0f0f0"></rect><rect x="228.41" y="138.32" width="16.69" height="24.6" style="fill:#fafafa"></rect><rect x="251.27" y="146.46" width="19.19" height="27.15" style="fill:#f0f0f0"></rect><rect x="252.52" y="147.74" width="16.69" height="24.6" style="fill:#fafafa"></rect><rect x="225.49" y="165.76" width="17.28" height="24.45" transform="translate(412.11 -56.14) rotate(90)" style="fill:#f0f0f0"></rect><rect x="226.62" y="166.91" width="15.02" height="22.15" transform="translate(412.11 -56.14) rotate(90)" style="fill:#fafafa"></rect><rect x="255.25" y="173.28" width="19.19" height="27.15" transform="translate(451.71 -77.99) rotate(90)" style="fill:#f0f0f0"></rect><rect x="256.5" y="174.56" width="16.69" height="24.6" transform="translate(451.71 -77.99) rotate(90)" style="fill:#fafafa"></rect><rect x="231.33" y="192.49" width="15.02" height="21.26" transform="translate(477.68 406.24) rotate(180)" style="fill:#f0f0f0"></rect><rect x="232.31" y="193.49" width="13.07" height="19.26" transform="translate(477.68 406.24) rotate(180)" style="fill:#fafafa"></rect></g><g id="freepik--Shadow--inject-16"><ellipse id="freepik--path--inject-16" cx="250" cy="416.24" rx="193.89" ry="11.32" style="fill:#f5f5f5"></ellipse></g><g id="freepik--plant-2--inject-16"><path d="M420.26,390.62s-5-10.81.7-21.46,7.3-13.16,3.69-15.35-5.26,8.53-5.26,8.53a24.06,24.06,0,0,1-.53-15.07c2.51-7.71,4.09-20.26.66-21.61s-.66,15.66-3.63,21.46A50,50,0,0,1,413,334.47c-.41-6.19.23-16.07-2.48-18.61s-4.44-.78-1.78,12.88a143,143,0,0,1,2.64,24.77s-5.88-17.92-9.82-18.45-3.94,5.28-.56,10.32,9.88,14.05,10.95,18.69c0,0-6.45-13.49-12.25-9.35s5.05,12.28,9.89,15.22,8.19,21.39,8.19,21.39Z" style="fill:#407BFF"></path><path d="M420.26,390.62s-5-10.81.7-21.46,7.3-13.16,3.69-15.35-5.26,8.53-5.26,8.53a24.06,24.06,0,0,1-.53-15.07c2.51-7.71,4.09-20.26.66-21.61s-.66,15.66-3.63,21.46A50,50,0,0,1,413,334.47c-.41-6.19.23-16.07-2.48-18.61s-4.44-.78-1.78,12.88a143,143,0,0,1,2.64,24.77s-5.88-17.92-9.82-18.45-3.94,5.28-.56,10.32,9.88,14.05,10.95,18.69c0,0-6.45-13.49-12.25-9.35s5.05,12.28,9.89,15.22,8.19,21.39,8.19,21.39Z" style="opacity:0.2;isolation:isolate"></path><path d="M416.35,395.05s4.82-10.88-1-21.45-7.45-13.05-3.87-15.28,5.36,8.44,5.36,8.44a24.09,24.09,0,0,0,.35-15.08c-2.6-7.67-4.33-20.2-.92-21.59s.85,15.64,3.89,21.4A50.14,50.14,0,0,0,423,338.8c.34-6.2-.42-16.07,2.25-18.65s4.44-.84,1.94,12.86a143,143,0,0,0-2.35,24.8s5.67-18,9.6-18.59,4,5.22.69,10.31-9.72,14.19-10.73,18.85c0,0,6.29-13.58,12.14-9.54s-4.9,12.36-9.7,15.37-7.94,21.52-7.94,21.52Z" style="fill:#407BFF"></path><polygon points="438.59 387.29 398.75 387.29 401.97 415.81 435.37 415.81 438.59 387.29" style="fill:#263238"></polygon></g><g id="freepik--plant-1--inject-16"><path d="M66,341.52c.21,1.47-3.78,2.43-7,3,.27,2.67,2,5.36,4.5,7.88,3.08-1.74,7.49-4,8.3-3.47s-3.63,3.53-6.45,5.24A59,59,0,0,0,71.71,359c1.39-1.29,3-2.42,4-1.81s.73,2.63.24,4.42c3.35,2,5.87,3.15,5.87,3.15A67.5,67.5,0,0,0,84,355.22c-.17-.34-.34-.68-.49-1-.54-1.25,0-1.79.88-2a33.61,33.61,0,0,0,0-6.87c-3.8-.79-8.42-2.27-6.69-4.55,1-1.37,3-1.53,4.94-1.18a7.9,7.9,0,0,0-.93-1.28c-6.92-7.62-11.74,0-11.74,0-4-3.35-9.66-2.44-10.88,2.79C61.42,340.56,65.74,339.7,66,341.52Z" style="fill:#407BFF"></path><path d="M66,341.52c.21,1.47-3.78,2.43-7,3,.27,2.67,2,5.36,4.5,7.88,3.08-1.74,7.49-4,8.3-3.47s-3.63,3.53-6.45,5.24A59,59,0,0,0,71.71,359c1.39-1.29,3-2.42,4-1.81s.73,2.63.24,4.42c3.35,2,5.87,3.15,5.87,3.15A67.5,67.5,0,0,0,84,355.22c-.17-.34-.34-.68-.49-1-.54-1.25,0-1.79.88-2a33.61,33.61,0,0,0,0-6.87c-3.8-.79-8.42-2.27-6.69-4.55,1-1.37,3-1.53,4.94-1.18a7.9,7.9,0,0,0-.93-1.28c-6.92-7.62-11.74,0-11.74,0-4-3.35-9.66-2.44-10.88,2.79C61.42,340.56,65.74,339.7,66,341.52Z" style="fill:#fff;opacity:0.30000000000000004;isolation:isolate"></path><path d="M74.63,397.5l-1-.08c0-.51,4.09-51.52-7.35-56.33a3.88,3.88,0,0,0-3.47.08c-4.14,2.16-6.12,11.09-6.14,11.18l-1-.22c.08-.38,2.1-9.47,6.65-11.84a4.89,4.89,0,0,1,4.32-.12C78.77,345.25,74.8,395.37,74.63,397.5Z" style="fill:#407BFF"></path><path d="M76.07,396.4c-.2-2.3-4.87-56.27,3.86-62,2.1-1.37,4-1.67,5.55-.86,4.13,2.08,4.67,10.91,4.69,11.28l-1,.06c0-.09-.53-8.63-4.15-10.45-1.24-.63-2.77-.36-4.55.81-8.24,5.4-3.46,60.51-3.41,61.07Z" style="fill:#407BFF"></path><path d="M77.38,400.76c-.06-1.76-1.5-43.07,6.46-46.69a5.59,5.59,0,0,1,4.73,0c5.46,2.4,8.83,12.57,9,13l-1,.31c0-.1-3.37-10.18-8.42-12.4a4.56,4.56,0,0,0-3.92,0c-6.1,2.78-6.3,34-5.87,45.74Z" style="fill:#407BFF"></path><path d="M75.36,398.87l-1-.11c1.4-12.3,4.08-45.06-.3-49a1.71,1.71,0,0,0-1.79-.56c-2.94,1.13-4.72,11.79-5.16,15.8l-1-.11c.17-1.54,1.77-15.07,5.8-16.62a2.68,2.68,0,0,1,2.82.74C80.4,354.09,75.57,397.05,75.36,398.87Z" style="fill:#407BFF"></path><polygon points="58.67 375.56 94.6 375.56 91.6 415.81 61.67 415.81 58.67 375.56" style="fill:#263238"></polygon><path d="M63.57,360.79c-.38,1-3.17.21-5.36-.57-.75,1.74-.58,4,.07,6.41,2.5,0,6,.07,6.31.7s-3.45.93-5.77,1a40.05,40.05,0,0,0,2.28,5.18c1.29-.32,2.68-.47,3.07.24s-.46,1.88-1.37,2.81c1.39,2.35,2.54,3.95,2.54,3.95A48.12,48.12,0,0,0,70,375.42c0-.26,0-.53.05-.8.09-1,.6-1.11,1.21-.91a24.26,24.26,0,0,0,2.39-4.21c-2.07-1.8-4.41-4.29-2.57-5.1,1.12-.49,2.35.07,3.46,1a6.74,6.74,0,0,0-.14-1.11c-1.66-7.07-7.24-4-7.24-4-1.33-3.45-5.12-4.82-7.67-2C61.07,358.63,64,359.58,63.57,360.79Z" style="fill:#407BFF"></path><path d="M63.57,360.79c-.38,1-3.17.21-5.36-.57-.75,1.74-.58,4,.07,6.41,2.5,0,6,.07,6.31.7s-3.45.93-5.77,1a40.05,40.05,0,0,0,2.28,5.18c1.29-.32,2.68-.47,3.07.24s-.46,1.88-1.37,2.81c1.39,2.35,2.54,3.95,2.54,3.95A48.12,48.12,0,0,0,70,375.42c0-.26,0-.53.05-.8.09-1,.6-1.11,1.21-.91a24.26,24.26,0,0,0,2.39-4.21c-2.07-1.8-4.41-4.29-2.57-5.1,1.12-.49,2.35.07,3.46,1a6.74,6.74,0,0,0-.14-1.11c-1.66-7.07-7.24-4-7.24-4-1.33-3.45-5.12-4.82-7.67-2C61.07,358.63,64,359.58,63.57,360.79Z" style="fill:#fff;opacity:0.30000000000000004;isolation:isolate"></path><path d="M90.24,365.57a13.49,13.49,0,0,0-3.28.69,7.65,7.65,0,0,1-.49-2.37c-.22-7.25,5-4.2,7.7-6.32a5.89,5.89,0,0,1,4.59-1.44,11,11,0,0,0-.62,1.24,1.14,1.14,0,0,0,.88,1.55,3.29,3.29,0,0,0,2-.24,3.77,3.77,0,0,0,.52-.37,9.57,9.57,0,0,1,1,2.43,14,14,0,0,1,.47,3.1,10.37,10.37,0,0,0-1.21.34,1.13,1.13,0,0,0-.46,1.72,5.15,5.15,0,0,0,1.5,1.05,17.18,17.18,0,0,1-.91,3.4l-.37,0a6.36,6.36,0,0,0-.78.2,3.26,3.26,0,0,0-.44.15,1.16,1.16,0,0,0-.68.88,1.14,1.14,0,0,0,.43,1.05,4.34,4.34,0,0,0,.54.33,8,8,0,0,1-2.87,2.9,30.08,30.08,0,0,1-3.05-1.62c.21-.29.43-.58.63-.88a1.69,1.69,0,0,0,.31-1.13A1.53,1.53,0,0,0,94,371a1.54,1.54,0,0,0-1,.58c-.24.36-.5.7-.77,1A19.11,19.11,0,0,1,88.48,369l.11,0a11,11,0,0,1,2-.34,1.54,1.54,0,1,0-.4-3.06Z" style="fill:#407BFF"></path><path d="M90.24,365.57a13.49,13.49,0,0,0-3.28.69,7.65,7.65,0,0,1-.49-2.37c-.22-7.25,5-4.2,7.7-6.32a5.89,5.89,0,0,1,4.59-1.44,11,11,0,0,0-.62,1.24,1.14,1.14,0,0,0,.88,1.55,3.29,3.29,0,0,0,2-.24,3.77,3.77,0,0,0,.52-.37,9.57,9.57,0,0,1,1,2.43,14,14,0,0,1,.47,3.1,10.37,10.37,0,0,0-1.21.34,1.13,1.13,0,0,0-.46,1.72,5.15,5.15,0,0,0,1.5,1.05,17.18,17.18,0,0,1-.91,3.4l-.37,0a6.36,6.36,0,0,0-.78.2,3.26,3.26,0,0,0-.44.15,1.16,1.16,0,0,0-.68.88,1.14,1.14,0,0,0,.43,1.05,4.34,4.34,0,0,0,.54.33,8,8,0,0,1-2.87,2.9,30.08,30.08,0,0,1-3.05-1.62c.21-.29.43-.58.63-.88a1.69,1.69,0,0,0,.31-1.13A1.53,1.53,0,0,0,94,371a1.54,1.54,0,0,0-1,.58c-.24.36-.5.7-.77,1A19.11,19.11,0,0,1,88.48,369l.11,0a11,11,0,0,1,2-.34,1.54,1.54,0,1,0-.4-3.06Z" style="fill:#fff;opacity:0.5;isolation:isolate"></path><path d="M92.32,340.59a9.81,9.81,0,0,1,2-1.08,5.06,5.06,0,0,0-.79-1.46c-3.06-3.91-4.44,0-6.81.06a4,4,0,0,0-3,1.26,8.2,8.2,0,0,1,.87.38.78.78,0,0,1,.22,1.2,2.33,2.33,0,0,1-1.18.76,2.09,2.09,0,0,1-.43,0,6.64,6.64,0,0,0,.54,1.71,9.5,9.5,0,0,0,1.11,1.83,7.91,7.91,0,0,1,.79-.35.77.77,0,0,1,1,.71,3.87,3.87,0,0,1-.32,1.21,11.86,11.86,0,0,0,2,1.38l.22-.13a4.44,4.44,0,0,1,.49-.24,1.21,1.21,0,0,1,.3-.11.77.77,0,0,1,1,.9c0,.14-.09.28-.14.41a5.49,5.49,0,0,0,2.78.26,19.73,19.73,0,0,0,.89-2.19l-.72-.18a1.15,1.15,0,0,1-.66-.46,1.07,1.07,0,0,1-.14-.8,1.05,1.05,0,0,1,1.26-.8c.28.08.57.15.86.21a13.06,13.06,0,0,0,.36-3.49l-.07,0a7.11,7.11,0,0,0-1.22.72A1.08,1.08,0,0,1,92,342,1.07,1.07,0,0,1,92.32,340.59Z" style="fill:#407BFF"></path><path d="M92.32,340.59a9.81,9.81,0,0,1,2-1.08,5.06,5.06,0,0,0-.79-1.46c-3.06-3.91-4.44,0-6.81.06a4,4,0,0,0-3,1.26,8.2,8.2,0,0,1,.87.38.78.78,0,0,1,.22,1.2,2.33,2.33,0,0,1-1.18.76,2.09,2.09,0,0,1-.43,0,6.64,6.64,0,0,0,.54,1.71,9.5,9.5,0,0,0,1.11,1.83,7.91,7.91,0,0,1,.79-.35.77.77,0,0,1,1,.71,3.87,3.87,0,0,1-.32,1.21,11.86,11.86,0,0,0,2,1.38l.22-.13a4.44,4.44,0,0,1,.49-.24,1.21,1.21,0,0,1,.3-.11.77.77,0,0,1,1,.9c0,.14-.09.28-.14.41a5.49,5.49,0,0,0,2.78.26,19.73,19.73,0,0,0,.89-2.19l-.72-.18a1.15,1.15,0,0,1-.66-.46,1.07,1.07,0,0,1-.14-.8,1.05,1.05,0,0,1,1.26-.8c.28.08.57.15.86.21a13.06,13.06,0,0,0,.36-3.49l-.07,0a7.11,7.11,0,0,0-1.22.72A1.08,1.08,0,0,1,92,342,1.07,1.07,0,0,1,92.32,340.59Z" style="fill:#fff;opacity:0.30000000000000004;isolation:isolate"></path><path d="M63,347.84c-.21,1.47,3.78,2.44,7,3-.26,2.67-2,5.37-4.49,7.89-3.09-1.74-7.49-4-8.3-3.48s3.62,3.53,6.44,5.25a58,58,0,0,1-6.39,4.84c-1.38-1.3-3-2.43-4-1.82s-.73,2.64-.23,4.42c-3.36,2-5.87,3.15-5.87,3.15A67.5,67.5,0,0,1,45,361.54c.16-.33.33-.67.49-1,.54-1.25,0-1.78-.88-2a33.53,33.53,0,0,1-.06-6.86c3.8-.8,8.42-2.27,6.69-4.55-1-1.38-2.95-1.53-4.94-1.19a8.61,8.61,0,0,1,.94-1.28c6.91-7.61,11.74,0,11.74,0,4-3.34,9.66-2.44,10.88,2.79C67.62,346.89,63.3,346,63,347.84Z" style="fill:#407BFF"></path><path d="M63,347.84c-.21,1.47,3.78,2.44,7,3-.26,2.67-2,5.37-4.49,7.89-3.09-1.74-7.49-4-8.3-3.48s3.62,3.53,6.44,5.25a58,58,0,0,1-6.39,4.84c-1.38-1.3-3-2.43-4-1.82s-.73,2.64-.23,4.42c-3.36,2-5.87,3.15-5.87,3.15A67.5,67.5,0,0,1,45,361.54c.16-.33.33-.67.49-1,.54-1.25,0-1.78-.88-2a33.53,33.53,0,0,1-.06-6.86c3.8-.8,8.42-2.27,6.69-4.55-1-1.38-2.95-1.53-4.94-1.19a8.61,8.61,0,0,1,.94-1.28c6.91-7.61,11.74,0,11.74,0,4-3.34,9.66-2.44,10.88,2.79C67.62,346.89,63.3,346,63,347.84Z" style="fill:#fff;opacity:0.5;isolation:isolate"></path></g><g id="freepik--character-2--inject-16"><polygon points="385.68 257.56 381.37 257.56 369.37 327.98 373.68 327.98 385.68 257.56" style="fill:#263238"></polygon><polygon points="369.68 257.56 365.37 257.56 353.37 327.98 357.68 327.98 369.68 257.56" style="fill:#263238"></polygon><polygon points="353.68 257.56 349.37 257.56 337.37 327.98 341.68 327.98 353.68 257.56" style="fill:#263238"></polygon><polygon points="385.68 257.56 381.37 257.56 369.37 327.98 373.68 327.98 385.68 257.56" style="fill:#fff;opacity:0.4;isolation:isolate"></polygon><polygon points="369.68 257.56 365.37 257.56 353.37 327.98 357.68 327.98 369.68 257.56" style="fill:#fff;opacity:0.4;isolation:isolate"></polygon><polygon points="353.68 257.56 349.37 257.56 337.37 327.98 341.68 327.98 353.68 257.56" style="fill:#fff;opacity:0.4;isolation:isolate"></polygon><polygon points="348.85 329.81 348.49 345.38 346.85 415.81 341.44 415.81 339.81 345.38 339.45 329.81 348.85 329.81" style="fill:#263238"></polygon><polygon points="348.85 329.81 348.49 345.38 346.85 415.81 341.44 415.81 339.81 345.38 339.45 329.81 348.85 329.81" style="fill:#fff;opacity:0.4;isolation:isolate"></polygon><polygon points="348.85 329.81 348.49 345.81 339.81 345.81 339.45 329.81 348.85 329.81" style="opacity:0.2;isolation:isolate"></polygon><polygon points="378.23 415.56 373.23 330.9 365.06 330.9 372.05 415.56 378.23 415.56" style="fill:#263238"></polygon><polygon points="372.04 415.56 378.22 415.56 373.68 338.5 373.23 330.81 365.06 330.81 365.69 338.5 372.04 415.56" style="fill:#fff;opacity:0.4;isolation:isolate"></polygon><polygon points="365.06 330.81 365.69 338.81 373.68 338.81 373.23 330.81 365.06 330.81" style="opacity:0.2;isolation:isolate"></polygon><polygon points="316.23 415.56 323.23 330.9 315.06 330.9 310.06 415.56 316.23 415.56" style="fill:#263238"></polygon><polygon points="316.25 415.56 322.6 338.5 323.23 330.81 315.06 330.81 314.61 338.5 310.07 415.56 316.25 415.56" style="fill:#fff;opacity:0.4;isolation:isolate"></polygon><polygon points="323.23 330.81 322.6 338.81 314.61 338.81 315.06 330.81 323.23 330.81" style="opacity:0.2;isolation:isolate"></polygon><path d="M315.68,322.14H372.6a5,5,0,0,1,5,5v6.69a0,0,0,0,1,0,0H310.68a0,0,0,0,1,0,0v-6.69A5,5,0,0,1,315.68,322.14Z" style="fill:#263238"></path><path d="M378.23,265.69c-6.94-4.2-16.57-4.2-25.77,0-4.66,2-10.16,2.62-12.6-.32h0c-4.15-4.32,3.13-17.13,17.11-21.19,10-2.87,19.91-2.87,28.37,0,11.78,4.06,12.14,16.87,5.66,21.19h0C387,268.31,381.79,267.73,378.23,265.69Z" style="fill:#263238"></path><path d="M315.68,322.14H372.6a5,5,0,0,1,5,5v6.69a0,0,0,0,1,0,0H310.68a0,0,0,0,1,0,0v-6.69A5,5,0,0,1,315.68,322.14Z" style="fill:#fff;opacity:0.2;isolation:isolate"></path><rect x="307.48" y="327.98" width="73.33" height="5.84" rx="2.01" style="fill:#263238"></rect><rect x="307.48" y="327.98" width="73.33" height="5.84" rx="2.01" style="fill:#fff;opacity:0.6000000000000001;isolation:isolate"></rect><path d="M378.23,265.69c-6.94-4.2-16.57-4.2-25.77,0-4.66,2-10.16,2.62-12.6-.32h0c-4.15-4.32,3.13-17.13,17.11-21.19,10-2.87,19.91-2.87,28.37,0,11.78,4.06,12.14,16.87,5.66,21.19h0C387,268.31,381.79,267.73,378.23,265.69Z" style="fill:#fff;opacity:0.2;isolation:isolate"></path><path d="M288.26,252.1l-3.37-6.58a13,13,0,0,0-.75-4.37c-.75-1.62-11.23-5-12.48-5s-1.5,8.12-.88,9.62,9.24,3.37,9.24,3.37l1.25-.63,2.62,8.2Z" style="fill:#ebb376"></path><path d="M309,253s-1.67,2.93-4.13,6.35c-3.94,5.46-9.89,12.17-14.19,10-7-3.44-8.31-18.87-8.31-18.87l4.42-2.11s5.07,8.17,7.05,6.59,4-17,9.05-20.39l2.88,8.67Z" style="fill:#263238"></path><path d="M309,253s-1.67,2.93-4.13,6.35c-2.44-7.13.9-16.06.9-16.06Z" style="opacity:0.2;isolation:isolate"></path><polygon points="301.52 408.17 308.07 406.49 306.81 397.09 305.64 388.47 297.54 389.19 299.64 399.24 301.52 408.17" style="fill:#ebb376"></polygon><path d="M309.84,404.17c0-.74-9.18-.05-9.18-.05s-5.57,5.8-11,7.15-2.36,4.61,3.76,4.53l15.14-.18C312.88,415.57,310.11,411.9,309.84,404.17Z" style="fill:#263238"></path><path d="M295.06,406.31a.87.87,0,0,1-.24-1,1,1,0,0,1,.49-.63,3.84,3.84,0,0,1,2.05-.25c-.75-.38-1.41-.86-1.44-1.34,0-.31.17-.58.59-.78a1.43,1.43,0,0,1,1.18,0c1.25.51,2.05,2.63,2.08,2.73a.2.2,0,0,1,0,.11h0a.07.07,0,0,1,0,.05h0a.26.26,0,0,1,0,.09l-.06,0h0a11.39,11.39,0,0,1-3.81,1.2A1.23,1.23,0,0,1,295.06,406.31Zm.49-1.18a.54.54,0,0,0-.26.32c-.08.36,0,.46.07.49.43.34,2.11-.18,3.45-.77C297.78,405,296.21,404.74,295.55,405.13Zm1.17-2.35c-.12.06-.33.18-.32.31,0,.41,1.34,1.1,2.71,1.6a4.07,4.07,0,0,0-1.6-1.95.92.92,0,0,0-.36-.07A.89.89,0,0,0,296.72,402.78Z" style="fill:#263238"></path><polygon points="299.69 399.44 306.86 397.27 305.67 388.56 297.55 389.24 299.69 399.44" style="opacity:0.2;isolation:isolate"></polygon><path d="M334.14,324.18s-2.07.05-34.27-1.45c0,0,4.82,40.24,7.44,70.37l-9.63,1.64s-23-64.51-22.75-74.76,12-13.25,12-13.25S309.87,320,334.14,324.18Z" style="fill:#407BFF"></path><path d="M334.14,324.18s-2.07.05-34.27-1.45c0,0,4.82,40.24,7.44,70.37l-9.63,1.64s-23-64.51-22.75-74.76,12-13.25,12-13.25S309.87,320,334.14,324.18Z" style="opacity:0.4;isolation:isolate"></path><polygon points="308.72 390.18 295.49 391.69 298.04 396.87 308.75 395.5 308.72 390.18" style="fill:#407BFF"></polygon><polygon points="245.85 382.22 252.42 383.8 255.75 374.72 258.77 366.47 251.28 363.27 248.4 373.29 245.85 382.22" style="fill:#ebb376"></polygon><path d="M254,383.36c.16-.73-8.89-2.31-8.89-2.31s-6.82,4.26-12.44,4.23-3.42,3.88,2.53,5.31l14.71,3.54C254.16,395.15,252.39,390.91,254,383.36Z" style="fill:#263238"></path><path d="M239.16,381.8a.9.9,0,0,1,0-1,.94.94,0,0,1,.62-.49,3.77,3.77,0,0,1,2,.26c-.63-.56-1.15-1.18-1.07-1.66.06-.3.31-.51.77-.6a1.41,1.41,0,0,1,1.16.24c1.08.79,1.33,3.05,1.34,3.15a.2.2,0,0,1,0,.11l0,.06-.07.06h0a.11.11,0,0,1-.08,0,14.87,14.87,0,0,1-2.89.35A2.41,2.41,0,0,1,239.16,381.8Zm.77-1a.57.57,0,0,0-.33.25c-.17.33-.08.45,0,.49.34.44,2.09.35,3.53.11C242.14,381.15,240.67,380.56,239.93,380.77Zm1.72-2c-.14,0-.37.09-.39.22-.08.41,1,1.41,2.23,2.22a4,4,0,0,0-1.07-2.28.93.93,0,0,0-.55-.18A.82.82,0,0,0,241.65,378.78Z" style="fill:#263238"></path><polygon points="248.4 373.29 255.75 374.72 258.77 366.47 251.28 363.27 248.4 373.29" style="opacity:0.2;isolation:isolate"></polygon><path d="M249.06,368.5l9.12,3.39s24.33-60.83,29.33-61,55.91,23.19,68.67,10.21-5.69-44.24-5.69-44.24-30.69-4.38-33,2.55a48.61,48.61,0,0,0-1.3,6.22c-.35,2.12-.59,3.9-.59,3.9h0c-.95-.24-31.76-8.19-43.9,0C259.35,297.83,249.06,368.5,249.06,368.5Z" style="fill:#407BFF"></path><g style="opacity:0.2;isolation:isolate"><path d="M249.06,368.5l9.12,3.39s24.33-60.83,29.33-61,55.91,23.19,68.67,10.21-5.69-44.24-5.69-44.24-30.69-4.38-33,2.55a48.61,48.61,0,0,0-1.3,6.22c-.35,2.12-.59,3.9-.59,3.9h0c-.95-.24-31.76-8.19-43.9,0C259.35,297.83,249.06,368.5,249.06,368.5Z"></path></g><polygon points="261.95 368.52 248.67 364 248.1 369.44 258.18 373 261.95 368.52" style="fill:#407BFF"></polygon><path d="M328.7,194s-.71-10.27,14.67-9.09,11.23,21.75,6.38,29.17,1.78,10.39,1.78,10.39-4.26,4.16-11-1-3.56-17.25-8.7-20S328.7,194,328.7,194Z" style="fill:#263238"></path><path d="M304.45,210s-5.81-9.57,2.17-16.55,19.3-4.83,24.2.67c5.94,6.64,7,21.51-9.11,27.77C303.1,229.09,304.45,210,304.45,210Z" style="fill:#263238"></path><path d="M315.6,289.49l17.95,3.74s-9.92-5.48-17.36-7.64C315.84,287.71,315.6,289.49,315.6,289.49Z" style="opacity:0.30000000000000004;isolation:isolate"></path><polygon points="349.75 272.05 350.49 276.82 317.49 279.37 316.62 273.72 349.75 272.05" style="fill:#263238"></polygon><polygon points="349.75 272.05 350.49 276.82 317.49 279.37 316.62 273.72 349.75 272.05" style="opacity:0.2;isolation:isolate"></polygon><rect x="338.92" y="271.63" width="1.64" height="8.35" transform="translate(705.9 515.42) rotate(174.13)" style="fill:#407BFF"></rect><rect x="324.51" y="273.48" width="7.24" height="5.49" transform="translate(673.3 530.84) rotate(176.32)" style="fill:#fff"></rect><rect x="318.66" y="272.52" width="1.64" height="8.35" transform="translate(665.59 519.25) rotate(174.13)" style="fill:#407BFF"></rect><path d="M349.75,272.05l-33.13,1.67s-2.81-10.79-6.6-14.8-7.17-24.3-7.17-24.3a76.83,76.83,0,0,1,31-7.28,8.86,8.86,0,0,1,8.48,5.61,68.9,68.9,0,0,1,2.62,9c1.19,5.12,2.18,10.85,2.95,15.92C349.12,265.74,349.75,272.05,349.75,272.05Z" style="fill:#263238"></path><path d="M317.19,230.36c.13,2-.93,2.54-.93,2.54a4,4,0,0,0,4.76,4.16c6.11-1.23,7.33-8.85,7.33-8.85-4.67-1.35-6.16-6.2-6.64-9.12a15.51,15.51,0,0,1-.23-2.32l-7.87,6.11a29.29,29.29,0,0,1,2.24,3.49A10.67,10.67,0,0,1,317.19,230.36Z" style="fill:#ebb376"></path><path d="M313.61,222.88a29.29,29.29,0,0,1,2.24,3.49,10.67,10.67,0,0,1,1.34,4c4.72-.57,4.49-11.21,4.49-11.21l0-.06a15.51,15.51,0,0,1-.23-2.32Z" style="opacity:0.2;isolation:isolate"></path><path d="M315.31,197.4c-8.51-.38-11.46,4-12.47,12.8-1.27,10.93.81,18.83,11.57,17C329,224.63,329.45,198,315.31,197.4Z" style="fill:#ebb376"></path><path d="M308.36,210a18.2,18.2,0,0,1-2.63,3.42,2.34,2.34,0,0,0,2.2,1.06Z" style="fill:#d58745"></path><path d="M313.61,209.51c-.05.69.29,1.29.75,1.32s.89-.51.93-1.21-.29-1.29-.75-1.32S313.65,208.81,313.61,209.51Z" style="fill:#263238"></path><path d="M314.73,208.34l-1.48-.69S313.92,209,314.73,208.34Z" style="fill:#263238"></path><path d="M304.93,208.77c-.05.7.29,1.29.76,1.32s.88-.51.93-1.21-.29-1.29-.76-1.32S305,208.07,304.93,208.77Z" style="fill:#263238"></path><path d="M306.05,207.61l-1.48-.7S305.24,208.24,306.05,207.61Z" style="fill:#263238"></path><path d="M317.52,205.61a.33.33,0,0,1-.31-.18,4.1,4.1,0,0,0-3.18-1.6.37.37,0,0,1-.36-.37.38.38,0,0,1,.36-.36,4.76,4.76,0,0,1,3.8,2,.36.36,0,0,1-.31.55Z" style="fill:#263238"></path><path d="M304.45,204.2a.36.36,0,0,1-.23-.63,4.27,4.27,0,0,1,3.59-1.23.35.35,0,0,1,.27.43.36.36,0,0,1-.43.27,3.67,3.67,0,0,0-3,1.07A.36.36,0,0,1,304.45,204.2Z" style="fill:#263238"></path><path d="M324,212.16s-3.67-7.17-2.83-12.55c0,0-16.56-7.64-18.16,9.45,0,0-1-15.28,13.68-15s13.64,21.73,5.8,27.77C322.47,221.86,326.25,216.65,324,212.16Z" style="fill:#263238"></path><path d="M322.51,213.9a3.74,3.74,0,0,1,4.17-3.24c2.63.41,3.64,5.88-3,6.89C322.75,217.7,322.26,216.75,322.51,213.9Z" style="fill:#ebb376"></path><path d="M309.13,219.26h-.19a.36.36,0,1,1,0-.72h0a3.7,3.7,0,0,0,4-3,.36.36,0,0,1,.42-.29.35.35,0,0,1,.29.42A4.52,4.52,0,0,1,309.13,219.26Z" style="fill:#263238"></path><path d="M332.64,227.34s-3.21,12.49-2.08,17.91c1.78,8.51,15.2,38.05,15.2,38.05s5.88,22.68-41.31,22.08c0,0-6.43-18-17.7-19.57l28-.22s2.65-8.26,0-16-6.77-12.47-7.68-14,.39-19.62,6.2-24.94l1.48-.43s-5.13,6.58-5.77,18.05L328.13,246a89.9,89.9,0,0,1,3.28-18.51Z" style="fill:#407BFF"></path><path d="M332.64,227.34s-3.21,12.49-2.08,17.91c1.78,8.51,15.2,38.05,15.2,38.05s5.88,22.68-41.31,22.08c0,0-6.43-18-17.7-19.57l28-.22s2.65-8.26,0-16-6.77-12.47-7.68-14,.39-19.62,6.2-24.94l1.48-.43s-5.13,6.58-5.77,18.05L328.13,246a89.9,89.9,0,0,1,3.28-18.51Z" style="fill:#fff;opacity:0.7000000000000001"></path><path d="M289.51,230.66a16.22,16.22,0,0,1,.71,2.44,13.92,13.92,0,0,1,.3,2.14h0a10.45,10.45,0,0,1-18.88,6.87,13.73,13.73,0,0,1-1.09-1.7,17,17,0,0,1-1.05-2.31,19.16,19.16,0,0,1-.6-1.91,17.49,17.49,0,0,1-.4-1.91,22.24,22.24,0,0,1-.3-3.14,17.27,17.27,0,0,1,.05-1.77c0-.14,0-.28,0-.43l.09-.81a15.84,15.84,0,0,1,.58-2.74c.87-2.94,2.53-5.25,4.94-6.15s5.19-.23,7.77,1.43a16.46,16.46,0,0,1,2.23,1.7c.19.18.39.36.59.56l.3.3c.42.42.82.88,1.21,1.34a21.46,21.46,0,0,1,1.8,2.53c.35.56.66,1.14,1,1.72A17.56,17.56,0,0,1,289.51,230.66Z" style="fill:#407BFF"></path><path d="M289.51,230.66a16.22,16.22,0,0,1,.71,2.44l-19.68,7.31a17,17,0,0,1-1.05-2.31,19.16,19.16,0,0,1-.6-1.91l19.83-7.37A17.56,17.56,0,0,1,289.51,230.66Z" style="fill:#fff;opacity:0.6000000000000001"></path><path d="M290.51,235.24a10.45,10.45,0,0,1-18.88,6.87c.92-1.46,8,2.23,8,2.23s-1.62-5.09,1.29-6.17,5,4.19,5,4.19S287.89,235.73,290.51,235.24Z" style="fill:#fff;opacity:0.6000000000000001"></path><path d="M279.1,228.57a1.65,1.65,0,0,1-3.09,1.15,1.65,1.65,0,1,1,3.09-1.15Z" style="fill:#fff;opacity:0.6000000000000001"></path><path d="M284.11,226.71a1.65,1.65,0,1,1-2.12-1A1.65,1.65,0,0,1,284.11,226.71Z" style="fill:#fff;opacity:0.6000000000000001"></path><path d="M273.85,230.52a1.65,1.65,0,1,1-2.12-1A1.64,1.64,0,0,1,273.85,230.52Z" style="fill:#fff;opacity:0.6000000000000001"></path><path d="M269.41,232.18a1.65,1.65,0,0,1-.92,2.1,22.24,22.24,0,0,1-.3-3.14A1.62,1.62,0,0,1,269.41,232.18Z" style="fill:#fff;opacity:0.6000000000000001"></path><path d="M287.77,227.1a1.64,1.64,0,0,1-2-1,1.65,1.65,0,0,1,.19-1.53A21.46,21.46,0,0,1,287.77,227.1Z" style="fill:#fff;opacity:0.6000000000000001"></path><path d="M284.76,223.23l-16.52,6.14c0-.14,0-.28,0-.43l16.2-6Z" style="fill:#fff;opacity:0.6000000000000001"></path><path d="M283.87,222.37l-15.52,5.76a15.84,15.84,0,0,1,.58-2.74l12.71-4.72A16.46,16.46,0,0,1,283.87,222.37Z" style="fill:#fff;opacity:0.6000000000000001"></path><path d="M348,257.85c-5.47-3.51-8.63-10.43-8.63-10.43a11.17,11.17,0,0,1,5.68-5.49C346.19,247.05,347.18,252.78,348,257.85Z" style="opacity:0.2;isolation:isolate"></path><path d="M369.36,230.36l7-7.43s.13-5.09.27-5.36a70.5,70.5,0,0,1,10.54-2c1.06.11,1.32,6.49.93,7.33s-6.6,3.47-8.57,2.94l-4.62,7.65Z" style="fill:#ebb376"></path><path d="M335.76,227.5c7.16.74,22.08,11.28,23.92,11S373,224.57,373,224.57l6.53,3.56s-6.32,18.36-14.44,23.47-25.76-4.18-25.76-4.18Z" style="fill:#263238"></path><path d="M389.9,221.23c.82.68,3,2.75,2.66,3.12s-2.82-1.17-3.69-1.78c-4.71-3.35-18.08-14.4-17.79-14.77S385.46,217.53,389.9,221.23Z" style="fill:#263238"></path><path d="M389.9,221.23c.82.68,3,2.75,2.66,3.12s-2.82-1.17-3.69-1.78c-4.71-3.35-18.08-14.4-17.79-14.77S385.46,217.53,389.9,221.23Z" style="fill:#fff;opacity:0.2"></path><rect x="391.99" y="222.95" width="1.07" height="2.75" transform="translate(-24.71 398.45) rotate(-52.4)" style="fill:#263238"></rect><rect x="391.99" y="222.95" width="1.07" height="2.75" transform="translate(-24.71 398.45) rotate(-52.4)" style="fill:#fff;opacity:0.5"></rect><path d="M395.55,225.42c.09.11.19.22.28.35.68.81,1.39,1.77,2.22,1.76l-.31.89a9.43,9.43,0,0,1-2.67-.94l-.24-.14c-1.12-.67-2-1.68-1.6-2.39S394.93,224.71,395.55,225.42Z" style="fill:#263238"></path><path d="M398.05,227.53l-.31.89a9.43,9.43,0,0,1-2.67-.94l-.24-.14c-.18-.34-.3-.66-.1-.63.43,0,1,.8.87,0s-.65-1.1.23-.91C396.51,226.58,397.22,227.54,398.05,227.53Z" style="fill:#407BFF"></path></g><g id="freepik--character-1--inject-16"><polygon points="107 257.56 111.31 257.56 123.31 327.98 119 327.98 107 257.56" style="fill:#263238"></polygon><polygon points="123 257.56 127.31 257.56 139.31 327.98 135 327.98 123 257.56" style="fill:#263238"></polygon><polygon points="139 257.56 143.31 257.56 155.31 327.98 151 327.98 139 257.56" style="fill:#263238"></polygon><polygon points="107 257.56 111.31 257.56 123.31 327.98 119 327.98 107 257.56" style="fill:#fff;opacity:0.4;isolation:isolate"></polygon><polygon points="123 257.56 127.31 257.56 139.31 327.98 135 327.98 123 257.56" style="fill:#fff;opacity:0.4;isolation:isolate"></polygon><polygon points="139 257.56 143.31 257.56 155.31 327.98 151 327.98 139 257.56" style="fill:#fff;opacity:0.4;isolation:isolate"></polygon><polygon points="143.84 329.81 144.2 345.38 145.84 415.81 151.25 415.81 152.88 345.38 153.24 329.81 143.84 329.81" style="fill:#263238"></polygon><polygon points="143.84 329.81 144.2 345.38 145.84 415.81 151.25 415.81 152.88 345.38 153.24 329.81 143.84 329.81" style="fill:#fff;opacity:0.4;isolation:isolate"></polygon><polygon points="143.84 329.81 144.2 345.81 152.88 345.81 153.24 329.81 143.84 329.81" style="opacity:0.2;isolation:isolate"></polygon><polygon points="114.46 415.56 119.46 330.9 127.63 330.9 120.63 415.56 114.46 415.56" style="fill:#263238"></polygon><polygon points="120.65 415.56 114.47 415.56 119.01 338.5 119.45 330.81 127.63 330.81 127 338.5 120.65 415.56" style="fill:#fff;opacity:0.4;isolation:isolate"></polygon><polygon points="127.63 330.81 127 338.81 119 338.81 119.45 330.81 127.63 330.81" style="opacity:0.2;isolation:isolate"></polygon><polygon points="176.45 415.56 169.46 330.9 177.63 330.9 182.62 415.56 176.45 415.56" style="fill:#263238"></polygon><polygon points="176.44 415.56 170.09 338.5 169.46 330.81 177.63 330.81 178.08 338.5 182.61 415.56 176.44 415.56" style="fill:#fff;opacity:0.4;isolation:isolate"></polygon><polygon points="169.46 330.81 170.09 338.81 178.08 338.81 177.63 330.81 169.46 330.81" style="opacity:0.2;isolation:isolate"></polygon><path d="M115.08,322.14H182a0,0,0,0,1,0,0v6.69a5,5,0,0,1-5,5H120.08a5,5,0,0,1-5-5v-6.69A0,0,0,0,1,115.08,322.14Z" transform="translate(297.08 655.97) rotate(180)" style="fill:#263238"></path><path d="M114.45,265.69c6.94-4.2,16.57-4.2,25.78,0,4.65,2,10.16,2.62,12.6-.32h0c4.15-4.32-3.14-17.13-17.12-21.19-10-2.87-19.9-2.87-28.36,0-11.79,4.06-12.15,16.87-5.66,21.19h0C105.71,268.31,110.9,267.73,114.45,265.69Z" style="fill:#263238"></path><path d="M115.08,322.14H182a0,0,0,0,1,0,0v6.69a5,5,0,0,1-5,5H120.08a5,5,0,0,1-5-5v-6.69A0,0,0,0,1,115.08,322.14Z" transform="translate(297.08 655.97) rotate(180)" style="fill:#fff;opacity:0.2;isolation:isolate"></path><rect x="111.88" y="327.98" width="73.33" height="5.84" rx="2.01" transform="translate(297.08 661.81) rotate(-180)" style="fill:#263238"></rect><rect x="111.88" y="327.98" width="73.33" height="5.84" rx="2.01" transform="translate(297.08 661.81) rotate(-180)" style="fill:#fff;opacity:0.6000000000000001;isolation:isolate"></rect><path d="M114.45,265.69c6.94-4.2,16.57-4.2,25.78,0,4.65,2,10.16,2.62,12.6-.32h0c4.15-4.32-3.14-17.13-17.12-21.19-10-2.87-19.9-2.87-28.36,0-11.79,4.06-12.15,16.87-5.66,21.19h0C105.71,268.31,110.9,267.73,114.45,265.69Z" style="fill:#fff;opacity:0.2;isolation:isolate"></path><g id="freepik--group--inject-16"><path d="M113,234.17c-.41-1-1.35-3.79-.93-4s2,2.33,2.46,3.28c2.64,5.14,9.43,21.09,9,21.29S115.23,239.5,113,234.17Z" style="fill:#263238"></path><path d="M113,234.17c-.41-1-1.35-3.79-.93-4s2,2.33,2.46,3.28c2.64,5.14,9.43,21.09,9,21.29S115.23,239.5,113,234.17Z" style="fill:#fff;opacity:0.2"></path><rect x="111.55" y="228.83" width="1.07" height="2.75" transform="translate(311.03 391.39) rotate(154.97)" style="fill:#263238"></rect><rect x="111.55" y="228.83" width="1.07" height="2.75" transform="translate(311.03 391.39) rotate(154.97)" style="fill:#fff;opacity:0.5"></rect><path d="M109.9,227.86c0-.14-.07-.29-.09-.44-.23-1-.42-2.21-1.16-2.59l.68-.65a9.52,9.52,0,0,1,2,2.06,2,2,0,0,1,.14.25c.68,1.1,1,2.41.32,2.85S110.13,228.77,109.9,227.86Z" style="fill:#263238"></path><path d="M108.65,224.83l.68-.65a9.52,9.52,0,0,1,2,2.06,2,2,0,0,1,.14.25c0,.38,0,.71-.2.6-.37-.23-.52-1.17-.78-.38s.06,1.28-.63.71C109.58,226.39,109.39,225.21,108.65,224.83Z" style="fill:#407BFF"></path><polygon points="217.27 342.7 213.19 344.1 210.54 338.54 208.14 333.48 212.7 331.01 215.12 337.19 217.27 342.7" style="fill:#e4897b"></polygon><path d="M212.15,343.91c-.14-.45,5.5-2,5.5-2s4.58,2.3,8.15,1.95,2.4,2.26-1.29,3.52l-9.13,3.12C212.76,351.4,213.64,348.61,212.15,343.91Z" style="fill:#263238"></path><path d="M220.37,342.47a10.09,10.09,0,0,1-1.86,0l0,0h0l-.05,0,0,0a.17.17,0,0,1,0-.07,3.37,3.37,0,0,1,.66-2.08.92.92,0,0,1,.73-.22.54.54,0,0,1,.52.34c.08.3-.21.72-.58,1.11a2.39,2.39,0,0,1,1.28-.28.6.6,0,0,1,.43.27.55.55,0,0,1,.06.63A1.44,1.44,0,0,1,220.37,342.47Zm-1.38-.31c.93.07,2,0,2.23-.28,0,0,.07-.1-.06-.3a.31.31,0,0,0-.22-.14A3.82,3.82,0,0,0,219,342.16Zm.6-1.89a.7.7,0,0,0-.34.15,2.56,2.56,0,0,0-.54,1.52c.71-.59,1.35-1.29,1.28-1.55,0-.08-.17-.1-.26-.11Z" style="fill:#263238"></path><polygon points="170.47 356.63 166.43 355.14 167.87 349.15 169.19 343.71 174.29 344.66 172.27 350.99 170.47 356.63" style="fill:#e4897b"></polygon><path d="M165.74,354.34c.17-.44,5.52,1.92,5.52,1.92s2.12,4.67,5.11,6.64.44,3.27-3.22,1.92l-9.06-3.32C161.49,360.54,163.93,358.92,165.74,354.34Z" style="fill:#263238"></path><path d="M173,358.4a9.68,9.68,0,0,1-1.4-1.21s0,0,0,0h0s0,0,0-.06a.06.06,0,0,1,0,0,.07.07,0,0,1,0-.06c0-.06,1-1.16,1.82-1.2a.91.91,0,0,1,.7.28c.21.21.28.41.2.6s-.62.42-1.16.5a2.38,2.38,0,0,1,1.18.58.6.6,0,0,1,.16.48.57.57,0,0,1-.35.54A1.53,1.53,0,0,1,173,358.4Zm-.87-1.11c.68.63,1.58,1.3,1.91,1.19,0,0,.12,0,.14-.28a.34.34,0,0,0-.08-.25A3.77,3.77,0,0,0,172.15,357.29Zm1.66-1.09a.65.65,0,0,0-.36-.1,2.56,2.56,0,0,0-1.38.83c.93,0,1.87-.14,2-.39,0-.07-.06-.19-.12-.25Z" style="fill:#263238"></path><path d="M180.46,243.57l4.09-4.41s-.66-1.18.86-2,10.74-1.12,10.74-1.12-.59,4-1.38,5-8,.94-8,.94l-3.3,4Z" style="fill:#ebb376"></path><path d="M186.07,245l-.53.75c-2.09,2.9-9.95,13.57-17.53,20.22a31,31,0,0,1-6.08,4.35l-1.81-2.59-4.8-6.85c9.76-3.47,22.8-16.07,25.87-19.11l.66-.67Z" style="fill:#407BFF"></path><path d="M168,266a31,31,0,0,1-6.08,4.35l-1.81-2.59A22.43,22.43,0,0,1,168,266Z" style="opacity:0.2;isolation:isolate"></path><path d="M186.07,245l-.53.75-4.35-4,.66-.67Z" style="fill:#fff;opacity:0.6000000000000001"></path><path d="M172,299.09l-36.53,5.69c-.11-.49-.22-1-.32-1.48a164.44,164.44,0,0,1-2.78-19.19c-.34-3.86-.54-7.37-.66-10.25-.2-4.85-.16-7.92-.16-7.92s4.8-3.42,15.95-4.78a38,38,0,0,1,9.91-.07,6.17,6.17,0,0,1,5.27,5.6c.74,8.59,5.22,21.54,7.69,28.16C171.35,297.46,172,299.09,172,299.09Z" style="fill:#407BFF"></path><path d="M132.38,284.11c-.34-3.86-.54-7.37-.66-10.25a8,8,0,0,1,2.26-.77S135.94,280.29,132.38,284.11Z" style="opacity:0.2;isolation:isolate"></path><path d="M139.88,263.63s1.57-2,6.93-1.78a40.45,40.45,0,0,1,7.51.77s1.35,4.14-3.33,5.64S138.8,264.93,139.88,263.63Z" style="fill:#fff;opacity:0.6000000000000001"></path><path d="M172,299.09l-36.53,5.69c-.11-.49-.22-1-.32-1.48l35.22-8.45C171.35,297.46,172,299.09,172,299.09Z" style="fill:#fff;opacity:0.6000000000000001"></path><path d="M198.2,230.66a12.79,12.79,0,0,1-.15,2,10.34,10.34,0,0,1-.66,2.42l-.18.39a9.42,9.42,0,0,1-.56,1,8.07,8.07,0,0,1-.65.86,6.62,6.62,0,0,1-.9.86,8.15,8.15,0,0,1-10.09,0,6.62,6.62,0,0,1-.9-.86,8.07,8.07,0,0,1-.65-.86,9.42,9.42,0,0,1-.56-1l-.18-.39a9.93,9.93,0,0,1-.58-2,12.35,12.35,0,0,1-.23-2.42,16.15,16.15,0,0,1,.42-3.59c.12-.51.26-1,.42-1.49l.09-.26c.12-.36.26-.71.41-1.06s.37-.8.58-1.18a12.28,12.28,0,0,1,.67-1.12c1.45-2.16,3.4-3.61,5.55-3.61s4.11,1.45,5.56,3.61a12.28,12.28,0,0,1,.67,1.12c.21.38.4.77.58,1.18s.29.7.41,1.06l.09.26a16.45,16.45,0,0,1,.52,2A15.46,15.46,0,0,1,198.2,230.66Z" style="fill:#407BFF"></path><path d="M183.24,230a4.51,4.51,0,0,1-1.1,3.11,12.35,12.35,0,0,1-.23-2.42,16.15,16.15,0,0,1,.42-3.59A4.67,4.67,0,0,1,183.24,230Z" style="fill:#fff;opacity:0.6000000000000001"></path><path d="M189.64,230c0,2.09-1.15,3.79-2.57,3.79s-2.58-1.7-2.58-3.79,1.16-3.79,2.58-3.79S189.64,227.87,189.64,230Z" style="fill:#fff;opacity:0.6000000000000001"></path><path d="M196,230c0,2.09-1.15,3.79-2.57,3.79s-2.57-1.7-2.57-3.79,1.15-3.79,2.57-3.79S196,227.87,196,230Z" style="fill:#fff;opacity:0.6000000000000001"></path><path d="M198.2,230.66a12.79,12.79,0,0,1-.15,2,4.82,4.82,0,0,1-.76-2.69,4.91,4.91,0,0,1,.59-2.41A15.46,15.46,0,0,1,198.2,230.66Z" style="fill:#fff;opacity:0.6000000000000001"></path><path d="M197.36,225.58H182.75l.09-.26h14.43Z" style="fill:#fff;opacity:0.6000000000000001"></path><path d="M196.86,224.26H183.25c.18-.41.37-.8.58-1.18h12.45C196.49,223.46,196.68,223.85,196.86,224.26Z" style="fill:#fff;opacity:0.6000000000000001"></path><path d="M195.61,222H184.5c1.45-2.16,3.4-3.61,5.55-3.61S194.16,219.8,195.61,222Z" style="fill:#fff;opacity:0.6000000000000001"></path><path d="M195.1,238.18a8.15,8.15,0,0,1-10.09,0Z" style="fill:#fff;opacity:0.6000000000000001"></path><path d="M196.65,236.46a8.07,8.07,0,0,1-.65.86H184.11a8.07,8.07,0,0,1-.65-.86Z" style="fill:#fff;opacity:0.6000000000000001"></path><polygon points="197.39 235.08 197.21 235.47 182.9 235.47 182.72 235.08 197.39 235.08" style="fill:#fff;opacity:0.6000000000000001"></polygon><path d="M157.15,275.8c-.36-3.35-1.15-7.81-2.83-7.53s-1.25,4.34-.59,7.58a17.71,17.71,0,0,0-3.58,1.14c-.37-3.3-1.17-7.47-2.79-7.2-2,.35-1,5.76-.27,9.09-6.67,5.58-2.71,15.46,8.07,12.68C167,288.52,163.89,277.36,157.15,275.8Z" style="fill:#fff;opacity:0.4"></path><path d="M154.57,275.59s-.84-4.79,0-5,1.48,5,1.48,5Z" style="opacity:0.2;isolation:isolate"></path><path d="M149.27,277.13s-.64-5.29-1.48-5.34.3,6.33.3,6.33Z" style="opacity:0.2;isolation:isolate"></path><path d="M157.76,280.58a.73.73,0,1,1-.73-.73A.73.73,0,0,1,157.76,280.58Z" style="opacity:0.2;isolation:isolate"></path><circle cx="149.94" cy="282.54" r="0.67" style="opacity:0.2;isolation:isolate"></circle><polygon points="153.13 283.21 154.19 282.79 153.99 284.05 153.13 283.21" style="opacity:0.2;isolation:isolate"></polygon><path d="M113.22,257l.66-6s-1.41-1.79-.93-3.44,2.31-6.1,3.38-7.06,4.56,2.41,4.77,3.7-3.6,7.18-3.6,7.18l-.17,6.13Z" style="fill:#ebb376"></path><path d="M151.3,258.24a5.08,5.08,0,0,0,.87,3.82,5.93,5.93,0,0,0,.46.56,6.94,6.94,0,0,0,.83.76,4,4,0,0,1-2.59,3.78c-5.71,1.85-9.69-2.85-9.69-2.85a9.47,9.47,0,0,0,.8-7.69,12.7,12.7,0,0,0-1.81-3.64l8.57,1.34,3.9.61A8.46,8.46,0,0,0,151.3,258.24Z" style="fill:#ebb376"></path><path d="M151.3,258.24a5.08,5.08,0,0,0,.87,3.82,5.93,5.93,0,0,0,.46.56c-4.67.12-8.58-3.58-10.65-6a12.7,12.7,0,0,0-1.81-3.64l8.57,1.34,3.9.61A8.46,8.46,0,0,0,151.3,258.24Z" style="opacity:0.2;isolation:isolate"></path><path d="M152.69,230.66s9.8,5.92,1.21,15.13C144.2,256.2,152.69,230.66,152.69,230.66Z" style="fill:#263238"></path><path d="M133.22,245.67c1.47,6.68,6.37,13.6,12.12,13.8,10.54.35,14.27-2.21,14.29-10,.05-7-4-17.51-12.75-18.28S131.18,236.4,133.22,245.67Z" style="fill:#ebb376"></path><path d="M154.37,235a18.8,18.8,0,0,1-9.87,2.06s-4,1.26-2.44,5.76-3.44,7.8-2.75,14c0,0-6.51.16-9.45-13.12-2.15-9.67,5.79-14.7,14.53-15.8C151.71,226.94,157.63,231.45,154.37,235Z" style="fill:#263238"></path><path d="M148.93,245.36c.15.86.74,1.47,1.3,1.36s.87-.89.72-1.74-.75-1.45-1.31-1.35S148.77,244.51,148.93,245.36Z" style="fill:#263238"></path><path d="M155.69,243.76c.15.81.71,1.4,1.24,1.29s.84-.84.69-1.66-.71-1.39-1.25-1.3S155.54,242.94,155.69,243.76Z" style="fill:#263238"></path><path d="M150.58,240.62a.44.44,0,0,0,.1-.22.39.39,0,0,0-.39-.39,3.83,3.83,0,0,0-3.21,1.56.39.39,0,0,0,.11.54h0a.41.41,0,0,0,.54-.11h0a3,3,0,0,1,2.58-1.19A.44.44,0,0,0,150.58,240.62Z" style="fill:#263238"></path><path d="M157.27,239.73a.52.52,0,0,0,.19-.14.41.41,0,0,0-.16-.54,3.86,3.86,0,0,0-3.56-.16.38.38,0,0,0-.16.53h0a.4.4,0,0,0,.52.16h0a3,3,0,0,1,2.84.19A.42.42,0,0,0,157.27,239.73Z" style="fill:#263238"></path><path d="M154.54,245l-.22,3.79a4.66,4.66,0,0,0,2.69-.65A10.82,10.82,0,0,1,154.54,245Z" style="fill:#d58745"></path><path d="M141.43,248.65s-2.46-3.85-4.38-2.19-.37,8.49,2.8,8S143.23,250.64,141.43,248.65Z" style="fill:#ebb376"></path><path d="M155,251.27a21.16,21.16,0,0,0-1,3l-.56-.05c-2.5-.28-3.56-1.24-4-2.21a3.27,3.27,0,0,1-.23-1.52,3,3,0,0,1,.17-.86,11.73,11.73,0,0,0,4.79,1.56C154.67,251.24,155,251.27,155,251.27Z" style="fill:#263238"></path><path d="M154.15,251.16l-.33.87c-2.35-.27-4-.77-4.63-1.57a3,3,0,0,1,.17-.86A11.73,11.73,0,0,0,154.15,251.16Z" style="fill:#fff"></path><path d="M153.41,254.19c-2.5-.28-3.56-1.24-4-2.21a8.13,8.13,0,0,1,2.71.86A3,3,0,0,1,153.41,254.19Z" style="fill:#de5753"></path><path d="M152.7,231.78c3.81.34,3.24,5-1.25,6.28l1.09-1.51s-3.39,2.7-6.72,1.81a3.76,3.76,0,0,0,2.12-2.87A4.6,4.6,0,0,1,152.7,231.78Z" style="fill:#263238"></path><path d="M132,278.52s-16.69,2.25-18.29-.72c-1.36-2.52-1.27-18.75-1.21-23.51,0-.83,0-1.31,0-1.31H118s0,.45.1,1.2c.33,3.61,1.41,14.09,2.93,13.62,1.84-.57,10.51-1.86,10.51-1.86s2.48.65,2.68,4.37S132,278.52,132,278.52Z" style="fill:#407BFF"></path><path d="M118.12,254.18l-5.66.11c0-.83,0-1.31,0-1.31H118S118.06,253.43,118.12,254.18Z" style="fill:#fff;opacity:0.6000000000000001"></path><path d="M216.53,338.8l-4.75,3.62s-7.66-11.59-13.49-19.77l-.36-.51c-4.23-5.93-14.79-4.24-14.79-4.24l-11.48,35.68-5.11-1.18.76-30.26s-20.48,1.83-27.14-.47-4.69-16.89-4.69-16.89c13.13-3.89,35.21-9.1,35.21-9.1,11-.83,25.77,2.86,30.94,9.68C208.62,314.59,216.53,338.8,216.53,338.8Z" style="fill:#263238"></path><path d="M198.29,322.65l-.36-.51c-4.23-5.93-14.79-4.24-14.79-4.24s1.82-7.53-.53-12.27-21.6-5.15-21.6-5.15,17.54-2,26.64,1.59C194.07,304.58,197.08,316.1,198.29,322.65Z" style="opacity:0.2;isolation:isolate"></path></g></g><g id="freepik--Table--inject-16"><polygon points="179.32 284.81 174.32 415.81 170.32 415.81 173.32 284.81 179.32 284.81" style="fill:#407BFF"></polygon><polygon points="148.32 284.81 143.32 415.81 139.32 415.81 142.32 284.81 148.32 284.81" style="fill:#407BFF"></polygon><rect x="136.32" y="277.8" width="203" height="7" style="fill:#407BFF;isolation:isolate"></rect><rect x="136.32" y="277.8" width="203" height="7" style="fill:#407BFF"></rect><rect x="136.32" y="277.8" width="203" height="7" style="fill:#fff;opacity:0.6000000000000001"></rect><rect x="295.32" y="277.8" width="44" height="7" style="fill:#407BFF;opacity:0.6000000000000001"></rect><polygon points="335.32 284.81 338.32 415.81 334.32 415.81 329.32 284.81 335.32 284.81" style="fill:#407BFF"></polygon><polygon points="304.32 284.81 307.32 415.81 303.32 415.81 298.32 284.81 304.32 284.81" style="fill:#407BFF"></polygon><path d="M212.37,259.36l-1,0c0-.32.84-31.71,24.63-31.71S261,259,261,259.32l-1,0c0-.31-1.15-30.72-24-30.72S212.37,259.05,212.37,259.36Z" style="fill:#407BFF"></path><g style="opacity:0.2;isolation:isolate"><path d="M212.37,259.36l-1,0c0-.32.84-31.71,24.63-31.71S261,259,261,259.32l-1,0c0-.31-1.15-30.72-24-30.72S212.37,259.05,212.37,259.36Z"></path></g><path d="M244.14,256a12.79,12.79,0,0,1-.15,2,10.85,10.85,0,0,1-.65,2.42l-.19.39a7.92,7.92,0,0,1-.56,1,8.07,8.07,0,0,1-.65.86,7.18,7.18,0,0,1-.89.86,8.16,8.16,0,0,1-10.1,0,7.25,7.25,0,0,1-.9-.86,9.67,9.67,0,0,1-.65-.86,9.42,9.42,0,0,1-.56-1l-.18-.39a9.31,9.31,0,0,1-.57-2,11.63,11.63,0,0,1-.23-2.42,16.75,16.75,0,0,1,.41-3.59c.12-.51.26-1,.42-1.49a2.67,2.67,0,0,0,.09-.26c.12-.36.27-.71.41-1.06s.38-.8.58-1.18a12.28,12.28,0,0,1,.67-1.12c1.45-2.16,3.4-3.61,5.55-3.61s4.12,1.45,5.56,3.61a10.36,10.36,0,0,1,.67,1.12c.21.38.4.77.58,1.18s.29.7.41,1.06l.09.26a16.45,16.45,0,0,1,.52,2A15.46,15.46,0,0,1,244.14,256Z" style="fill:#407BFF"></path><g style="opacity:0.4"><path d="M244.14,256a12.79,12.79,0,0,1-.15,2,10.85,10.85,0,0,1-.65,2.42l-.19.39a7.92,7.92,0,0,1-.56,1,8.07,8.07,0,0,1-.65.86,7.18,7.18,0,0,1-.89.86,8.16,8.16,0,0,1-10.1,0,7.25,7.25,0,0,1-.9-.86,9.67,9.67,0,0,1-.65-.86,9.42,9.42,0,0,1-.56-1l-.18-.39a9.31,9.31,0,0,1-.57-2,11.63,11.63,0,0,1-.23-2.42,16.75,16.75,0,0,1,.41-3.59c.12-.51.26-1,.42-1.49a2.67,2.67,0,0,0,.09-.26c.12-.36.27-.71.41-1.06s.38-.8.58-1.18a12.28,12.28,0,0,1,.67-1.12c1.45-2.16,3.4-3.61,5.55-3.61s4.12,1.45,5.56,3.61a10.36,10.36,0,0,1,.67,1.12c.21.38.4.77.58,1.18s.29.7.41,1.06l.09.26a16.45,16.45,0,0,1,.52,2A15.46,15.46,0,0,1,244.14,256Z" style="fill:#fff"></path></g><path d="M257.8,259.93a13.5,13.5,0,0,1-.68,1.89,10.93,10.93,0,0,1-1.29,2.15l-.28.33c-.26.29-.53.56-.8.81a10.22,10.22,0,0,1-.86.65,7.31,7.31,0,0,1-1.1.59,7.84,7.84,0,0,1-5.33.33,7.75,7.75,0,0,1-4.39-3,6.68,6.68,0,0,1-.63-1.07,8,8,0,0,1-.4-1,9.47,9.47,0,0,1-.27-1.11l-.07-.42a9.6,9.6,0,0,1,0-2.08,11.87,11.87,0,0,1,.42-2.4,16.41,16.41,0,0,1,1.37-3.34,14.54,14.54,0,0,1,.81-1.32l.15-.23a10.25,10.25,0,0,1,.68-.91,11.8,11.8,0,0,1,.88-1,11.31,11.31,0,0,1,.94-.9c2-1.69,4.25-2.57,6.32-2s3.57,2.5,4.39,5c.13.4.24.83.34,1.26s.18.85.24,1.29.09.75.11,1.13a2.64,2.64,0,0,1,0,.28,17.39,17.39,0,0,1,0,2A15.76,15.76,0,0,1,257.8,259.93Z" style="fill:#407BFF"></path><path d="M243.57,255.26a4.52,4.52,0,0,1-1.89,2.7,11.87,11.87,0,0,1,.42-2.4,16.41,16.41,0,0,1,1.37-3.34A4.71,4.71,0,0,1,243.57,255.26Z" style="fill:#fff;opacity:0.6000000000000001"></path><path d="M249.73,257c-.56,2-2.12,3.34-3.49,3s-2-2.32-1.46-4.34,2.13-3.34,3.49-3S250.3,255,249.73,257Z" style="fill:#fff;opacity:0.6000000000000001"></path><path d="M255.89,258.69c-.56,2-2.12,3.34-3.49,3s-2-2.33-1.46-4.34,2.13-3.35,3.49-3S256.46,256.67,255.89,258.69Z" style="fill:#fff;opacity:0.6000000000000001"></path><path d="M257.8,259.93a13.5,13.5,0,0,1-.68,1.89,4.79,4.79,0,0,1,0-2.79,5,5,0,0,1,1.22-2.17A15.76,15.76,0,0,1,257.8,259.93Z" style="fill:#fff;opacity:0.6000000000000001"></path><path d="M258.35,254.82l-14.07-3.92.15-.23,13.9,3.87A2.64,2.64,0,0,1,258.35,254.82Z" style="fill:#fff;opacity:0.6000000000000001"></path><path d="M258.22,253.41l-13.11-3.65a11.8,11.8,0,0,1,.88-1l12,3.34Q258.13,252.75,258.22,253.41Z" style="fill:#fff;opacity:0.6000000000000001"></path><path d="M257.64,250.86l-10.71-3c2-1.69,4.25-2.57,6.32-2S256.82,248.39,257.64,250.86Z" style="fill:#fff;opacity:0.6000000000000001"></path><path d="M252.79,266.35a7.84,7.84,0,0,1-5.33.33,7.75,7.75,0,0,1-4.39-3Z" style="fill:#fff;opacity:0.6000000000000001"></path><path d="M254.75,265.11a10.22,10.22,0,0,1-.86.65l-11.45-3.19a8,8,0,0,1-.4-1Z" style="fill:#fff;opacity:0.6000000000000001"></path><polygon points="255.83 263.98 255.55 264.3 241.77 260.46 241.7 260.04 255.83 263.98" style="fill:#fff;opacity:0.6000000000000001"></polygon><path d="M229.91,257.5a12.33,12.33,0,0,1,.37,2,10,10,0,0,1,0,2.51l-.07.43a9.32,9.32,0,0,1-.29,1.1,8,8,0,0,1-.4,1,6.94,6.94,0,0,1-.64,1.06,7.88,7.88,0,0,1-4.42,3,7.78,7.78,0,0,1-5.33-.38,7.22,7.22,0,0,1-1.09-.59,8.81,8.81,0,0,1-.85-.66c-.27-.25-.54-.52-.8-.81l-.27-.33A10.69,10.69,0,0,1,215,264a13,13,0,0,1-.85-2.28,16.55,16.55,0,0,1-.53-3.58c0-.52,0-1,0-1.54a2.64,2.64,0,0,1,0-.28,10.83,10.83,0,0,1,.12-1.13c.06-.44.15-.87.25-1.29a12.06,12.06,0,0,1,.35-1.25c.84-2.47,2.35-4.38,4.42-4.94s4.35.33,6.31,2c.32.28.63.58.94.91s.59.64.87,1,.46.6.67.92l.15.23a16.26,16.26,0,0,1,1,1.77A15.6,15.6,0,0,1,229.91,257.5Z" style="fill:#407BFF"></path><g style="opacity:0.6000000000000001"><path d="M229.91,257.5a12.33,12.33,0,0,1,.37,2,10,10,0,0,1,0,2.51l-.07.43a9.32,9.32,0,0,1-.29,1.1,8,8,0,0,1-.4,1,6.94,6.94,0,0,1-.64,1.06,7.88,7.88,0,0,1-4.42,3,7.78,7.78,0,0,1-5.33-.38,7.22,7.22,0,0,1-1.09-.59,8.81,8.81,0,0,1-.85-.66c-.27-.25-.54-.52-.8-.81l-.27-.33A10.69,10.69,0,0,1,215,264a13,13,0,0,1-.85-2.28,16.55,16.55,0,0,1-.53-3.58c0-.52,0-1,0-1.54a2.64,2.64,0,0,1,0-.28,10.83,10.83,0,0,1,.12-1.13c.06-.44.15-.87.25-1.29a12.06,12.06,0,0,1,.35-1.25c.84-2.47,2.35-4.38,4.42-4.94s4.35.33,6.31,2c.32.28.63.58.94.91s.59.64.87,1,.46.6.67.92l.15.23a16.26,16.26,0,0,1,1,1.77A15.6,15.6,0,0,1,229.91,257.5Z" style="fill:#fff"></path></g><path d="M261.12,259.34a29.84,29.84,0,0,1-.26,3.25c0,.35-.09.7-.15,1-.16.94-.35,1.89-.58,2.84-.08.34-.17.69-.26,1-.25.95-.54,1.9-.86,2.85l-.36,1c-.34.95-.71,1.89-1.11,2.83l-.45,1c-.31.7-.64,1.39-1,2.08H215.88c-.33-.69-.66-1.38-1-2.08l-.45-1c-.4-.94-.77-1.88-1.11-2.83l-.36-1c-.32-1-.61-1.9-.86-2.85-.09-.34-.18-.69-.26-1-.23-1-.42-1.9-.58-2.84-.06-.34-.11-.69-.15-1a29.84,29.84,0,0,1-.26-3.25Z" style="fill:#407BFF"></path><path d="M260.86,262.59c0,.35-.09.7-.15,1H211.29c-.06-.34-.11-.69-.15-1Z" style="opacity:0.2;isolation:isolate"></path><path d="M260.13,266.47c-.08.34-.17.69-.26,1H212.13c-.09-.34-.18-.69-.26-1Z" style="opacity:0.2;isolation:isolate"></path><path d="M259,270.35l-.36,1h-45.3l-.36-1Z" style="opacity:0.2;isolation:isolate"></path><path d="M257.54,274.21l-.45,1H214.91l-.45-1Z" style="opacity:0.2;isolation:isolate"></path><path d="M228.49,277.31h-1a101.51,101.51,0,0,1-1.23-18h1.13A116.54,116.54,0,0,0,228.49,277.31Z" style="fill:#407BFF"></path><path d="M228.49,277.31h-1a101.51,101.51,0,0,1-1.23-18h1.13A116.54,116.54,0,0,0,228.49,277.31Z" style="fill:#fff;opacity:0.2"></path><path d="M244.49,277.31h-1a116.54,116.54,0,0,0,1.08-18h1.13A101.51,101.51,0,0,1,244.49,277.31Z" style="fill:#407BFF"></path><path d="M244.49,277.31h-1a116.54,116.54,0,0,0,1.08-18h1.13A101.51,101.51,0,0,1,244.49,277.31Z" style="fill:#fff;opacity:0.2"></path><rect x="210.14" y="258.67" width="51.73" height="1.33" style="fill:#407BFF"></rect><rect x="210.14" y="258.67" width="51.73" height="1.33" style="fill:#fff;opacity:0.2"></rect><rect x="215.14" y="276.65" width="41.73" height="1.33" style="fill:#407BFF"></rect><rect x="215.14" y="276.65" width="41.73" height="1.33" style="fill:#fff;opacity:0.2"></rect><polygon points="184.07 277.81 190.06 276.82 164.42 276.82 170.4 277.81 184.07 277.81" style="fill:#407BFF"></polygon><path d="M202.35,272h-.78v-1.52h-3.68V272h-.78a.49.49,0,0,0-.49.5v4.82a.49.49,0,0,0,.49.49h5.24a.5.5,0,0,0,.5-.49v-4.82A.5.5,0,0,0,202.35,272Z" style="fill:#407BFF"></path><path d="M202.35,272h-.78v-1.52h-3.68V272h-.78a.49.49,0,0,0-.49.5v4.82a.49.49,0,0,0,.49.49h5.24a.5.5,0,0,0,.5-.49v-4.82A.5.5,0,0,0,202.35,272Z" style="fill:#fff;opacity:0.30000000000000004"></path><rect x="197.51" y="269.76" width="4.45" height="1.29" style="fill:#407BFF"></rect><path d="M196.76,272H196v-1.52H192.3V272h-.77a.5.5,0,0,0-.5.5v4.82a.49.49,0,0,0,.5.49h5.23a.5.5,0,0,0,.5-.49v-4.82A.5.5,0,0,0,196.76,272Z" style="fill:#407BFF"></path><path d="M196.76,272H196v-1.52H192.3V272h-.77a.5.5,0,0,0-.5.5v4.82a.49.49,0,0,0,.5.49h5.23a.5.5,0,0,0,.5-.49v-4.82A.5.5,0,0,0,196.76,272Z" style="fill:#fff;opacity:0.5"></path><rect x="187.99" y="274.94" width="4.45" height="1.29" transform="translate(-144.58 281.81) rotate(-56.45)" style="fill:#407BFF"></rect><path d="M311.35,272h-.78v-1.52h-3.68V272h-.78a.49.49,0,0,0-.49.5v4.82a.49.49,0,0,0,.49.49h5.24a.5.5,0,0,0,.5-.49v-4.82A.5.5,0,0,0,311.35,272Z" style="fill:#407BFF"></path><path d="M311.35,272h-.78v-1.52h-3.68V272h-.78a.49.49,0,0,0-.49.5v4.82a.49.49,0,0,0,.49.49h5.24a.5.5,0,0,0,.5-.49v-4.82A.5.5,0,0,0,311.35,272Z" style="fill:#fff;opacity:0.30000000000000004"></path><rect x="306.51" y="269.76" width="4.45" height="1.29" style="fill:#407BFF"></rect><path d="M305.76,272H305v-1.52H301.3V272h-.77a.5.5,0,0,0-.5.5v4.82a.49.49,0,0,0,.5.49h5.23a.5.5,0,0,0,.5-.49v-4.82A.5.5,0,0,0,305.76,272Z" style="fill:#407BFF"></path><path d="M305.76,272H305v-1.52H301.3V272h-.77a.5.5,0,0,0-.5.5v4.82a.49.49,0,0,0,.5.49h5.23a.5.5,0,0,0,.5-.49v-4.82A.5.5,0,0,0,305.76,272Z" style="fill:#fff;opacity:0.5"></path><rect x="296.99" y="274.94" width="4.45" height="1.29" transform="translate(-95.82 372.65) rotate(-56.45)" style="fill:#407BFF"></rect><polygon points="293.07 277.81 299.06 276.82 273.42 276.82 279.4 277.81 293.07 277.81" style="fill:#407BFF"></polygon></g><g id="freepik--Garland--inject-16"><path d="M247.24,115.62c-115.77,0-164.44-25.93-164.92-26.19l.48-.88c.48.27,49,26.07,164.44,26.07s169.44-26.13,170-26.4l.45.9C417.13,89.38,363,115.62,247.24,115.62Z" style="fill:#407BFF"></path><polygon points="96.16 94.68 98.4 108.03 109.48 98.97 96.16 94.68" style="fill:#407BFF"></polygon><polygon points="109.48 98.97 114.76 112.52 126.79 103.42 109.48 98.97" style="fill:#407BFF"></polygon><polygon points="126.79 103.42 133.46 117.26 144.68 107.02 126.79 103.42" style="fill:#407BFF"></polygon><polygon points="144.68 107.02 150.82 119.64 161.42 110.34 144.68 107.02" style="fill:#407BFF"></polygon><polygon points="161.42 110.34 170.12 123.86 183.05 112.19 161.42 110.34" style="fill:#407BFF"></polygon><polygon points="183.05 112.19 191.75 126.49 205.23 113.91 183.05 112.19" style="fill:#407BFF"></polygon><polygon points="205.23 113.91 214.17 127.55 225.51 114.8 205.23 113.91" style="fill:#407BFF"></polygon><polygon points="225.51 114.8 236.58 129.92 245.59 115.11 225.51 114.8" style="fill:#407BFF"></polygon><polygon points="245.59 115.11 254.78 129.92 265.07 115.11 245.59 115.11" style="fill:#407BFF"></polygon><polygon points="265.07 115.11 275.88 126.49 282.74 114.8 265.07 115.11" style="fill:#407BFF"></polygon><polygon points="282.74 114.8 292.76 126.49 300.94 113.33 282.74 114.8" style="fill:#407BFF"></polygon><polygon points="300.94 113.33 314.12 125.17 322.32 111.08 300.94 113.33" style="fill:#407BFF"></polygon><polygon points="322.32 111.08 333.78 122.36 340.95 108.63 322.32 111.08" style="fill:#407BFF"></polygon><polygon points="340.95 108.63 354.67 119.91 361.33 105.74 340.95 108.63" style="fill:#407BFF"></polygon><polygon points="361.33 105.74 375.64 114.8 378.87 101.25 361.33 105.74" style="fill:#407BFF"></polygon><polygon points="378.87 101.25 390.94 112.83 396.17 96.51 378.87 101.25" style="fill:#407BFF"></polygon><polygon points="396.17 96.51 404.06 107.02 407.84 92.6 396.17 96.51" style="fill:#407BFF"></polygon><polygon points="96.16 94.68 98.4 108.03 109.48 98.97 96.16 94.68" style="fill:#fff;opacity:0.6000000000000001;isolation:isolate"></polygon><polygon points="109.48 98.97 114.76 112.52 126.79 103.42 109.48 98.97" style="fill:#fff;opacity:0.4;isolation:isolate"></polygon><polygon points="126.79 103.42 133.46 117.26 144.68 107.02 126.79 103.42" style="fill:#fff;opacity:0.6000000000000001;isolation:isolate"></polygon><polygon points="144.68 107.02 150.82 119.64 161.42 110.34 144.68 107.02" style="fill:#fff;opacity:0.4;isolation:isolate"></polygon><polygon points="161.42 110.34 170.12 123.86 183.05 112.19 161.42 110.34" style="fill:#fff;opacity:0.6000000000000001;isolation:isolate"></polygon><polygon points="183.05 112.19 191.75 126.49 205.23 113.91 183.05 112.19" style="fill:#fff;opacity:0.4;isolation:isolate"></polygon><polygon points="205.23 113.91 214.17 127.55 225.51 114.8 205.23 113.91" style="fill:#fff;opacity:0.6000000000000001;isolation:isolate"></polygon><polygon points="225.51 114.8 236.58 129.92 245.59 115.11 225.51 114.8" style="fill:#fff;opacity:0.4;isolation:isolate"></polygon><polygon points="245.59 115.11 254.78 129.92 265.07 115.11 245.59 115.11" style="fill:#fff;opacity:0.6000000000000001;isolation:isolate"></polygon><polygon points="265.07 115.11 275.88 126.49 282.74 114.8 265.07 115.11" style="fill:#fff;opacity:0.4;isolation:isolate"></polygon><polygon points="282.74 114.8 292.76 126.49 300.94 113.33 282.74 114.8" style="fill:#fff;opacity:0.6000000000000001;isolation:isolate"></polygon><polygon points="300.94 113.33 314.12 125.17 322.32 111.08 300.94 113.33" style="fill:#fff;opacity:0.4;isolation:isolate"></polygon><polygon points="322.32 111.08 333.78 122.36 340.95 108.63 322.32 111.08" style="fill:#fff;opacity:0.6000000000000001;isolation:isolate"></polygon><polygon points="340.95 108.63 354.67 119.91 361.33 105.74 340.95 108.63" style="fill:#fff;opacity:0.4;isolation:isolate"></polygon><polygon points="361.33 105.74 375.64 114.8 378.87 101.25 361.33 105.74" style="fill:#fff;opacity:0.6000000000000001;isolation:isolate"></polygon><polygon points="378.87 101.25 390.94 112.83 396.17 96.51 378.87 101.25" style="fill:#fff;opacity:0.4;isolation:isolate"></polygon><polygon points="396.17 96.51 404.06 107.02 407.84 92.6 396.17 96.51" style="fill:#fff;opacity:0.6000000000000001;isolation:isolate"></polygon></g></svg>
