<svg xmlns="http://www.w3.org/2000/svg" xmlns:xlink="http://www.w3.org/1999/xlink" viewBox="0 0 500 500"><defs><clipPath id="freepik--clip-path--inject-51"><path d="M225.34,363.73s-14.64,2.18-22.7,8.89-9,10.9-9,10.9h91.48s-18.53-18-27.3-20.61S225.34,363.73,225.34,363.73Z" style="fill:#BA68C8;stroke:#263238;stroke-linecap:round;stroke-linejoin:round"></path></clipPath><clipPath id="freepik--clip-path-2--inject-51"><path d="M240.79,357c-8.44,0-22.69,6.47-26.65,13.23l9.5-4.22L229.1,371l9.22-3.26s2,7.37,3.15,7.3,16-9.24,17.31-11S256.72,356.93,240.79,357Z" style="fill:#BA68C8;stroke:#263238;stroke-linecap:round;stroke-linejoin:round"></path></clipPath><clipPath id="freepik--clip-path-3--inject-51"><path d="M313.84,237.29c-2.35.92-26.47,17.62-31.29,22.56s-7.25,89-10.63,100.36,13.41,21.05,22.53,22.34,20.52,2.35,22.84-4.09,0-37.16,0-37.16,22,30.93,23.1,42.22H452.32S431,267.92,419.53,255.25c-19.26-21.26-65.24-41.08-65.24-41.08Z" style="fill:#fff;stroke:#263238;stroke-linecap:round;stroke-linejoin:round"></path></clipPath><clipPath id="freepik--clip-path-4--inject-51"><path d="M421.15,253.34c-15.42-18.38-35.34-26.58-40.81-26.24s-35.64,39.22-38.95,58.15c0,0-25.42-23.44-27.55-48l-24,15.89s0,36.25,17.09,70.82c0,0,16.93,32.11,20.36,59.52H456.05S436.58,271.73,421.15,253.34Zm-6.85,75c-31.12,13.35-36.93-35.44-36.93-35.44-1.58-8.18-5.53-27.15,8.44-37.18s31.39-3.44,35.87,4.21S445.42,314.94,414.3,328.29Z" style="fill:#BA68C8;stroke:#263238;stroke-linecap:round;stroke-linejoin:round"></path></clipPath><clipPath id="freepik--clip-path-5--inject-51"><path d="M351.22,212.24s8.86.79,13.39,5.39,5.34,7,5.34,7-4.69,23-11.05,36.18l-11-11-9.24,5.52-2,12.36s-3.16-9.66-4.22-12.36-8.7-5.52-8.7-5.52l-5.28,11s-10.4-11.71-9-20.85S324.32,211,351.22,212.24Z" style="fill:#fff;stroke:#263238;stroke-linecap:round;stroke-linejoin:round"></path></clipPath><clipPath id="freepik--clip-path-6--inject-51"><path d="M343.84,214.13l-2.17,5.4c2.42,8.08-7.25,18-13.92,24.65-3.8,3.77-7,3.75-15.45,3.36-4.19-.19-4.44-.38-9.86-9.83-1.7-3-8.88-17.3-9.27-21.19h0c-.48-4.93-1.06-9.43-1.06-9.43s-2.92-5.59-5-7.69c-2.93-3-5.3-21.87-4.43-26.19,2.95-14.38,41.06-34.81,58.22-8.78,7.11,10.81,8.93,26.53,6,42.06" style="fill:#fff;stroke:#263238;stroke-linecap:round;stroke-linejoin:round"></path></clipPath><clipPath id="freepik--clip-path-7--inject-51"><path d="M347.44,173.36a32.4,32.4,0,0,1,1,4c.15.82.25,1.57.32,2.25a20.83,20.83,0,0,1,.07,4c-.05.51-.1.77-.1.77-20.51-33.08-50.86-29-50.86-29a11.31,11.31,0,0,1,1.66-2.16,14.14,14.14,0,0,1,2.06-1.76c.43-.31.88-.6,1.34-.87h0a21.39,21.39,0,0,1,4.69-2c10.38-3.19,25.43-.66,33.26,11.19A51.79,51.79,0,0,1,347.44,173.36Z" style="fill:#BA68C8;stroke:#263238;stroke-linecap:round;stroke-linejoin:round"></path></clipPath><clipPath id="freepik--clip-path-8--inject-51"><path d="M386.3,257.19c-7.92,9.35-26.84,60-33.47,68.95S337.44,345,337.44,345s-49.26,8.28-54,9.33-9,4.8-9,4.8l-7.38.32s-9.59,15.85-.7,28.56l8.08-.4s3.17,3.18,9.5,3.41,52,1.27,61.7,1.81,39.78-4.49,44.53-17.8,32-51.72,33-63.77" style="fill:#fff;stroke:#263238;stroke-linecap:round;stroke-linejoin:round"></path></clipPath><clipPath id="freepik--clip-path-9--inject-51"><path d="M184.85,383.52H60.1s10.06-29,18-46.31c2.83-6.15,5.41-10.82,7.16-12.16,5.58-4.26,19.52-7.68,30.25-8.84a63.22,63.22,0,0,1,7.92-.42c7.53.18,15.56,2.66,23,6h0c14.83,6.7,27.37,16.9,29.13,19.48C178.25,345.18,184.85,383.52,184.85,383.52Z" style="fill:#bfbfbf;stroke:#263238;stroke-linecap:round;stroke-linejoin:round"></path></clipPath><clipPath id="freepik--clip-path-10--inject-51"><path d="M175.25,256c-35.83-4.89-52.39,20.24-52.53,19.31a11.74,11.74,0,0,1-.13-1.67,14.58,14.58,0,0,1,.43-3.71c.15-.63.33-1.26.54-1.87a28.35,28.35,0,0,1,2.6-5.42,36.47,36.47,0,0,1,4-5.42s-.2-2.45,3.95-5.42,5.28-.69,5.28-.69c9.37-3.37,17.2-3,23.12-1.53h0a33.81,33.81,0,0,1,5.05,1.72c.41.18.8.35,1.17.53a31.47,31.47,0,0,1,3.73,2.1A20.32,20.32,0,0,1,175.25,256Z" style="fill:#BA68C8;stroke:#263238;stroke-linecap:round;stroke-linejoin:round"></path></clipPath><clipPath id="freepik--clip-path-11--inject-51"><path d="M199.2,368a.86.86,0,0,1,0,.16l-.1,1-.8,8.16,0,.46a1.59,1.59,0,1,1-3.16-.31l0-.3.69-6.87.24-2.43a1.58,1.58,0,0,1,3.16.15Z" style="fill:#BA68C8;stroke:#263238;stroke-linecap:round;stroke-linejoin:round"></path></clipPath><clipPath id="freepik--clip-path-12--inject-51"><path d="M207,379.14l-.39,4a14.93,14.93,0,0,1-8.72,12.13l-2.92,1.32-.18.08-2.77-2a14.94,14.94,0,0,1-6.15-13.61l.4-4a2.59,2.59,0,0,1,2-2.27l8-1.86a2.49,2.49,0,0,1,1,0,2.41,2.41,0,0,1,.68.2l7.52,3.41A2.58,2.58,0,0,1,207,379.14Z" style="fill:#BA68C8;stroke:#263238;stroke-linecap:round;stroke-linejoin:round"></path></clipPath><clipPath id="freepik--clip-path-13--inject-51"><path d="M287.67,385.61l-.15,0-.9.15L279.14,387l-.42.07a1.47,1.47,0,1,1-.49-2.9l.28,0,6.3-1,2.23-.38a1.47,1.47,0,0,1,.63,2.86Z" style="fill:#BA68C8;stroke:#263238;stroke-linecap:round;stroke-linejoin:round"></path></clipPath><clipPath id="freepik--clip-path-14--inject-51"><path d="M279.58,395.24l-3.68.62A13.81,13.81,0,0,1,263,391l-1.89-2.29-.11-.14,1.11-3a13.82,13.82,0,0,1,10.66-8.78l3.68-.61a2.4,2.4,0,0,1,2.51,1.25l3.6,6.72a2.4,2.4,0,0,1,.28.87,2.37,2.37,0,0,1,0,.65l-1.23,7.54A2.38,2.38,0,0,1,279.58,395.24Z" style="fill:#BA68C8;stroke:#263238;stroke-linecap:round;stroke-linejoin:round"></path></clipPath><clipPath id="freepik--clip-path-15--inject-51"><path d="M133.68,394.52v1.73c0,.9,2.66,1.62,5.94,1.62s5.93-.72,5.93-1.62v-1.73" style="fill:#BA68C8;stroke:#263238;stroke-linecap:round;stroke-linejoin:round"></path></clipPath><clipPath id="freepik--clip-path-16--inject-51"><path d="M151.42,403.82v1.73c0,.9,2.66,1.62,5.94,1.62s5.93-.72,5.93-1.62v-1.73" style="fill:#BA68C8;stroke:#263238;stroke-linecap:round;stroke-linejoin:round"></path></clipPath><clipPath id="freepik--clip-path-17--inject-51"><path d="M127.75,408.41v1.73c0,.9,2.65,1.62,5.93,1.62s5.94-.72,5.94-1.62v-1.73" style="fill:#BA68C8;stroke:#263238;stroke-linecap:round;stroke-linejoin:round"></path></clipPath><clipPath id="freepik--clip-path-18--inject-51"><path d="M157.91,396.14v1.73c0,.9,2.66,1.62,5.94,1.62s5.93-.72,5.93-1.62v-1.73" style="fill:#BA68C8;stroke:#263238;stroke-linecap:round;stroke-linejoin:round"></path></clipPath><clipPath id="freepik--clip-path-19--inject-51"><path d="M299.28,400v1.73c0,.9,2.66,1.62,5.94,1.62s5.93-.72,5.93-1.62V400" style="fill:#BA68C8;stroke:#263238;stroke-linecap:round;stroke-linejoin:round"></path></clipPath><clipPath id="freepik--clip-path-20--inject-51"><path d="M250.14,399.12v1.73c0,.89,2.65,1.62,5.93,1.62s5.94-.73,5.94-1.62v-1.73" style="fill:#BA68C8;stroke:#263238;stroke-linecap:round;stroke-linejoin:round"></path></clipPath><clipPath id="freepik--clip-path-21--inject-51"><path d="M100.42,395.28V397c0,.89,2.66,1.62,5.93,1.62s5.94-.73,5.94-1.62v-1.73" style="fill:#BA68C8;stroke:#263238;stroke-linecap:round;stroke-linejoin:round"></path></clipPath><clipPath id="freepik--clip-path-22--inject-51"><path d="M285.07,412.88v1.73c0,.9,2.65,1.62,5.93,1.62s5.93-.72,5.93-1.62v-1.73" style="fill:#BA68C8;stroke:#263238;stroke-linecap:round;stroke-linejoin:round"></path></clipPath><clipPath id="freepik--clip-path-23--inject-51"><path d="M317,409.28V411c0,.89,2.66,1.62,5.94,1.62s5.93-.73,5.93-1.62v-1.73" style="fill:#BA68C8;stroke:#263238;stroke-linecap:round;stroke-linejoin:round"></path></clipPath><clipPath id="freepik--clip-path-24--inject-51"><path d="M323.51,401.6v1.73c0,.9,2.66,1.62,5.94,1.62s5.93-.72,5.93-1.62V401.6" style="fill:#BA68C8;stroke:#263238;stroke-linecap:round;stroke-linejoin:round"></path></clipPath></defs><g id="freepik--background-simple--inject-51"><path d="M41.67,293.72a108.55,108.55,0,0,1,5.79-64.5c11.55-28.56,36.36-48.85,64.17-60.69C152,151.32,191.7,151,224.54,117.28c10.13-10.4,18.64-22.31,29-32.49,30.52-30,75.2-26.4,108.55-2.58,69.59,49.69,94.62,148.11,90.75,229.47-1.74,36.51-19.17,70.49-46.76,94.45-62.4,54.18-168.36,45.06-240,16.78C112.59,401.82,54.22,352.62,41.67,293.72Z" style="fill:#BA68C8"></path><path d="M41.67,293.72a108.55,108.55,0,0,1,5.79-64.5c11.55-28.56,36.36-48.85,64.17-60.69C152,151.32,191.7,151,224.54,117.28c10.13-10.4,18.64-22.31,29-32.49,30.52-30,75.2-26.4,108.55-2.58,69.59,49.69,94.62,148.11,90.75,229.47-1.74,36.51-19.17,70.49-46.76,94.45-62.4,54.18-168.36,45.06-240,16.78C112.59,401.82,54.22,352.62,41.67,293.72Z" style="fill:#fff;opacity:0.7000000000000001"></path></g><g id="freepik--Plant--inject-51"><path d="M113.39,269.68c-4.72-5.39-19.53,8.31-19.53,8.31,4.45-12.47,16-18.89,18.91-30.38s-5.56-17.06-8.89-4.22-12.8,27.87-12.8,27.87c6-20.67,7.74-55.17.32-55.17-5.81,0-5.92,7.94-4.26,22s-2,34.47-2,34.47-3.15-22.76-7.3-27.15-11.06-3-3.31,14.55c4.72,10.73,6.13,22.44,6.5,30.23H92.26a31.54,31.54,0,0,1,14.13-13.91C109.32,274.91,116.05,272.72,113.39,269.68Z" style="fill:none;stroke:#263238;stroke-linecap:round;stroke-linejoin:round"></path><path d="M86.52,290.22c2.51-18.07,6.5-37,5.35-55.73" style="fill:none;stroke:#263238;stroke-linecap:round;stroke-linejoin:round"></path><path d="M78.46,259.11c4.2,9.51,5.81,20.81,6.61,31.11" style="fill:none;stroke:#263238;stroke-linecap:round;stroke-linejoin:round"></path><path d="M106.87,250.59S97.22,271,88.39,278.76" style="fill:none;stroke:#263238;stroke-linecap:round;stroke-linejoin:round"></path><path d="M106.87,272.53s-16.31,11.25-20.31,17.69" style="fill:none;stroke:#263238;stroke-linecap:round;stroke-linejoin:round"></path><polygon points="107.93 290.22 62.51 290.22 66.03 338.52 104.41 338.52 107.93 290.22" style="fill:none;stroke:#263238;stroke-linecap:round;stroke-linejoin:round"></polygon><path d="M102.11,249c-1.53-2.6-4.65-2.34-6.76-.11" style="fill:none;stroke:#263238;stroke-linecap:round;stroke-linejoin:round"></path><path d="M79.05,274.51s-8.77-13.9-12.11-26.74-11.86-7.28-8.89,4.21S72.51,269.89,77,282.36c0,0-14.8-13.7-19.53-8.3-2.66,3,4.07,5.23,7,6.63a29.14,29.14,0,0,1,11.43,9.53h16" style="fill:none;stroke:#263238;stroke-linecap:round;stroke-linejoin:round"></path><path d="M86.22,225.88c-1.47-4.82-3.43-6.32-6.8-5.42-4.57,1.23-1.28,13.66.42,28.54" style="fill:none;stroke:#263238;stroke-linecap:round;stroke-linejoin:round"></path><line x1="45.78" y1="338.52" x2="455.97" y2="338.52" style="fill:none;stroke:#263238;stroke-linecap:round;stroke-linejoin:round"></line></g><g id="freepik--Window--inject-51"><polyline points="226.93 235.24 226.93 77.48 240.34 77.48" style="fill:none;stroke:#263238;stroke-linecap:round;stroke-linejoin:round"></polyline><line x1="226.93" y1="261.03" x2="226.93" y2="255.28" style="fill:none;stroke:#263238;stroke-linecap:round;stroke-linejoin:round"></line><polyline points="274.85 77.48 413.26 77.48 413.26 281.22 226.93 281.22" style="fill:none;stroke:#263238;stroke-linecap:round;stroke-linejoin:round"></polyline><line x1="257.87" y1="77.48" x2="270.04" y2="77.48" style="fill:none;stroke:#263238;stroke-linecap:round;stroke-linejoin:round"></line><rect x="233.94" y="84.48" width="172.32" height="189.76" style="fill:none;stroke:#263238;stroke-linecap:round;stroke-linejoin:round"></rect><polyline points="398.24 97.79 398.24 171.6 241.95 171.6 241.95 164.86" style="fill:none;stroke:#263238;stroke-linecap:round;stroke-linejoin:round"></polyline><polyline points="241.95 149.07 241.95 91.81 398.24 91.81" style="fill:none;stroke:#263238;stroke-linecap:round;stroke-linejoin:round"></polyline><line x1="241.95" y1="159.69" x2="241.95" y2="153.14" style="fill:none;stroke:#263238;stroke-linecap:round;stroke-linejoin:round"></line><line x1="371.85" y1="179.35" x2="406.26" y2="179.35" style="fill:none;stroke:#263238;stroke-linecap:round;stroke-linejoin:round"></line><line x1="359.62" y1="179.35" x2="364.49" y2="179.35" style="fill:none;stroke:#263238;stroke-linecap:round;stroke-linejoin:round"></line><line x1="233.94" y1="179.35" x2="353.8" y2="179.35" style="fill:none;stroke:#263238;stroke-linecap:round;stroke-linejoin:round"></line><polyline points="311.44 171.6 311.44 168.04 325.85 168.04 325.85 170.06 320.1 170.06 320.1 171.6" style="fill:none;stroke:#263238;stroke-linecap:round;stroke-linejoin:round"></polyline><path d="M234.24,243s2.38,1.81,4.06,12.76c0,0,2.9-17.49,6.41-17.76s2.79,11.38,2.79,11.38.58-5.74,3.33-5.48,0,11.86,0,11.86,3.3-9,6.42-8.88-2.07,16.37-2.07,16.37,8-5.8,11.25-3-1.8,10-1.8,10,11.49-2.49,13.28,4.25" style="fill:none;stroke:#263238;stroke-linecap:round;stroke-linejoin:round"></path><path d="M277.91,268s5-3.28,8.94-1.75c0,0-2.5-3.82,0-6.15s5.73,6.15,5.73,6.15.35-14.21,5.36-13.5,0,13.5,0,13.5,8.95-7.93,11.09-5.17S307.6,268,307.6,268s5.37-1.71,9.3,2.28c0,0,6-6.11,12.66-7,0,0-4.43-12.86-2.28-15.46S333.33,259,333.33,259s1.7-9,7.29-9.68c0,0-4.65-2.54-3.27-6.38s7.82.9,7.82.9-2.65-6.75,1.54-8.61,5.93,5.66,5.93,5.66,1.16-7.87,6.09-7.44,3.32,9.49,3.32,9.49,4.64-7.2,7.13-6.46c5,1.46,3.46,12.84,3.46,12.84s6.93-4.82,8.71-2.6c1.93,2.39-7.2,8.55-7.2,8.55s6.87.76,11.15,4.77" style="fill:none;stroke:#263238;stroke-linecap:round;stroke-linejoin:round"></path><path d="M406.26,245.55s-.79-7.22-8-7.6,2,15.83,2,15.83-6-4.92-8.09-3.41,6.1,9.87,6.1,9.87-3.95-3.66-8.13-2.53,2.39,12.75,2.39,12.75a29.83,29.83,0,0,0-18.35,2.15" style="fill:none;stroke:#263238;stroke-linecap:round;stroke-linejoin:round"></path></g><g id="freepik--Lamps--inject-51"><line x1="127.24" y1="122.04" x2="127.24" y2="137.82" style="fill:none;stroke:#263238;stroke-linecap:round;stroke-linejoin:round"></line><line x1="127.24" y1="105.93" x2="127.24" y2="119.35" style="fill:none;stroke:#263238;stroke-linecap:round;stroke-linejoin:round"></line><line x1="127.24" y1="90.5" x2="127.24" y2="100.47" style="fill:none;stroke:#263238;stroke-linecap:round;stroke-linejoin:round"></line><path d="M141.94,159.36c-1.13-11.8-7.28-20.83-14.7-20.83s-13.56,9-14.69,20.83Z" style="fill:none;stroke:#263238;stroke-linecap:round;stroke-linejoin:round"></path><line x1="161.17" y1="102.59" x2="161.17" y2="137.82" style="fill:none;stroke:#263238;stroke-linecap:round;stroke-linejoin:round"></line><line x1="161.17" y1="91.29" x2="161.17" y2="98.97" style="fill:none;stroke:#263238;stroke-linecap:round;stroke-linejoin:round"></line><path d="M175.87,159.36c-1.14-11.8-7.28-20.83-14.7-20.83s-13.56,9-14.7,20.83Z" style="fill:none;stroke:#263238;stroke-linecap:round;stroke-linejoin:round"></path><line x1="195.1" y1="129.93" x2="195.1" y2="137.82" style="fill:none;stroke:#263238;stroke-linecap:round;stroke-linejoin:round"></line><line x1="195.1" y1="96.53" x2="195.1" y2="126.97" style="fill:none;stroke:#263238;stroke-linecap:round;stroke-linejoin:round"></line><line x1="195.1" y1="83.46" x2="195.1" y2="88.79" style="fill:none;stroke:#263238;stroke-linecap:round;stroke-linejoin:round"></line><path d="M209.79,159.36c-1.13-11.8-7.28-20.83-14.69-20.83s-13.57,9-14.7,20.83Z" style="fill:none;stroke:#263238;stroke-linecap:round;stroke-linejoin:round"></path><line x1="161.17" y1="86.12" x2="161.17" y2="85.02" style="fill:none;stroke:#263238;stroke-linecap:round;stroke-linejoin:round"></line></g><g id="freepik--character-2--inject-51"><path d="M225.34,363.73s-14.64,2.18-22.7,8.89-9,10.9-9,10.9h91.48s-18.53-18-27.3-20.61S225.34,363.73,225.34,363.73Z" style="fill:#BA68C8"></path><g style="clip-path:url(#freepik--clip-path--inject-51)"><path d="M225.34,363.73s-14.64,2.18-22.7,8.89-9,10.9-9,10.9h91.48s-18.53-18-27.3-20.61S225.34,363.73,225.34,363.73Z" style="fill-opacity:0.7000000000000001;opacity:0.30000000000000004"></path></g><path d="M225.34,363.73s-14.64,2.18-22.7,8.89-9,10.9-9,10.9h91.48s-18.53-18-27.3-20.61S225.34,363.73,225.34,363.73Z" style="fill:none;stroke:#263238;stroke-linecap:round;stroke-linejoin:round"></path><path d="M219.13,366l-6.49,7.3,11-3.65,5.46,8.13,6.25-5.68s5.15,7.16,5.44,7.2,19.42-11.38,17-14.58S229.42,361.18,219.13,366Z" style="fill-opacity:0.7000000000000001;opacity:0.2"></path><path d="M240.79,357c-8.44,0-22.69,6.47-26.65,13.23l9.5-4.22L229.1,371l9.22-3.26s2,7.37,3.15,7.3,16-9.24,17.31-11S256.72,356.93,240.79,357Z" style="fill:#BA68C8"></path><g style="clip-path:url(#freepik--clip-path-2--inject-51)"><path d="M240.79,357c-8.44,0-22.69,6.47-26.65,13.23l9.5-4.22L229.1,371l9.22-3.26s2,7.37,3.15,7.3,16-9.24,17.31-11S256.72,356.93,240.79,357Z" style="fill-opacity:0.7000000000000001;opacity:0.30000000000000004"></path></g><path d="M240.79,357c-8.44,0-22.69,6.47-26.65,13.23l9.5-4.22L229.1,371l9.22-3.26s2,7.37,3.15,7.3,16-9.24,17.31-11S256.72,356.93,240.79,357Z" style="fill:none;stroke:#263238;stroke-linecap:round;stroke-linejoin:round"></path><path d="M257.77,345.05s-4.75,4.6-4.75,15.49l-22.22,6.4c-1.92-2-2.7-5-3-7.75a30,30,0,0,1,.23-7.21l.89-.21Z" style="fill:#fff;stroke:#263238;stroke-linecap:round;stroke-linejoin:round"></path><path d="M248.23,351.66s-6.36,11.47-20.38,7.53a30,30,0,0,1,.23-7.21l.89-.21C237.33,351.19,248.23,351.66,248.23,351.66Z" style="fill:#263238"></path><path d="M258.78,344.78c9.84-16.89,15.17-48.94-22.07-46.6-15.23.95-24.22,31.84-20.12,47.24s26.83,11.49,33.41,6.24" style="fill:#fff;stroke:#263238;stroke-linecap:round;stroke-linejoin:round"></path><path d="M221.57,317.38a6.53,6.53,0,0,1,7.53-2.26" style="fill:none;stroke:#263238;stroke-linecap:round;stroke-linejoin:round;stroke-width:2px"></path><path d="M240.79,316.72a6.88,6.88,0,0,1,7.44,4.09" style="fill:none;stroke:#263238;stroke-linecap:round;stroke-linejoin:round;stroke-width:2px"></path><path d="M243,327.31c-.37,1.34-1.34,2.23-2.17,2s-1.2-1.5-.83-2.83,1.34-2.23,2.17-2S243.34,326,243,327.31Z" style="fill:#263238"></path><path d="M226.84,324.86c-.37,1.34-1.35,2.23-2.17,2s-1.2-1.5-.83-2.83,1.34-2.23,2.17-2S227.21,323.53,226.84,324.86Z" style="fill:#263238"></path><path d="M229.1,326.9s-3.82,2.54-4.42,2.14-1.38.48-1.28,1.82,2,2.93,2.84,3.13" style="fill:#fff;stroke:#263238;stroke-linecap:round;stroke-linejoin:round"></path><path d="M225.34,338.24c1.79.46,3.26,4.6.9,6S222.23,337.45,225.34,338.24Z" style="fill:#fff;stroke:#263238;stroke-linecap:round;stroke-linejoin:round"></path><path d="M239.72,293.84c-8,.47-20.28,7.82-19.39,18.2l2.47-.69s1.15-4.9,3.44-6.26a14.34,14.34,0,0,0-.69,5.86s1.94-4.5,3.55-5.86a12,12,0,0,0,0,6.26l4.78-.1a18.22,18.22,0,0,1,4.65-6.16s-.79,4.77,0,7c0,0,1-5,2.26-6.43,0,0,1.89,6.07,5.65,9.07s6.45,3.49,6.45,3.49a17.26,17.26,0,0,1,1.56,6.14c.1,3.16-1.09,11.86-1.09,11.86s4.67-6.17,5.74-5.63c3.51,1.73.94,13-3.68,19.2a3.72,3.72,0,0,0,3.29,0c1.48-.91,9.63-11.14,11.88-24.29S261.57,292.56,239.72,293.84Z" style="fill:#263238"></path><path d="M257.42,333.5c.79-.79,2.27-2,4-.59s3.26,3.66,1.48,8.21-6.92,9.39-8.21,8.21-.49-3.62-.49-3.62" style="fill:#fff;stroke:#263238;stroke-linecap:round;stroke-linejoin:round"></path><g style="opacity:0.30000000000000004"><path d="M251.21,310a11.48,11.48,0,0,0,3.45,2.31" style="fill:none;stroke:#fff;stroke-linecap:round;stroke-linejoin:round"></path><path d="M245.53,298.85a21.35,21.35,0,0,0,4.3,9.6" style="fill:none;stroke:#fff;stroke-linecap:round;stroke-linejoin:round"></path><path d="M235.55,302.86q-.88,1.58-1.65,3.21" style="fill:none;stroke:#fff;stroke-linecap:round;stroke-linejoin:round"></path><path d="M239,298.06a13.8,13.8,0,0,0-2.31,2.85" style="fill:none;stroke:#fff;stroke-linecap:round;stroke-linejoin:round"></path><path d="M236.47,297.07s-5.71.4-8.18,5" style="fill:none;stroke:#fff;stroke-linecap:round;stroke-linejoin:round"></path></g><path d="M252.18,295.61s19.35,11.16,17.09,35.37a27.44,27.44,0,0,0,0-22.05C262.68,293.89,252.18,295.61,252.18,295.61Z" style="fill:#BA68C8;stroke:#263238;stroke-linecap:round;stroke-linejoin:round"></path><line x1="463.48" y1="383.52" x2="42.56" y2="383.52" style="fill:#fff;stroke:#263238;stroke-linecap:round;stroke-linejoin:round"></line></g><g id="freepik--character-3--inject-51"><path d="M313.84,237.29c-2.35.92-26.47,17.62-31.29,22.56s-7.25,89-10.63,100.36,13.41,21.05,22.53,22.34,20.52,2.35,22.84-4.09,0-37.16,0-37.16,22,30.93,23.1,42.22H452.32S431,267.92,419.53,255.25c-19.26-21.26-65.24-41.08-65.24-41.08Z" style="fill:#fff"></path><g style="clip-path:url(#freepik--clip-path-3--inject-51)"><path d="M452.32,383.52H340.43c-.31-3.22-2.34-8-5.07-13.31-6.81-13.13-18-28.91-18-28.91s2.27,30.72,0,37.16-13.72,5.37-22.84,4.09-25.9-10.95-22.53-22.34a72.8,72.8,0,0,0,1.6-10.84c2.65-26.06,5-85.39,9-89.52s21.95-16.76,28.79-21.1a21.22,21.22,0,0,1,2.5-1.46l40.45-23.12s7.48,3.22,17.68,8.48c15.07,7.75,36.07,19.92,47.56,32.6S452.32,383.52,452.32,383.52Z" style="fill:#BA68C8;opacity:0.2"></path><path d="M317.33,341.3s2.27,30.72,0,37.16-13.72,5.37-22.84,4.09-25.9-10.95-22.53-22.34a72.8,72.8,0,0,0,1.6-10.84c9.94-5.91,23.51-4.57,23.51-4.57l4.17-19.75c-5.76-3.41-12-24.8-12-24.8L297,308c-11-12.58-7.22-32-7.22-32s12.14,15,21.62,29.13c6.13,9.14,19.21,41.31,23.93,65.07C328.55,357.08,317.33,341.3,317.33,341.3Z" style="fill-opacity:0.7000000000000001;opacity:0.2"></path><path d="M353.37,263.84l-12-6.18-4.68,9.95L327,257.19l-6.28,5.48c-6.49-8.89-9.26-16.91-9.38-23.92a21.22,21.22,0,0,1,2.5-1.46l40.45-23.12s7.48,3.22,17.68,8.48C374.49,250.11,353.37,263.84,353.37,263.84Z" style="fill-opacity:0.7000000000000001;opacity:0.2"></path><path d="M421.42,312.5s4.48,14.48-7.12,28.8-38.51-1.3-46.95-30,10.55-50.56,17.14-48.61S421.42,312.5,421.42,312.5Z" style="fill-opacity:0.7000000000000001;opacity:0.2"></path></g><path d="M313.84,237.29c-2.35.92-26.47,17.62-31.29,22.56s-7.25,89-10.63,100.36,13.41,21.05,22.53,22.34,20.52,2.35,22.84-4.09,0-37.16,0-37.16,22,30.93,23.1,42.22H452.32S431,267.92,419.53,255.25c-19.26-21.26-65.24-41.08-65.24-41.08Z" style="fill:none;stroke:#263238;stroke-linecap:round;stroke-linejoin:round"></path><path d="M336.71,267.61c-1,7.3-2.77,7.7-2.28,10.86s7.68,25.27,8,32.81,3.77,16.27,3.77,16.27" style="fill:none;stroke:#263238;stroke-linecap:round;stroke-linejoin:round"></path><path d="M287.28,280.41c-1.08-3-2.18-6.2-2.21-9.41" style="fill:none;stroke:#263238;stroke-linecap:round;stroke-linejoin:round"></path><path d="M317.33,341.3C314,329,308,319,302,308c-5-8-11-16-13.62-24.7" style="fill:none;stroke:#263238;stroke-linecap:round;stroke-linejoin:round"></path><path d="M288.28,297.61s7,14.59,17.5,16.91" style="fill:none;stroke:#263238;stroke-linecap:round;stroke-linejoin:round"></path><path d="M340.28,279.07c.15,1.15-.4,2.18-1.22,2.29s-1.61-.75-1.76-1.9.39-2.18,1.21-2.29S340.13,277.91,340.28,279.07Z" style="fill:#263238"></path><path d="M421.15,253.34c-15.42-18.38-35.34-26.58-40.81-26.24s-35.64,39.22-38.95,58.15c0,0-25.42-23.44-27.55-48l-24,15.89s0,36.25,17.09,70.82c0,0,16.93,32.11,20.36,59.52H456.05S436.58,271.73,421.15,253.34Zm-6.85,75c-31.12,13.35-36.93-35.44-36.93-35.44-1.58-8.18-5.53-27.15,8.44-37.18s31.39-3.44,35.87,4.21S445.42,314.94,414.3,328.29Z" style="fill:#BA68C8"></path><g style="clip-path:url(#freepik--clip-path-4--inject-51)"><g style="opacity:0.4"><path d="M320.72,328.29l14.86,23.59-5,23.89-5.87-5.49a206.15,206.15,0,0,0-10.61-30.92h0Z" style="fill:#fff"></path><polygon points="339.66 332.46 355.58 354.9 350.62 375.77 335.58 351.88 339.66 332.46" style="fill:#fff"></polygon><polygon points="361.9 328.29 381.89 356.38 372.89 379.3 355.58 354.9 361.9 328.29" style="fill:#fff"></polygon><polygon points="388.41 339.79 404.19 361.18 398.55 379.78 381.89 356.38 388.41 339.79" style="fill:#fff"></polygon><path d="M411.93,337.11l11,16c-3,12.35-6.16,25.18-6.16,25.18l-12.61-17.09,7.25-23.92.18-.6Z" style="fill:#fff"></path><path d="M445.26,348.88l-5.51,28.56L423,353.09c2.65-11,5.1-21.7,4.92-22.49S436,338.81,445.26,348.88Z" style="fill:#fff"></path><path d="M450.59,354.71l-5.33-5.83,2-10.37C448.47,344.22,449.59,349.68,450.59,354.71Z" style="fill:#fff"></path><path d="M421.15,253.34a87.48,87.48,0,0,0-7.7-8.07h0c-5.8-2.42-12.39-2.58-19.58.49-17.37,7.42-31.26,21.85-21,60.32,7.12,26.63,22.82,35.77,38.55,31.19h0l.49-.14c6.83-2.11,13.64-6.79,19.75-13.74,4.28-4.87,6.73-11.83,7.58-19.63C433.51,281,427,260.37,421.15,253.34Zm-6.85,75c-31.12,13.35-36.93-35.44-36.93-35.44-1.58-8.18-5.53-27.15,8.44-37.18s31.39-3.44,35.87,4.21S445.42,314.94,414.3,328.29Z" style="fill:#fff"></path><path d="M303.47,316.52a180.9,180.9,0,0,1-13.66-63.34l3.67-2.42C295.37,265.16,299.76,297.45,303.47,316.52Z" style="fill:#fff"></path><path d="M384.83,227.83c-25.43,17.52-41.92,63.1-41.92,63.1-23.86-15.73-30.54-37.32-32-51.71l2.92-1.93c2.13,24.52,27.55,48,27.55,48,3.31-18.93,33.48-57.81,38.95-58.15A14.41,14.41,0,0,1,384.83,227.83Z" style="fill:#fff"></path></g></g><path d="M421.15,253.34c-15.42-18.38-35.34-26.58-40.81-26.24s-35.64,39.22-38.95,58.15c0,0-25.42-23.44-27.55-48l-24,15.89s0,36.25,17.09,70.82c0,0,16.93,32.11,20.36,59.52H456.05S436.58,271.73,421.15,253.34Zm-6.85,75c-31.12,13.35-36.93-35.44-36.93-35.44-1.58-8.18-5.53-27.15,8.44-37.18s31.39-3.44,35.87,4.21S445.42,314.94,414.3,328.29Z" style="fill:none;stroke:#263238;stroke-linecap:round;stroke-linejoin:round"></path><path d="M425.51,324.36s-12.27,13.06-27.7,12.27S364,301.83,374.87,266" style="fill:none;stroke:#263238;stroke-linecap:round;stroke-linejoin:round"></path><path d="M311.43,240.74s5.07,35,31.48,50.19c0,0,19.39-49.25,37.74-59.93" style="fill:none;stroke:#263238;stroke-linecap:round;stroke-linejoin:round"></path><path d="M292.53,253.34s2.9,39.59,10.61,59.16" style="fill:none;stroke:#263238;stroke-linecap:round;stroke-linejoin:round"></path><path d="M359.93,312.5s-11.88,31.92-34.87,40.29" style="fill:none;stroke:#263238;stroke-linecap:round;stroke-linejoin:round"></path><path d="M427.88,341.3s-7,26.42-47.23,30.06" style="fill:none;stroke:#263238;stroke-linecap:round;stroke-linejoin:round"></path><path d="M351.22,212.24s8.86.79,13.39,5.39,5.34,7,5.34,7-4.69,23-11.05,36.18l-11-11-9.24,5.52-2,12.36s-3.16-9.66-4.22-12.36-8.7-5.52-8.7-5.52l-5.28,11s-10.4-11.71-9-20.85S324.32,211,351.22,212.24Z" style="fill:#fff"></path><g style="clip-path:url(#freepik--clip-path-5--inject-51)"><path d="M351.22,212.24s8.86.79,13.39,5.39,5.34,7,5.34,7-4.69,23-11.05,36.18l-11-11-9.24,5.52-2,12.36s-3.16-9.66-4.22-12.36-8.7-5.52-8.7-5.52l-5.28,11s-10.4-11.71-9-20.85S324.32,211,351.22,212.24Z" style="fill:#BA68C8;opacity:0.2"></path></g><path d="M351.22,212.24s8.86.79,13.39,5.39,5.34,7,5.34,7-4.69,23-11.05,36.18l-11-11-9.24,5.52-2,12.36s-3.16-9.66-4.22-12.36-8.7-5.52-8.7-5.52l-5.28,11s-10.4-11.71-9-20.85S324.32,211,351.22,212.24Z" style="fill:none;stroke:#263238;stroke-linecap:round;stroke-linejoin:round"></path><path d="M357.43,217.78,339.1,248.35l-1.65,7.32-3.61-6.2A25.13,25.13,0,0,1,330,247.3a44.94,44.94,0,0,1-8.37-7.84c-2.1-2.42-4.07-5-6-7.28-7.32-8.8-8.79-42.92,26.59-45.45C342.24,186.73,346.49,206.86,357.43,217.78Z" style="fill:#fff;stroke:#263238;stroke-linecap:round;stroke-linejoin:round"></path><path d="M330,247.3a44.94,44.94,0,0,1-8.37-7.84c2.77-6.27,9.55-13.6,18.63-15.58C340.29,223.88,341,241.08,330,247.3Z" style="fill:#263238"></path><path d="M330.52,151.41s1.48-1.57,5,.45,3.81,8.08,3.81,8.08Z" style="fill:#BA68C8;stroke:#263238;stroke-linecap:round;stroke-linejoin:round"></path><path d="M343.84,214.13l-2.17,5.4c2.42,8.08-7.25,18-13.92,24.65-3.8,3.77-7,3.75-15.45,3.36-4.19-.19-4.44-.38-9.86-9.83-1.7-3-8.88-17.3-9.27-21.19h0c-.48-4.93-1.06-9.43-1.06-9.43s-2.92-5.59-5-7.69c-2.93-3-5.3-21.87-4.43-26.19,2.95-14.38,41.06-34.81,58.22-8.78,7.11,10.81,8.93,26.53,6,42.06" style="fill:#fff"></path><g style="clip-path:url(#freepik--clip-path-6--inject-51)"><path d="M343.84,214.13l-2.17,5.4c2.42,8.08-7.25,18-13.92,24.65-3.8,3.77-7,3.75-15.45,3.36-4.19-.19-4.44-.38-9.86-9.83-1.7-3-8.88-17.3-9.27-21.19h0s3,6.36,5.41,9c0,0,2.91-2.61,6.41-2.09,0,0,8.42-6,10.25-6.58s9.44-.4,12.41-.82,7.75-8.87,7.1-10.2-2.29-7-2.29-7l5.18,3A50.53,50.53,0,0,1,343.84,214.13Z" style="fill-opacity:0.7000000000000001;opacity:0.5"></path></g><path d="M343.84,214.13l-2.17,5.4c2.42,8.08-7.25,18-13.92,24.65-3.8,3.77-7,3.75-15.45,3.36-4.19-.19-4.44-.38-9.86-9.83-1.7-3-8.88-17.3-9.27-21.19h0c-.48-4.93-1.06-9.43-1.06-9.43s-2.92-5.59-5-7.69c-2.93-3-5.3-21.87-4.43-26.19,2.95-14.38,41.06-34.81,58.22-8.78,7.11,10.81,8.93,26.53,6,42.06" style="fill:none;stroke:#263238;stroke-linecap:round;stroke-linejoin:round"></path><path d="M304.56,191.68s5-3.74,12.89-1" style="fill:none;stroke:#263238;stroke-linecap:round;stroke-linejoin:round;stroke-width:2px"></path><path d="M292.35,195.94s-5.09-1.41-6.2,2" style="fill:none;stroke:#263238;stroke-linecap:round;stroke-linejoin:round;stroke-width:2px"></path><path d="M293.66,203.47c.4,1.23.26,2.38-.31,2.56s-1.35-.66-1.75-1.88-.26-2.37.3-2.56S293.26,202.25,293.66,203.47Z" style="fill:#263238"></path><path d="M310.64,199.28c.4,1.22.27,2.37-.3,2.55s-1.35-.66-1.75-1.88-.27-2.37.3-2.56S310.24,198.05,310.64,199.28Z" style="fill:#263238"></path><path d="M303.15,229s7.32-1.72,10.53-3.44a33.3,33.3,0,0,0,5.63-3.83,11.23,11.23,0,0,1,1.24,3.81c.19,1.94-6.28,8.12-13.46,7.72C307.09,233.26,307.44,231.6,303.15,229Z" style="fill:#fff;stroke:#263238;stroke-linecap:round;stroke-linejoin:round"></path><path d="M296,202.71s-1.11,11.68-2.84,13.8c0,0-3.88,3.7,2,6,2.56,1,2.1-1.1,7-.93s2.82-2.92,2.82-2.92" style="fill:#fff;stroke:#263238;stroke-linecap:round;stroke-linejoin:round"></path><path d="M308.53,167s-7,16.6-14.78,16.91c0,0,6.94-2.93,10.24-14.21,0,0-9.4,13.72-14.27,13.09a5.66,5.66,0,0,0-6.27,3.58,3.41,3.41,0,0,1-2.93-1.69c-1.2-1.82.87-11.82.87-11.82a28.83,28.83,0,0,0-3,8.63s-3.86-6.4,5.47-16.55,23.64-13.49,35.08-13c0,0,20.28-5.73,27.19,20.2s.78,36.36.78,36.36-6.52-23.69-8.36-19.13-.05,13.72-.05,13.72L332.82,200s-1.74-7.47-2.85-10.86-14.61-6.53-17.07-21.71c0,0-1.56,9.83-10.34,14A20,20,0,0,0,308.53,167Z" style="fill:#263238"></path><path d="M339.24,192.39c-.8-2.44,2-10.11,7.28-7.29,6.85,3.65,6.75,14.22,5,17.68s-5,7.86-6.41,7.54-2.36-3.12-2.36-3.12" style="fill:#fff;stroke:#263238;stroke-linecap:round;stroke-linejoin:round"></path><path d="M347.44,173.36a32.4,32.4,0,0,1,1,4c.15.82.25,1.57.32,2.25a20.83,20.83,0,0,1,.07,4c-.05.51-.1.77-.1.77-20.51-33.08-50.86-29-50.86-29a11.31,11.31,0,0,1,1.66-2.16,14.14,14.14,0,0,1,2.06-1.76c.43-.31.88-.6,1.34-.87h0a21.39,21.39,0,0,1,4.69-2c10.38-3.19,25.43-.66,33.26,11.19A51.79,51.79,0,0,1,347.44,173.36Z" style="fill:#BA68C8"></path><g style="clip-path:url(#freepik--clip-path-7--inject-51)"><path d="M348.73,179.58a20.83,20.83,0,0,1,.07,4c-1.64-4.87-5.29-9.38-17.65-19.92-13.51-11.53-27.34-11-31.65-10.49a14.14,14.14,0,0,1,2.06-1.76c6.06-.29,18.49.68,30.63,11C341.92,170.78,346.37,175.36,348.73,179.58Z" style="fill:#fff;opacity:0.7000000000000001"></path><path d="M347.44,173.36a32.4,32.4,0,0,1,1,4c-4.77-7.11-13.07-13.71-21.14-20.13l-2.1-1.67c-7.6-6.06-17.48-5.63-22.26-4.95a21.39,21.39,0,0,1,4.69-2c5.37-.1,12.55.91,18.57,5.71l2.1,1.67C335.27,161.52,342.45,167.23,347.44,173.36Z" style="fill:#fff;opacity:0.7000000000000001"></path></g><path d="M347.44,173.36a32.4,32.4,0,0,1,1,4c.15.82.25,1.57.32,2.25a20.83,20.83,0,0,1,.07,4c-.05.51-.1.77-.1.77-20.51-33.08-50.86-29-50.86-29a11.31,11.31,0,0,1,1.66-2.16,14.14,14.14,0,0,1,2.06-1.76c.43-.31.88-.6,1.34-.87h0a21.39,21.39,0,0,1,4.69-2c10.38-3.19,25.43-.66,33.26,11.19A51.79,51.79,0,0,1,347.44,173.36Z" style="fill:none;stroke:#263238;stroke-linecap:round;stroke-linejoin:round"></path><g style="opacity:0.30000000000000004"><path d="M326.06,178.47a13.29,13.29,0,0,0,4.92,1.47" style="fill:none;stroke:#fff;stroke-linecap:round;stroke-linejoin:round"></path><path d="M315.4,163.88c1.54,5.05,4.45,10.21,8.74,13.38" style="fill:none;stroke:#fff;stroke-linecap:round;stroke-linejoin:round"></path><path d="M299.76,169.51a18,18,0,0,1-8.39,5.58" style="fill:none;stroke:#fff;stroke-linecap:round;stroke-linejoin:round"></path><path d="M305.43,160.58a33.23,33.23,0,0,1-4.14,7.08" style="fill:none;stroke:#fff;stroke-linecap:round;stroke-linejoin:round"></path><path d="M289.5,167a12.33,12.33,0,0,1-4.28.83" style="fill:none;stroke:#fff;stroke-linecap:round;stroke-linejoin:round"></path><path d="M301.15,159.69a43.27,43.27,0,0,1-9.65,6.48" style="fill:none;stroke:#fff;stroke-linecap:round;stroke-linejoin:round"></path></g><path d="M280.76,361.68l-18.11,1.75s-15.16-6.68-17.12-8-5.55,2.12-6,2.77-7.17,2.78-7.17,2.78l-2.12,8.31s-4.73,4.08-4.73,5.22a19.28,19.28,0,0,0,.81,3.75s-3.1,5.22-2.93,6.85,8.48,2.45,8.48,2.45l.49-1.63s20.22,2,27.07-.49l26.59-1" style="fill:#fff;stroke:#263238;stroke-linecap:round;stroke-linejoin:round"></path><line x1="226.28" y1="378.27" x2="229.87" y2="374.69" style="fill:none;stroke:#263238;stroke-linecap:round;stroke-linejoin:round"></line><line x1="230.2" y1="369.3" x2="234.11" y2="365.55" style="fill:none;stroke:#263238;stroke-linecap:round;stroke-linejoin:round"></line><path d="M245.53,355.44c-3,.33-3.59,3.91-3.59,3.91s-3.75.25-4.4,2.33a10,10,0,0,0,0,4.69s-3.92.69-3.43,3.61.73,4.38,0,5.85,1.35,4.24,1.35,4.24" style="fill:none;stroke:#263238;stroke-linecap:round;stroke-linejoin:round"></path><path d="M232.32,385.94s-5.22.82-6-1" style="fill:none;stroke:#263238;stroke-linecap:round;stroke-linejoin:round"></path><path d="M386.3,257.19c-7.92,9.35-26.84,60-33.47,68.95S337.44,345,337.44,345s-49.26,8.28-54,9.33-9,4.8-9,4.8l-7.38.32s-9.59,15.85-.7,28.56l8.08-.4s3.17,3.18,9.5,3.41,52,1.27,61.7,1.81,39.78-4.49,44.53-17.8,32-51.72,33-63.77" style="fill:#fff"></path><g style="clip-path:url(#freepik--clip-path-8--inject-51)"><path d="M386.3,257.19c-7.92,9.35-26.84,60-33.47,68.95S337.44,345,337.44,345s-49.26,8.28-54,9.33-9,4.8-9,4.8l-7.38.32s-9.59,15.85-.7,28.56l8.08-.4s3.17,3.18,9.5,3.41,52,1.27,61.7,1.81,39.78-4.49,44.53-17.8,32-51.72,33-63.77" style="fill:#BA68C8;opacity:0.2"></path></g><path d="M386.3,257.19c-7.92,9.35-26.84,60-33.47,68.95S337.44,345,337.44,345s-49.26,8.28-54,9.33-9,4.8-9,4.8l-7.38.32s-9.59,15.85-.7,28.56l8.08-.4s3.17,3.18,9.5,3.41,52,1.27,61.7,1.81,39.78-4.49,44.53-17.8,32-51.72,33-63.77" style="fill:none;stroke:#263238;stroke-linecap:round;stroke-linejoin:round"></path><path d="M272,371a28.61,28.61,0,0,0,1.16,8.28" style="fill:none;stroke:#263238;stroke-linecap:round;stroke-linejoin:round"></path><path d="M274.46,359.17a27.05,27.05,0,0,0-2.39,9.13" style="fill:none;stroke:#263238;stroke-linecap:round;stroke-linejoin:round"></path><path d="M337.44,345s8.51,4.42,8.8,8.82,2.35-9.59,0-10.64" style="fill:none;stroke:#263238;stroke-linecap:round;stroke-linejoin:round"></path><path d="M388.41,319.92a54.61,54.61,0,0,1-15.52,4.43" style="fill:none;stroke:#263238;stroke-linecap:round;stroke-linejoin:round"></path><path d="M422,294.27a99.51,99.51,0,0,1-30.47,24.2" style="fill:none;stroke:#263238;stroke-linecap:round;stroke-linejoin:round"></path><path d="M333.4,384.82a34.49,34.49,0,0,0,6.89.08" style="fill:none;stroke:#263238;stroke-linecap:round;stroke-linejoin:round"></path><path d="M301.2,373.47c9,5.11,19.11,9.28,29.35,11" style="fill:none;stroke:#263238;stroke-linecap:round;stroke-linejoin:round"></path></g><g id="freepik--character-1--inject-51"><path d="M184.85,383.52H60.1s10.06-29,18-46.31c2.83-6.15,5.41-10.82,7.16-12.16,5.58-4.26,19.52-7.68,30.25-8.84a63.22,63.22,0,0,1,7.92-.42c7.53.18,15.56,2.66,23,6h0c14.83,6.7,27.37,16.9,29.13,19.48C178.25,345.18,184.85,383.52,184.85,383.52Z" style="fill:#bfbfbf"></path><g style="clip-path:url(#freepik--clip-path-9--inject-51)"><path d="M112.58,356.81S103.16,372.15,90,383.52H60.1s10.06-29,18-46.31C92,342,112.58,356.81,112.58,356.81Z" style="fill-opacity:0.7000000000000001;opacity:0.2"></path><path d="M174.82,383.52H160.57c4.14-5.25,8.46-11.81,10.28-18.19C170.85,365.33,176.54,375.11,174.82,383.52Z" style="fill-opacity:0.7000000000000001;opacity:0.2"></path><path d="M154.26,357.4s-8.45-.73-10.56,0-5,6.65-5,6.65c-2.58-4.21-2.32-10.53-2.32-10.53L130,355.75c-20.31-22.76-20.09-35.4-14.45-39.54a63.22,63.22,0,0,1,7.92-.42c7.53.18,15.56,2.66,23,6h0a41,41,0,0,1,5.78,5.73C166.65,344.84,154.26,357.4,154.26,357.4Z" style="fill-opacity:0.7000000000000001;opacity:0.2"></path></g><path d="M184.85,383.52H60.1s10.06-29,18-46.31c2.83-6.15,5.41-10.82,7.16-12.16,5.58-4.26,19.52-7.68,30.25-8.84a63.22,63.22,0,0,1,7.92-.42c7.53.18,15.56,2.66,23,6h0c14.83,6.7,27.37,16.9,29.13,19.48C178.25,345.18,184.85,383.52,184.85,383.52Z" style="fill:none;stroke:#263238;stroke-linecap:round;stroke-linejoin:round"></path><path d="M128.46,312.5s-9.15.65-13.9,5.86,13.9,28.95,13.9,28.95l7.07-6,6.36,14.14,8.67-14.14,5.74,5.61S165.7,322.39,128.46,312.5Z" style="fill:#bfbfbf;stroke:#263238;stroke-linecap:round;stroke-linejoin:round"></path><path d="M160.32,321.79c-4.08,6.92-7.28,12.29-10,15.24a11.44,11.44,0,0,1-1.89,1.71l-6.56,12.92L138,337.55c-10.67-6.34-14.57-19.25-14.57-19.25,8.11-5.87,6.92-15.5,6.92-15.5l28.84,18.29Z" style="fill:#fff;stroke:#263238;stroke-linecap:round;stroke-linejoin:round"></path><path d="M160.32,321.79c-4.08,6.92-7.28,12.29-10,15.24-11.13-5.84-8.45-19.42-8.45-19.42s8.13,1.65,17.33,3.48Z" style="fill:#263238"></path><path d="M86.86,324s14.35,7.12,17.81,19.75c5.74,21-35.41,30.94-35.41,30.94s-20.38-2.22-22.35-9.14C40.54,343.15,62,333.74,86.86,324Z" style="fill:#bfbfbf;stroke:#263238;stroke-linecap:round;stroke-linejoin:round"></path><path d="M99.66,361.68s-6.11,11.63-22.15,14.8" style="fill:none;stroke:#263238;stroke-linecap:round;stroke-linejoin:round"></path><path d="M141.89,355.44c-3.46,5.19-3.46,7.13-2.93,10.11s-5.28,10.93-5.28,10.93" style="fill:none;stroke:#263238;stroke-linecap:round;stroke-linejoin:round"></path><path d="M170.85,364.05s-1.83,13.61-11.19,19.47" style="fill:none;stroke:#263238;stroke-linecap:round;stroke-linejoin:round"></path><path d="M173.29,373.79a17.43,17.43,0,0,1-11.3,8" style="fill:none;stroke:#263238;stroke-linecap:round;stroke-linejoin:round"></path><path d="M129.07,307.09c-4-11.48-10.95-39.41,11.6-51.42,13.06-7,43.12,2.72,45.89,15.33s-6.53,54.29-16.42,61.41c-7,5.07-30-5.28-30.66-14.9" style="fill:#fff;stroke:#263238;stroke-linecap:round;stroke-linejoin:round"></path><path d="M165.59,290.93s-8.11-1.94-11.86,0" style="fill:none;stroke:#263238;stroke-linecap:round;stroke-linejoin:round;stroke-width:2px"></path><path d="M177.86,290.93s6.13-2.78,8-.79" style="fill:none;stroke:#263238;stroke-linecap:round;stroke-linejoin:round;stroke-width:2px"></path><path d="M161.54,301.5c-.3,1.61-1.38,2.76-2.42,2.57s-1.64-1.65-1.34-3.26,1.38-2.77,2.42-2.57S161.84,299.89,161.54,301.5Z" style="fill:#263238"></path><path d="M179.18,302.13c-.3,1.61-1.39,2.76-2.43,2.57s-1.63-1.65-1.33-3.26,1.38-2.77,2.42-2.57S179.47,300.52,179.18,302.13Z" style="fill:#263238"></path><path d="M173.77,301.78c-.17.62,2.2,7.1,2.2,7.1s2.17,3,1.89,3.61c-.79,1.72-4.35,2.64-7.12,2" style="fill:#fff;stroke:#263238;stroke-linecap:round;stroke-linejoin:round"></path><path d="M160.32,318.3c0,1.18,3.51,3,6.13,3.37,3.76.54,4.4.06,4.4.06" style="fill:#fff;stroke:#263238;stroke-linecap:round;stroke-linejoin:round"></path><path d="M177.3,257.19s11.24,4.27,13.08,16.14-3.32,14.51-3.32,14.51a21.65,21.65,0,0,0,1.74-11.35s-1.65,10.29-11.5,10c0,0,1.65-4.75.64-8.44,0,0-3.12,7.12-12.35,6.85,0,0,5.89-2.37,7.7-5.67,0,0-8.68,4.62-18.08,3.3,0,0-9.92,4.29-11.51,11.11l-4.22,2.6s-1-10.81-4.74-10.54-6.07,2.11-6.33,10.54,4,12,4,12l-3.43.69s-7.12-5.8-7.12-22.94,6.07-27.67,14-30.32C135.79,255.67,153.66,242.37,177.3,257.19Z" style="fill:#263238"></path><path d="M175.25,256c-35.83-4.89-52.39,20.24-52.53,19.31a11.74,11.74,0,0,1-.13-1.67,14.58,14.58,0,0,1,.43-3.71c.15-.63.33-1.26.54-1.87a28.35,28.35,0,0,1,2.6-5.42,36.47,36.47,0,0,1,4-5.42s-.2-2.45,3.95-5.42,5.28-.69,5.28-.69c9.37-3.37,17.2-3,23.12-1.53h0a33.81,33.81,0,0,1,5.05,1.72c.41.18.8.35,1.17.53a31.47,31.47,0,0,1,3.73,2.1A20.32,20.32,0,0,1,175.25,256Z" style="fill:#BA68C8"></path><g style="clip-path:url(#freepik--clip-path-10--inject-51)"><g style="opacity:0.7000000000000001"><path d="M168.78,251.8c-7.63.06-18.85,1.27-29.54,6.59C131,262.51,126,266.57,123,269.9a14.58,14.58,0,0,0-.43,3.71c2.46-3.45,7.35-8.36,17.54-13.43,12.12-6,25.27-6.56,32.38-6.28A31.47,31.47,0,0,0,168.78,251.8Z" style="fill:#fff"></path></g><g style="opacity:0.7000000000000001"><path d="M167.61,251.27c-7,.28-20.83,1.43-29.91,6.07A46.3,46.3,0,0,0,123.56,268a28.35,28.35,0,0,1,2.6-5.42,53.19,53.19,0,0,1,10.63-7.05c7.64-3.9,18.18-5.42,25.75-6h0A33.81,33.81,0,0,1,167.61,251.27Z" style="fill:#fff"></path></g></g><path d="M175.25,256c-35.83-4.89-52.39,20.24-52.53,19.31a11.74,11.74,0,0,1-.13-1.67,14.58,14.58,0,0,1,.43-3.71c.15-.63.33-1.26.54-1.87a28.35,28.35,0,0,1,2.6-5.42,36.47,36.47,0,0,1,4-5.42s-.2-2.45,3.95-5.42,5.28-.69,5.28-.69c9.37-3.37,17.2-3,23.12-1.53h0a33.81,33.81,0,0,1,5.05,1.72c.41.18.8.35,1.17.53a31.47,31.47,0,0,1,3.73,2.1A20.32,20.32,0,0,1,175.25,256Z" style="fill:none;stroke:#263238;stroke-linecap:round;stroke-linejoin:round"></path><g style="opacity:0.30000000000000004"><path d="M181.21,273.35a19.82,19.82,0,0,1-.58,4.73" style="fill:none;stroke:#fff;stroke-linecap:round;stroke-linejoin:round"></path><path d="M175.34,260.3a17.75,17.75,0,0,1,5.75,11.16" style="fill:none;stroke:#fff;stroke-linecap:round;stroke-linejoin:round"></path><path d="M172.48,265.3c.13,6.53-6.81,9.66-12.16,11.07" style="fill:none;stroke:#fff;stroke-linecap:round;stroke-linejoin:round"></path><path d="M170.74,259.67a11.83,11.83,0,0,1,1.48,3.56" style="fill:none;stroke:#fff;stroke-linecap:round;stroke-linejoin:round"></path><path d="M150.41,269a39.06,39.06,0,0,1-4.46.22" style="fill:none;stroke:#fff;stroke-linecap:round;stroke-linejoin:round"></path><path d="M165.59,259.67c-1.79,5.24-7.74,8-12.76,8.94" style="fill:none;stroke:#fff;stroke-linecap:round;stroke-linejoin:round"></path></g><path d="M68.54,341.3c3.71-4.62,54.07-12.06,56.31-9.95l9.62-.36s3.52,14.6,1.1,20.67L130,353l-13.19,6.19c-4.22,2-38.83,16.31-47.54,15.52" style="fill:#bfbfbf;stroke:#263238;stroke-linecap:round;stroke-linejoin:round"></path><path d="M166.45,342.82c.26-.06,5.87,1.78,7.65,1.65s2.51,5.08-5.54,3.76" style="fill:#fff;stroke:#263238;stroke-linecap:round;stroke-linejoin:round"></path><path d="M133.55,332.8s14-.59,16.79-.22,10.85,3.71,13.48,3.81,4,9.28,5.26,12.07-3.34,3.52-3.34,3.52c-1.2,3.17-3.76,2.6-3.76,2.6a6.58,6.58,0,0,1-6.19,2.23c-1.6,1.24-10.24,1.77-8-3.58,0,0-9,.49-9.71-3.58l-4.21.45A25.58,25.58,0,0,1,133.55,332.8Z" style="fill:#fff;stroke:#263238;stroke-linecap:round;stroke-linejoin:round"></path><path d="M147.74,353.23l2-1.57s1.32,2.72,2.5,3.16" style="fill:none;stroke:#263238;stroke-linecap:round;stroke-linejoin:round"></path><path d="M155.79,356.81c1.36-1.85,1.1-3.63.51-7.16" style="fill:none;stroke:#263238;stroke-linecap:round;stroke-linejoin:round"></path><path d="M162,354.58c.17-.81-1.47-7.67-1.47-7.67" style="fill:none;stroke:#263238;stroke-linecap:round;stroke-linejoin:round"></path><path d="M165.74,352c0-2.69-1.78-9.16-1.78-9.16" style="fill:none;stroke:#263238;stroke-linecap:round;stroke-linejoin:round"></path></g><g id="freepik--Dreidels--inject-51"><path d="M199.2,368a.86.86,0,0,1,0,.16l-.1,1-.8,8.16,0,.46a1.59,1.59,0,1,1-3.16-.31l0-.3.69-6.87.24-2.43a1.58,1.58,0,0,1,3.16.15Z" style="fill:#BA68C8"></path><g style="clip-path:url(#freepik--clip-path-11--inject-51)"><path d="M199.09,369.12l-.8,8.16-3.18-.15.69-6.87A8.16,8.16,0,0,1,199.09,369.12Z" style="fill-opacity:0.7000000000000001;opacity:0.30000000000000004"></path></g><path d="M199.2,368a.86.86,0,0,1,0,.16l-.1,1-.8,8.16,0,.46a1.59,1.59,0,1,1-3.16-.31l0-.3.69-6.87.24-2.43a1.58,1.58,0,0,1,3.16.15Z" style="fill:none;stroke:#263238;stroke-linecap:round;stroke-linejoin:round"></path><path d="M207,379.14l-.39,4a14.93,14.93,0,0,1-8.72,12.13l-2.92,1.32-.18.08-2.77-2a14.94,14.94,0,0,1-6.15-13.61l.4-4a2.59,2.59,0,0,1,2-2.27l8-1.86a2.49,2.49,0,0,1,1,0,2.41,2.41,0,0,1,.68.2l7.52,3.41A2.58,2.58,0,0,1,207,379.14Z" style="fill:#BA68C8"></path><g style="clip-path:url(#freepik--clip-path-12--inject-51)"><path d="M207,379.14l-.39,4a14.93,14.93,0,0,1-8.72,12.13l-2.92,1.32,2.32-23.7a2.41,2.41,0,0,1,.68.2l7.52,3.41A2.58,2.58,0,0,1,207,379.14Z" style="fill-opacity:0.7000000000000001;opacity:0.30000000000000004"></path></g><path d="M207,379.14l-.39,4a14.93,14.93,0,0,1-8.72,12.13l-2.92,1.32-.18.08-2.77-2a14.94,14.94,0,0,1-6.15-13.61l.4-4a2.59,2.59,0,0,1,2-2.27l8-1.86a2.49,2.49,0,0,1,1,0,2.41,2.41,0,0,1,.68.2l7.52,3.41A2.58,2.58,0,0,1,207,379.14Z" style="fill:none;stroke:#263238;stroke-linecap:round;stroke-linejoin:round"></path><path d="M200.65,377.06s1.79,1.91,3.42,2.07l-.67,6.7.41,0-1.4,1.68-3.37-1,1.55-1.48,2,.61.56-4.81s-2.22-.05-2.75-1.31A2.91,2.91,0,0,1,200.65,377.06Z" style="fill:#263238"></path><path d="M188.22,377.55c-.07.74,5.32-1.2,5.32-1.2l1.05,1-1.4,2.47.2,3.76-1.23,1.59a2,2,0,0,1-.54-1.21c.06-.57.51-4.24.51-4.24l1.13-1.46s-4.74,1.26-5.22,1.05S188.22,377.55,188.22,377.55Z" style="fill:#263238"></path><path d="M189.44,381.1a8.07,8.07,0,0,0-.28,2.74l-1,1,.34-3.4Z" style="fill:#263238"></path><path d="M195,394.17c0,.27,0,.53-.08.8" style="fill:#fff;stroke:#263238;stroke-linecap:round;stroke-linejoin:round"></path><path d="M195.37,390.57c-.06.54-.11,1.08-.16,1.62" style="fill:#fff;stroke:#263238;stroke-linecap:round;stroke-linejoin:round"></path><path d="M197,374.47q-.71,7.15-1.42,14.31" style="fill:#fff;stroke:#263238;stroke-linecap:round;stroke-linejoin:round"></path><path d="M209.78,384.76h-1" style="fill:none;stroke:#263238;stroke-linecap:round;stroke-linejoin:round"></path><path d="M215.14,384.05a10,10,0,0,1-3,.62" style="fill:none;stroke:#263238;stroke-linecap:round;stroke-linejoin:round"></path><path d="M196.58,374.33c2.46.35,21.5,4.62,19.65,8.79" style="fill:none;stroke:#263238;stroke-linecap:round;stroke-linejoin:round"></path><path d="M175.92,379c-3.53-3.55,2.81-4.76,5.11-5a67.87,67.87,0,0,1,11.23-.19" style="fill:none;stroke:#263238;stroke-linecap:round;stroke-linejoin:round"></path><path d="M180.84,381.62a25.77,25.77,0,0,1-3.65-1.61" style="fill:none;stroke:#263238;stroke-linecap:round;stroke-linejoin:round"></path><path d="M206.72,394.21c-.66,0-1.1,0-1.1,0" style="fill:none;stroke:#263238;stroke-linecap:round;stroke-linejoin:round"></path><path d="M203.64,389.4c4.64.86,7.68,2,8.24,3.17.44.92-.94,1.33-2.51,1.51" style="fill:none;stroke:#263238;stroke-linecap:round;stroke-linejoin:round"></path><path d="M187.48,387.92c1.54,0,3.24.08,5.08.19,2.9.18,5.59.45,8,.79" style="fill:none;stroke:#263238;stroke-linecap:round;stroke-linejoin:round"></path><path d="M182.57,388.09c.57-.06,1.2-.1,1.87-.13" style="fill:none;stroke:#263238;stroke-linecap:round;stroke-linejoin:round"></path><path d="M178.32,390.78c-.94-.95-.45-1.68,1.2-2.17" style="fill:none;stroke:#263238;stroke-linecap:round;stroke-linejoin:round"></path><path d="M202.65,363.06c3.33,1.13,4.28,3,1.86,3.58" style="fill:none;stroke:#263238;stroke-linecap:round;stroke-linejoin:round"></path><path d="M192.26,362.52a17.89,17.89,0,0,1,6.31-.29" style="fill:none;stroke:#263238;stroke-linecap:round;stroke-linejoin:round"></path><path d="M191.23,364.75c-.49-.38-.67-.77-.58-1.12" style="fill:none;stroke:#263238;stroke-linecap:round;stroke-linejoin:round"></path><path d="M287.67,385.61l-.15,0-.9.15L279.14,387l-.42.07a1.47,1.47,0,1,1-.49-2.9l.28,0,6.3-1,2.23-.38a1.47,1.47,0,0,1,.63,2.86Z" style="fill:#BA68C8"></path><g style="clip-path:url(#freepik--clip-path-13--inject-51)"><path d="M286.62,385.79,279.14,387l-.63-2.87,6.3-1A7.3,7.3,0,0,1,286.62,385.79Z" style="fill-opacity:0.7000000000000001;opacity:0.30000000000000004"></path></g><path d="M287.67,385.61l-.15,0-.9.15L279.14,387l-.42.07a1.47,1.47,0,1,1-.49-2.9l.28,0,6.3-1,2.23-.38a1.47,1.47,0,0,1,.63,2.86Z" style="fill:none;stroke:#263238;stroke-linecap:round;stroke-linejoin:round"></path><path d="M279.58,395.24l-3.68.62A13.81,13.81,0,0,1,263,391l-1.89-2.29-.11-.14,1.11-3a13.82,13.82,0,0,1,10.66-8.78l3.68-.61a2.4,2.4,0,0,1,2.51,1.25l3.6,6.72a2.4,2.4,0,0,1,.28.87,2.37,2.37,0,0,1,0,.65l-1.23,7.54A2.38,2.38,0,0,1,279.58,395.24Z" style="fill:#BA68C8"></path><g style="clip-path:url(#freepik--clip-path-14--inject-51)"><path d="M279.58,395.24l-3.68.62A13.81,13.81,0,0,1,263,391l-1.89-2.29,21.73-3.65a2.37,2.37,0,0,1,0,.65l-1.23,7.54A2.38,2.38,0,0,1,279.58,395.24Z" style="fill-opacity:0.7000000000000001;opacity:0.30000000000000004"></path></g><path d="M279.58,395.24l-3.68.62A13.81,13.81,0,0,1,263,391l-1.89-2.29-.11-.14,1.11-3a13.82,13.82,0,0,1,10.66-8.78l3.68-.61a2.4,2.4,0,0,1,2.51,1.25l3.6,6.72a2.4,2.4,0,0,1,.28.87,2.37,2.37,0,0,1,0,.65l-1.23,7.54A2.38,2.38,0,0,1,279.58,395.24Z" style="fill:none;stroke:#263238;stroke-linecap:round;stroke-linejoin:round"></path><path d="M279.91,389.09s-1.27,2.06-1,3.56l-6.15,1,.06.38L271,393.2l.09-3.25,1.7,1-.07,1.93,4.44-.66s-.5-2,.49-2.78A2.73,2.73,0,0,1,279.91,389.09Z" style="fill:#263238"></path><path d="M276.47,378.12c-.68.11,2.36,4.46,2.36,4.46l-.68,1.19-2.55-.66-3.3,1.09-1.71-.71s.42-.69.94-.78,3.91-.57,3.91-.57l1.58.66s-2.28-3.93-2.2-4.41S276.47,378.12,276.47,378.12Z" style="fill:#263238"></path><path d="M273.6,380.06a7.37,7.37,0,0,0-2.51.42l-1.12-.67,3.13-.51Z" style="fill:#263238"></path><path d="M263.27,388.19l-.73.12" style="fill:#fff;stroke:#263238;stroke-linecap:round;stroke-linejoin:round"></path><path d="M266.58,387.64l-1.5.25" style="fill:#fff;stroke:#263238;stroke-linecap:round;stroke-linejoin:round"></path><path d="M281.34,385.19l-13.13,2.18" style="fill:#fff;stroke:#263238;stroke-linecap:round;stroke-linejoin:round"></path></g><g id="freepik--Coins--inject-51"><path d="M133.68,394.52v1.73c0,.9,2.66,1.62,5.94,1.62s5.93-.72,5.93-1.62v-1.73" style="fill:#BA68C8"></path><g style="clip-path:url(#freepik--clip-path-15--inject-51)"><path d="M133.68,394.52v1.73c0,.9,2.66,1.62,5.94,1.62s5.93-.72,5.93-1.62v-1.73" style="fill-opacity:0.7000000000000001;opacity:0.2"></path></g><path d="M133.68,394.52v1.73c0,.9,2.66,1.62,5.94,1.62s5.93-.72,5.93-1.62v-1.73" style="fill:none;stroke:#263238;stroke-linecap:round;stroke-linejoin:round"></path><ellipse cx="139.62" cy="394.52" rx="5.93" ry="1.62" style="fill:#BA68C8;stroke:#263238;stroke-linecap:round;stroke-linejoin:round"></ellipse><path d="M151.42,403.82v1.73c0,.9,2.66,1.62,5.94,1.62s5.93-.72,5.93-1.62v-1.73" style="fill:#BA68C8"></path><g style="clip-path:url(#freepik--clip-path-16--inject-51)"><path d="M151.42,403.82v1.73c0,.9,2.66,1.62,5.94,1.62s5.93-.72,5.93-1.62v-1.73" style="fill-opacity:0.7000000000000001;opacity:0.2"></path></g><path d="M151.42,403.82v1.73c0,.9,2.66,1.62,5.94,1.62s5.93-.72,5.93-1.62v-1.73" style="fill:none;stroke:#263238;stroke-linecap:round;stroke-linejoin:round"></path><path d="M163.29,403.82c0,.89-2.66,1.62-5.93,1.62s-5.94-.73-5.94-1.62,2.66-1.62,5.94-1.62S163.29,402.93,163.29,403.82Z" style="fill:#BA68C8;stroke:#263238;stroke-linecap:round;stroke-linejoin:round"></path><path d="M127.75,408.41v1.73c0,.9,2.65,1.62,5.93,1.62s5.94-.72,5.94-1.62v-1.73" style="fill:#BA68C8"></path><g style="clip-path:url(#freepik--clip-path-17--inject-51)"><path d="M127.75,408.41v1.73c0,.9,2.65,1.62,5.93,1.62s5.94-.72,5.94-1.62v-1.73" style="fill-opacity:0.7000000000000001;opacity:0.2"></path></g><path d="M127.75,408.41v1.73c0,.9,2.65,1.62,5.93,1.62s5.94-.72,5.94-1.62v-1.73" style="fill:none;stroke:#263238;stroke-linecap:round;stroke-linejoin:round"></path><path d="M139.62,408.41c0,.9-2.66,1.62-5.94,1.62s-5.93-.72-5.93-1.62,2.65-1.62,5.93-1.62S139.62,407.52,139.62,408.41Z" style="fill:#BA68C8;stroke:#263238;stroke-linecap:round;stroke-linejoin:round"></path><path d="M157.91,396.14v1.73c0,.9,2.66,1.62,5.94,1.62s5.93-.72,5.93-1.62v-1.73" style="fill:#BA68C8"></path><g style="clip-path:url(#freepik--clip-path-18--inject-51)"><path d="M157.91,396.14v1.73c0,.9,2.66,1.62,5.94,1.62s5.93-.72,5.93-1.62v-1.73" style="fill-opacity:0.7000000000000001;opacity:0.2"></path></g><path d="M157.91,396.14v1.73c0,.9,2.66,1.62,5.94,1.62s5.93-.72,5.93-1.62v-1.73" style="fill:none;stroke:#263238;stroke-linecap:round;stroke-linejoin:round"></path><path d="M169.78,396.14c0,.9-2.66,1.62-5.93,1.62s-5.94-.72-5.94-1.62,2.66-1.62,5.94-1.62S169.78,395.25,169.78,396.14Z" style="fill:#BA68C8;stroke:#263238;stroke-linecap:round;stroke-linejoin:round"></path><path d="M299.28,400v1.73c0,.9,2.66,1.62,5.94,1.62s5.93-.72,5.93-1.62V400" style="fill:#BA68C8"></path><g style="clip-path:url(#freepik--clip-path-19--inject-51)"><path d="M299.28,400v1.73c0,.9,2.66,1.62,5.94,1.62s5.93-.72,5.93-1.62V400" style="fill-opacity:0.7000000000000001;opacity:0.2"></path></g><path d="M299.28,400v1.73c0,.9,2.66,1.62,5.94,1.62s5.93-.72,5.93-1.62V400" style="fill:none;stroke:#263238;stroke-linecap:round;stroke-linejoin:round"></path><ellipse cx="305.22" cy="399.98" rx="5.93" ry="1.62" style="fill:#BA68C8;stroke:#263238;stroke-linecap:round;stroke-linejoin:round"></ellipse><path d="M250.14,399.12v1.73c0,.89,2.65,1.62,5.93,1.62s5.94-.73,5.94-1.62v-1.73" style="fill:#BA68C8"></path><g style="clip-path:url(#freepik--clip-path-20--inject-51)"><path d="M250.14,399.12v1.73c0,.89,2.65,1.62,5.93,1.62s5.94-.73,5.94-1.62v-1.73" style="fill-opacity:0.7000000000000001;opacity:0.2"></path></g><path d="M250.14,399.12v1.73c0,.89,2.65,1.62,5.93,1.62s5.94-.73,5.94-1.62v-1.73" style="fill:none;stroke:#263238;stroke-linecap:round;stroke-linejoin:round"></path><path d="M262,399.12c0,.89-2.66,1.62-5.94,1.62s-5.93-.73-5.93-1.62,2.65-1.62,5.93-1.62S262,398.22,262,399.12Z" style="fill:#BA68C8;stroke:#263238;stroke-linecap:round;stroke-linejoin:round"></path><path d="M100.42,395.28V397c0,.89,2.66,1.62,5.93,1.62s5.94-.73,5.94-1.62v-1.73" style="fill:#BA68C8"></path><g style="clip-path:url(#freepik--clip-path-21--inject-51)"><path d="M100.42,395.28V397c0,.89,2.66,1.62,5.93,1.62s5.94-.73,5.94-1.62v-1.73" style="fill-opacity:0.7000000000000001;opacity:0.2"></path></g><path d="M100.42,395.28V397c0,.89,2.66,1.62,5.93,1.62s5.94-.73,5.94-1.62v-1.73" style="fill:none;stroke:#263238;stroke-linecap:round;stroke-linejoin:round"></path><path d="M112.29,395.28c0,.89-2.66,1.62-5.94,1.62s-5.93-.73-5.93-1.62,2.66-1.62,5.93-1.62S112.29,394.38,112.29,395.28Z" style="fill:#BA68C8;stroke:#263238;stroke-linecap:round;stroke-linejoin:round"></path><path d="M285.07,412.88v1.73c0,.9,2.65,1.62,5.93,1.62s5.93-.72,5.93-1.62v-1.73" style="fill:#BA68C8"></path><g style="clip-path:url(#freepik--clip-path-22--inject-51)"><path d="M285.07,412.88v1.73c0,.9,2.65,1.62,5.93,1.62s5.93-.72,5.93-1.62v-1.73" style="fill-opacity:0.7000000000000001;opacity:0.2"></path></g><path d="M285.07,412.88v1.73c0,.9,2.65,1.62,5.93,1.62s5.93-.72,5.93-1.62v-1.73" style="fill:none;stroke:#263238;stroke-linecap:round;stroke-linejoin:round"></path><ellipse cx="291" cy="412.88" rx="5.93" ry="1.62" style="fill:#BA68C8;stroke:#263238;stroke-linecap:round;stroke-linejoin:round"></ellipse><path d="M317,409.28V411c0,.89,2.66,1.62,5.94,1.62s5.93-.73,5.93-1.62v-1.73" style="fill:#BA68C8"></path><g style="clip-path:url(#freepik--clip-path-23--inject-51)"><path d="M317,409.28V411c0,.89,2.66,1.62,5.94,1.62s5.93-.73,5.93-1.62v-1.73" style="fill-opacity:0.7000000000000001;opacity:0.2"></path></g><path d="M317,409.28V411c0,.89,2.66,1.62,5.94,1.62s5.93-.73,5.93-1.62v-1.73" style="fill:none;stroke:#263238;stroke-linecap:round;stroke-linejoin:round"></path><path d="M328.89,409.28c0,.89-2.65,1.62-5.93,1.62s-5.94-.73-5.94-1.62,2.66-1.62,5.94-1.62S328.89,408.38,328.89,409.28Z" style="fill:#BA68C8;stroke:#263238;stroke-linecap:round;stroke-linejoin:round"></path><path d="M323.51,401.6v1.73c0,.9,2.66,1.62,5.94,1.62s5.93-.72,5.93-1.62V401.6" style="fill:#BA68C8"></path><g style="clip-path:url(#freepik--clip-path-24--inject-51)"><path d="M323.51,401.6v1.73c0,.9,2.66,1.62,5.94,1.62s5.93-.72,5.93-1.62V401.6" style="fill-opacity:0.7000000000000001;opacity:0.2"></path></g><path d="M323.51,401.6v1.73c0,.9,2.66,1.62,5.94,1.62s5.93-.72,5.93-1.62V401.6" style="fill:none;stroke:#263238;stroke-linecap:round;stroke-linejoin:round"></path><path d="M335.38,401.6c0,.89-2.66,1.62-5.93,1.62s-5.94-.73-5.94-1.62,2.66-1.62,5.94-1.62S335.38,400.71,335.38,401.6Z" style="fill:#BA68C8;stroke:#263238;stroke-linecap:round;stroke-linejoin:round"></path><rect x="183.44" y="409.28" width="65.76" height="11.81" style="fill:#757575;stroke:#263238;stroke-linecap:round;stroke-linejoin:round"></rect><polygon points="243.2 403.82 189.44 403.82 183.44 409.28 249.2 409.28 243.2 403.82" style="fill:#999;stroke:#263238;stroke-linecap:round;stroke-linejoin:round"></polygon><line x1="183.44" y1="413.75" x2="201.65" y2="413.75" style="fill:#999;stroke:#263238;stroke-linecap:round;stroke-linejoin:round"></line><line x1="204.62" y1="413.75" x2="206.8" y2="413.75" style="fill:#999;stroke:#263238;stroke-linecap:round;stroke-linejoin:round"></line><line x1="212.64" y1="413.75" x2="218.14" y2="413.75" style="fill:#999;stroke:#263238;stroke-linecap:round;stroke-linejoin:round"></line><line x1="222.1" y1="413.75" x2="239.33" y2="413.75" style="fill:#999;stroke:#263238;stroke-linecap:round;stroke-linejoin:round"></line><line x1="242.75" y1="413.75" x2="249.2" y2="413.75" style="fill:#999;stroke:#263238;stroke-linecap:round;stroke-linejoin:round"></line></g></svg>